<svg xmlns="http://www.w3.org/2000/svg" xmlns:xlink="http://www.w3.org/1999/xlink" width="396" zoomAndPan="magnify" viewBox="0 0 297.75 419.249985" height="559" preserveAspectRatio="xMidYMid meet" version="1.0"><defs><g/></defs><g fill="#272727" fill-opacity="1"><g transform="translate(128.797782, 255.989704)"><g><path d="M 4.71875 -1.515625 C 4.71875 -1.523438 4.726562 -1.53125 4.75 -1.53125 C 4.769531 -1.53125 4.785156 -1.523438 4.796875 -1.515625 C 4.816406 -1.503906 4.828125 -1.492188 4.828125 -1.484375 C 4.765625 -0.992188 4.734375 -0.546875 4.734375 -0.140625 C 4.734375 -0.0859375 4.722656 -0.0507812 4.703125 -0.03125 C 4.679688 -0.0078125 4.644531 0 4.59375 0 L 0.390625 0 C 0.367188 0 0.359375 -0.015625 0.359375 -0.046875 C 0.359375 -0.0859375 0.367188 -0.109375 0.390625 -0.109375 C 0.585938 -0.109375 0.734375 -0.125 0.828125 -0.15625 C 0.921875 -0.1875 0.984375 -0.25 1.015625 -0.34375 C 1.046875 -0.4375 1.0625 -0.578125 1.0625 -0.765625 L 1.0625 -5.171875 C 1.0625 -5.359375 1.046875 -5.492188 1.015625 -5.578125 C 0.984375 -5.671875 0.921875 -5.734375 0.828125 -5.765625 C 0.734375 -5.804688 0.585938 -5.828125 0.390625 -5.828125 C 0.367188 -5.828125 0.359375 -5.84375 0.359375 -5.875 C 0.359375 -5.914062 0.367188 -5.9375 0.390625 -5.9375 L 4.421875 -5.9375 C 4.484375 -5.9375 4.515625 -5.910156 4.515625 -5.859375 L 4.53125 -4.59375 C 4.53125 -4.570312 4.507812 -4.554688 4.46875 -4.546875 C 4.4375 -4.546875 4.421875 -4.554688 4.421875 -4.578125 C 4.316406 -4.941406 4.144531 -5.210938 3.90625 -5.390625 C 3.664062 -5.566406 3.347656 -5.65625 2.953125 -5.65625 L 2.671875 -5.65625 C 2.484375 -5.65625 2.34375 -5.613281 2.25 -5.53125 C 2.164062 -5.457031 2.125 -5.332031 2.125 -5.15625 L 2.125 -3.21875 L 2.90625 -3.21875 C 3.269531 -3.21875 3.550781 -3.28125 3.75 -3.40625 C 3.945312 -3.53125 4.046875 -3.707031 4.046875 -3.9375 C 4.046875 -3.957031 4.0625 -3.96875 4.09375 -3.96875 C 4.132812 -3.96875 4.15625 -3.957031 4.15625 -3.9375 L 4.140625 -3.09375 L 4.15625 -2.625 C 4.164062 -2.414062 4.171875 -2.25 4.171875 -2.125 C 4.171875 -2.101562 4.148438 -2.09375 4.109375 -2.09375 C 4.078125 -2.09375 4.0625 -2.101562 4.0625 -2.125 C 4.0625 -2.382812 3.957031 -2.585938 3.75 -2.734375 C 3.550781 -2.878906 3.265625 -2.953125 2.890625 -2.953125 L 2.125 -2.953125 L 2.125 -0.8125 C 2.125 -0.625 2.15625 -0.484375 2.21875 -0.390625 C 2.289062 -0.304688 2.40625 -0.265625 2.5625 -0.265625 L 2.875 -0.265625 C 3.363281 -0.265625 3.753906 -0.363281 4.046875 -0.5625 C 4.347656 -0.769531 4.570312 -1.085938 4.71875 -1.515625 Z M 4.71875 -1.515625 "/></g></g></g><g fill="#272727" fill-opacity="1"><g transform="translate(135.468336, 255.989704)"><g><path d="M 6.875 -5.9375 C 6.882812 -5.9375 6.890625 -5.914062 6.890625 -5.875 C 6.890625 -5.84375 6.882812 -5.828125 6.875 -5.828125 C 6.613281 -5.828125 6.410156 -5.722656 6.265625 -5.515625 C 6.117188 -5.316406 6.046875 -5.050781 6.046875 -4.71875 L 6.046875 0.140625 C 6.046875 0.160156 6.03125 0.171875 6 0.171875 C 5.976562 0.179688 5.960938 0.179688 5.953125 0.171875 L 1.484375 -4.90625 L 1.484375 -1.203125 C 1.484375 -0.867188 1.550781 -0.601562 1.6875 -0.40625 C 1.832031 -0.207031 2.03125 -0.109375 2.28125 -0.109375 C 2.289062 -0.109375 2.296875 -0.0859375 2.296875 -0.046875 C 2.296875 -0.015625 2.289062 0 2.28125 0 C 2.101562 0 1.96875 -0.00390625 1.875 -0.015625 L 0.765625 -0.015625 C 0.660156 -0.00390625 0.503906 0 0.296875 0 C 0.285156 0 0.28125 -0.015625 0.28125 -0.046875 C 0.28125 -0.0859375 0.285156 -0.109375 0.296875 -0.109375 C 0.578125 -0.109375 0.796875 -0.207031 0.953125 -0.40625 C 1.117188 -0.601562 1.203125 -0.867188 1.203125 -1.203125 L 1.203125 -5.21875 C 0.992188 -5.445312 0.816406 -5.601562 0.671875 -5.6875 C 0.523438 -5.78125 0.367188 -5.828125 0.203125 -5.828125 C 0.191406 -5.828125 0.1875 -5.84375 0.1875 -5.875 C 0.1875 -5.914062 0.191406 -5.9375 0.203125 -5.9375 L 0.609375 -5.921875 C 0.691406 -5.921875 0.8125 -5.921875 0.96875 -5.921875 L 1.6875 -5.921875 C 1.78125 -5.929688 1.890625 -5.9375 2.015625 -5.9375 C 2.066406 -5.9375 2.101562 -5.921875 2.125 -5.890625 C 2.15625 -5.867188 2.203125 -5.816406 2.265625 -5.734375 C 2.367188 -5.585938 2.441406 -5.488281 2.484375 -5.4375 L 5.78125 -1.65625 L 5.78125 -4.71875 C 5.78125 -5.0625 5.707031 -5.332031 5.5625 -5.53125 C 5.425781 -5.726562 5.234375 -5.828125 4.984375 -5.828125 C 4.972656 -5.828125 4.96875 -5.84375 4.96875 -5.875 C 4.96875 -5.914062 4.972656 -5.9375 4.984375 -5.9375 L 5.390625 -5.921875 C 5.597656 -5.910156 5.769531 -5.90625 5.90625 -5.90625 C 6.03125 -5.90625 6.207031 -5.910156 6.4375 -5.921875 Z M 6.875 -5.9375 "/></g></g></g><g fill="#272727" fill-opacity="1"><g transform="translate(143.877352, 255.989704)"><g><path d="M 4.71875 -1.515625 C 4.71875 -1.523438 4.726562 -1.53125 4.75 -1.53125 C 4.769531 -1.53125 4.785156 -1.523438 4.796875 -1.515625 C 4.816406 -1.503906 4.828125 -1.492188 4.828125 -1.484375 C 4.765625 -0.992188 4.734375 -0.546875 4.734375 -0.140625 C 4.734375 -0.0859375 4.722656 -0.0507812 4.703125 -0.03125 C 4.679688 -0.0078125 4.644531 0 4.59375 0 L 0.390625 0 C 0.367188 0 0.359375 -0.015625 0.359375 -0.046875 C 0.359375 -0.0859375 0.367188 -0.109375 0.390625 -0.109375 C 0.585938 -0.109375 0.734375 -0.125 0.828125 -0.15625 C 0.921875 -0.1875 0.984375 -0.25 1.015625 -0.34375 C 1.046875 -0.4375 1.0625 -0.578125 1.0625 -0.765625 L 1.0625 -5.171875 C 1.0625 -5.359375 1.046875 -5.492188 1.015625 -5.578125 C 0.984375 -5.671875 0.921875 -5.734375 0.828125 -5.765625 C 0.734375 -5.804688 0.585938 -5.828125 0.390625 -5.828125 C 0.367188 -5.828125 0.359375 -5.84375 0.359375 -5.875 C 0.359375 -5.914062 0.367188 -5.9375 0.390625 -5.9375 L 4.421875 -5.9375 C 4.484375 -5.9375 4.515625 -5.910156 4.515625 -5.859375 L 4.53125 -4.59375 C 4.53125 -4.570312 4.507812 -4.554688 4.46875 -4.546875 C 4.4375 -4.546875 4.421875 -4.554688 4.421875 -4.578125 C 4.316406 -4.941406 4.144531 -5.210938 3.90625 -5.390625 C 3.664062 -5.566406 3.347656 -5.65625 2.953125 -5.65625 L 2.671875 -5.65625 C 2.484375 -5.65625 2.34375 -5.613281 2.25 -5.53125 C 2.164062 -5.457031 2.125 -5.332031 2.125 -5.15625 L 2.125 -3.21875 L 2.90625 -3.21875 C 3.269531 -3.21875 3.550781 -3.28125 3.75 -3.40625 C 3.945312 -3.53125 4.046875 -3.707031 4.046875 -3.9375 C 4.046875 -3.957031 4.0625 -3.96875 4.09375 -3.96875 C 4.132812 -3.96875 4.15625 -3.957031 4.15625 -3.9375 L 4.140625 -3.09375 L 4.15625 -2.625 C 4.164062 -2.414062 4.171875 -2.25 4.171875 -2.125 C 4.171875 -2.101562 4.148438 -2.09375 4.109375 -2.09375 C 4.078125 -2.09375 4.0625 -2.101562 4.0625 -2.125 C 4.0625 -2.382812 3.957031 -2.585938 3.75 -2.734375 C 3.550781 -2.878906 3.265625 -2.953125 2.890625 -2.953125 L 2.125 -2.953125 L 2.125 -0.8125 C 2.125 -0.625 2.15625 -0.484375 2.21875 -0.390625 C 2.289062 -0.304688 2.40625 -0.265625 2.5625 -0.265625 L 2.875 -0.265625 C 3.363281 -0.265625 3.753906 -0.363281 4.046875 -0.5625 C 4.347656 -0.769531 4.570312 -1.085938 4.71875 -1.515625 Z M 4.71875 -1.515625 "/></g></g></g><g fill="#272727" fill-opacity="1"><g transform="translate(150.547906, 255.989704)"><g><path d="M 6.71875 -0.109375 C 6.738281 -0.109375 6.75 -0.0859375 6.75 -0.046875 C 6.75 -0.015625 6.738281 0 6.71875 0 L 5.03125 0 C 4.894531 0 4.632812 -0.25 4.25 -0.75 C 3.875 -1.257812 3.414062 -1.96875 2.875 -2.875 C 2.820312 -2.863281 2.75 -2.859375 2.65625 -2.859375 C 2.414062 -2.859375 2.242188 -2.863281 2.140625 -2.875 L 2.140625 -0.765625 C 2.140625 -0.566406 2.15625 -0.421875 2.1875 -0.328125 C 2.21875 -0.242188 2.28125 -0.1875 2.375 -0.15625 C 2.46875 -0.125 2.613281 -0.109375 2.8125 -0.109375 C 2.820312 -0.109375 2.828125 -0.0859375 2.828125 -0.046875 C 2.828125 -0.015625 2.820312 0 2.8125 0 C 2.601562 0 2.4375 -0.00390625 2.3125 -0.015625 L 0.90625 -0.015625 C 0.78125 -0.00390625 0.609375 0 0.390625 0 C 0.367188 0 0.359375 -0.015625 0.359375 -0.046875 C 0.359375 -0.0859375 0.367188 -0.109375 0.390625 -0.109375 C 0.585938 -0.109375 0.734375 -0.125 0.828125 -0.15625 C 0.921875 -0.1875 0.984375 -0.25 1.015625 -0.34375 C 1.054688 -0.4375 1.078125 -0.578125 1.078125 -0.765625 L 1.078125 -5.171875 C 1.078125 -5.359375 1.0625 -5.492188 1.03125 -5.578125 C 1 -5.671875 0.929688 -5.734375 0.828125 -5.765625 C 0.734375 -5.804688 0.59375 -5.828125 0.40625 -5.828125 C 0.382812 -5.828125 0.375 -5.84375 0.375 -5.875 C 0.375 -5.914062 0.382812 -5.9375 0.40625 -5.9375 L 0.90625 -5.921875 C 1.195312 -5.910156 1.425781 -5.90625 1.59375 -5.90625 C 1.8125 -5.90625 2.035156 -5.914062 2.265625 -5.9375 C 2.347656 -5.945312 2.453125 -5.953125 2.578125 -5.953125 C 2.703125 -5.960938 2.84375 -5.96875 3 -5.96875 C 3.570312 -5.96875 4.015625 -5.859375 4.328125 -5.640625 C 4.648438 -5.429688 4.8125 -5.140625 4.8125 -4.765625 C 4.8125 -4.410156 4.710938 -4.09375 4.515625 -3.8125 C 4.328125 -3.53125 4.078125 -3.304688 3.765625 -3.140625 C 4.265625 -2.378906 4.6875 -1.78125 5.03125 -1.34375 C 5.375 -0.914062 5.675781 -0.601562 5.9375 -0.40625 C 6.207031 -0.207031 6.46875 -0.109375 6.71875 -0.109375 Z M 2.140625 -3.140625 C 2.285156 -3.109375 2.46875 -3.09375 2.6875 -3.09375 C 3.050781 -3.09375 3.3125 -3.195312 3.46875 -3.40625 C 3.632812 -3.613281 3.71875 -3.945312 3.71875 -4.40625 C 3.71875 -4.914062 3.640625 -5.269531 3.484375 -5.46875 C 3.335938 -5.664062 3.125 -5.765625 2.84375 -5.765625 C 2.582031 -5.765625 2.398438 -5.71875 2.296875 -5.625 C 2.191406 -5.53125 2.140625 -5.375 2.140625 -5.15625 Z M 2.140625 -3.140625 "/></g></g></g><g fill="#272727" fill-opacity="1"><g transform="translate(158.605438, 255.989704)"><g><path d="M 3.484375 0.109375 C 2.890625 0.109375 2.363281 -0.0234375 1.90625 -0.296875 C 1.445312 -0.578125 1.09375 -0.953125 0.84375 -1.421875 C 0.59375 -1.890625 0.46875 -2.40625 0.46875 -2.96875 C 0.46875 -3.613281 0.628906 -4.171875 0.953125 -4.640625 C 1.285156 -5.109375 1.707031 -5.457031 2.21875 -5.6875 C 2.738281 -5.925781 3.269531 -6.046875 3.8125 -6.046875 C 4.414062 -6.046875 4.941406 -5.90625 5.390625 -5.625 C 5.847656 -5.34375 6.195312 -4.96875 6.4375 -4.5 C 6.6875 -4.039062 6.8125 -3.550781 6.8125 -3.03125 C 6.8125 -2.457031 6.660156 -1.925781 6.359375 -1.4375 C 6.054688 -0.957031 5.648438 -0.578125 5.140625 -0.296875 C 4.628906 -0.0234375 4.078125 0.109375 3.484375 0.109375 Z M 3.796875 -0.125 C 4.148438 -0.125 4.46875 -0.222656 4.75 -0.421875 C 5.03125 -0.628906 5.25 -0.929688 5.40625 -1.328125 C 5.5625 -1.722656 5.640625 -2.195312 5.640625 -2.75 C 5.640625 -3.332031 5.550781 -3.851562 5.375 -4.3125 C 5.195312 -4.769531 4.941406 -5.128906 4.609375 -5.390625 C 4.273438 -5.648438 3.878906 -5.78125 3.421875 -5.78125 C 2.847656 -5.78125 2.40625 -5.5625 2.09375 -5.125 C 1.789062 -4.695312 1.640625 -4.09375 1.640625 -3.3125 C 1.640625 -2.695312 1.726562 -2.144531 1.90625 -1.65625 C 2.09375 -1.175781 2.347656 -0.800781 2.671875 -0.53125 C 3.003906 -0.257812 3.378906 -0.125 3.796875 -0.125 Z M 3.796875 -0.125 "/></g></g></g><g fill="#272727" fill-opacity="1"><g transform="translate(136.082357, 296.663033)"><g><path d="M 0.34375 -0.25 C 0.894531 -0.757812 1.296875 -1.140625 1.546875 -1.390625 C 1.804688 -1.648438 1.988281 -1.875 2.09375 -2.0625 C 2.195312 -2.25 2.25 -2.4375 2.25 -2.625 C 2.25 -2.851562 2.1875 -3.054688 2.0625 -3.234375 C 1.945312 -3.410156 1.78125 -3.5 1.5625 -3.5 C 1.320312 -3.5 1.128906 -3.394531 0.984375 -3.1875 C 0.835938 -2.976562 0.6875 -2.660156 0.53125 -2.234375 C 0.53125 -2.222656 0.519531 -2.21875 0.5 -2.21875 C 0.4375 -2.21875 0.410156 -2.226562 0.421875 -2.25 L 0.84375 -3.875 C 0.84375 -3.882812 0.851562 -3.890625 0.875 -3.890625 C 0.894531 -3.890625 0.910156 -3.882812 0.921875 -3.875 C 0.941406 -3.863281 0.945312 -3.859375 0.9375 -3.859375 C 0.9375 -3.828125 0.9375 -3.789062 0.9375 -3.75 C 0.9375 -3.632812 0.984375 -3.578125 1.078125 -3.578125 C 1.128906 -3.578125 1.222656 -3.597656 1.359375 -3.640625 C 1.628906 -3.742188 1.878906 -3.796875 2.109375 -3.796875 C 2.453125 -3.796875 2.722656 -3.710938 2.921875 -3.546875 C 3.117188 -3.378906 3.21875 -3.160156 3.21875 -2.890625 C 3.21875 -2.554688 3.085938 -2.253906 2.828125 -1.984375 C 2.578125 -1.722656 2.226562 -1.429688 1.78125 -1.109375 L 1.390625 -0.828125 C 1.378906 -0.804688 1.375 -0.789062 1.375 -0.78125 C 1.382812 -0.769531 1.40625 -0.765625 1.4375 -0.765625 C 1.945312 -0.765625 2.328125 -0.769531 2.578125 -0.78125 C 2.835938 -0.800781 3.039062 -0.84375 3.1875 -0.90625 C 3.34375 -0.976562 3.441406 -1.085938 3.484375 -1.234375 C 3.492188 -1.253906 3.515625 -1.265625 3.546875 -1.265625 C 3.578125 -1.265625 3.59375 -1.253906 3.59375 -1.234375 L 3.40625 -0.109375 C 3.40625 -0.078125 3.394531 -0.0507812 3.375 -0.03125 C 3.363281 -0.0078125 3.34375 0 3.3125 0 L 0.40625 0 C 0.382812 0 0.363281 -0.015625 0.34375 -0.046875 C 0.332031 -0.0859375 0.328125 -0.128906 0.328125 -0.171875 C 0.328125 -0.210938 0.332031 -0.238281 0.34375 -0.25 Z M 0.34375 -0.25 "/></g></g></g><g fill="#272727" fill-opacity="1"><g transform="translate(141.327947, 296.663033)"><g><path d="M 2.28125 0.125 C 1.882812 0.125 1.53125 0.0390625 1.21875 -0.125 C 0.914062 -0.300781 0.675781 -0.539062 0.5 -0.84375 C 0.332031 -1.144531 0.25 -1.484375 0.25 -1.859375 C 0.25 -2.222656 0.332031 -2.550781 0.5 -2.84375 C 0.675781 -3.144531 0.914062 -3.378906 1.21875 -3.546875 C 1.53125 -3.710938 1.882812 -3.796875 2.28125 -3.796875 C 2.675781 -3.796875 3.023438 -3.707031 3.328125 -3.53125 C 3.628906 -3.363281 3.863281 -3.128906 4.03125 -2.828125 C 4.195312 -2.535156 4.28125 -2.203125 4.28125 -1.828125 C 4.28125 -1.453125 4.191406 -1.113281 4.015625 -0.8125 C 3.847656 -0.519531 3.613281 -0.289062 3.3125 -0.125 C 3.007812 0.0390625 2.664062 0.125 2.28125 0.125 Z M 2.375 -0.078125 C 2.664062 -0.078125 2.882812 -0.21875 3.03125 -0.5 C 3.1875 -0.789062 3.265625 -1.191406 3.265625 -1.703125 C 3.265625 -2.335938 3.160156 -2.8125 2.953125 -3.125 C 2.753906 -3.4375 2.503906 -3.59375 2.203125 -3.59375 C 1.898438 -3.59375 1.664062 -3.441406 1.5 -3.140625 C 1.34375 -2.847656 1.265625 -2.453125 1.265625 -1.953125 C 1.265625 -1.390625 1.363281 -0.9375 1.5625 -0.59375 C 1.769531 -0.25 2.039062 -0.078125 2.375 -0.078125 Z M 2.375 -0.078125 "/></g></g></g><g fill="#272727" fill-opacity="1"><g transform="translate(147.286024, 296.663033)"><g><path d="M 0.34375 -0.25 C 0.894531 -0.757812 1.296875 -1.140625 1.546875 -1.390625 C 1.804688 -1.648438 1.988281 -1.875 2.09375 -2.0625 C 2.195312 -2.25 2.25 -2.4375 2.25 -2.625 C 2.25 -2.851562 2.1875 -3.054688 2.0625 -3.234375 C 1.945312 -3.410156 1.78125 -3.5 1.5625 -3.5 C 1.320312 -3.5 1.128906 -3.394531 0.984375 -3.1875 C 0.835938 -2.976562 0.6875 -2.660156 0.53125 -2.234375 C 0.53125 -2.222656 0.519531 -2.21875 0.5 -2.21875 C 0.4375 -2.21875 0.410156 -2.226562 0.421875 -2.25 L 0.84375 -3.875 C 0.84375 -3.882812 0.851562 -3.890625 0.875 -3.890625 C 0.894531 -3.890625 0.910156 -3.882812 0.921875 -3.875 C 0.941406 -3.863281 0.945312 -3.859375 0.9375 -3.859375 C 0.9375 -3.828125 0.9375 -3.789062 0.9375 -3.75 C 0.9375 -3.632812 0.984375 -3.578125 1.078125 -3.578125 C 1.128906 -3.578125 1.222656 -3.597656 1.359375 -3.640625 C 1.628906 -3.742188 1.878906 -3.796875 2.109375 -3.796875 C 2.453125 -3.796875 2.722656 -3.710938 2.921875 -3.546875 C 3.117188 -3.378906 3.21875 -3.160156 3.21875 -2.890625 C 3.21875 -2.554688 3.085938 -2.253906 2.828125 -1.984375 C 2.578125 -1.722656 2.226562 -1.429688 1.78125 -1.109375 L 1.390625 -0.828125 C 1.378906 -0.804688 1.375 -0.789062 1.375 -0.78125 C 1.382812 -0.769531 1.40625 -0.765625 1.4375 -0.765625 C 1.945312 -0.765625 2.328125 -0.769531 2.578125 -0.78125 C 2.835938 -0.800781 3.039062 -0.84375 3.1875 -0.90625 C 3.34375 -0.976562 3.441406 -1.085938 3.484375 -1.234375 C 3.492188 -1.253906 3.515625 -1.265625 3.546875 -1.265625 C 3.578125 -1.265625 3.59375 -1.253906 3.59375 -1.234375 L 3.40625 -0.109375 C 3.40625 -0.078125 3.394531 -0.0507812 3.375 -0.03125 C 3.363281 -0.0078125 3.34375 0 3.3125 0 L 0.40625 0 C 0.382812 0 0.363281 -0.015625 0.34375 -0.046875 C 0.332031 -0.0859375 0.328125 -0.128906 0.328125 -0.171875 C 0.328125 -0.210938 0.332031 -0.238281 0.34375 -0.25 Z M 0.34375 -0.25 "/></g></g></g><g fill="#272727" fill-opacity="1"><g transform="translate(152.531614, 296.663033)"><g><path d="M 0.84375 -1.859375 C 1.726562 -1.847656 2.378906 -1.6875 2.796875 -1.375 C 3.210938 -1.0625 3.421875 -0.628906 3.421875 -0.078125 C 3.421875 0.273438 3.320312 0.597656 3.125 0.890625 C 2.9375 1.191406 2.640625 1.476562 2.234375 1.75 C 1.835938 2.03125 1.304688 2.316406 0.640625 2.609375 C 0.609375 2.609375 0.582031 2.59375 0.5625 2.5625 C 0.550781 2.539062 0.5625 2.523438 0.59375 2.515625 C 1.269531 2.117188 1.742188 1.722656 2.015625 1.328125 C 2.296875 0.941406 2.4375 0.523438 2.4375 0.078125 C 2.4375 -0.453125 2.28125 -0.863281 1.96875 -1.15625 C 1.664062 -1.445312 1.222656 -1.59375 0.640625 -1.59375 C 0.609375 -1.59375 0.582031 -1.601562 0.5625 -1.625 C 0.550781 -1.644531 0.546875 -1.671875 0.546875 -1.703125 L 0.859375 -3.390625 C 0.859375 -3.429688 0.863281 -3.457031 0.875 -3.46875 C 0.894531 -3.476562 0.929688 -3.488281 0.984375 -3.5 C 1.773438 -3.59375 2.304688 -3.65625 2.578125 -3.6875 C 2.859375 -3.726562 3.035156 -3.769531 3.109375 -3.8125 C 3.191406 -3.851562 3.25 -3.921875 3.28125 -4.015625 C 3.28125 -4.035156 3.296875 -4.039062 3.328125 -4.03125 C 3.367188 -4.03125 3.382812 -4.019531 3.375 -4 L 3.1875 -2.9375 C 3.164062 -2.875 3.132812 -2.832031 3.09375 -2.8125 C 3.0625 -2.789062 3.003906 -2.78125 2.921875 -2.78125 L 1.125 -2.734375 C 1.039062 -2.734375 0.992188 -2.691406 0.984375 -2.609375 Z M 0.84375 -1.859375 "/></g></g></g><g fill="#a586a6" fill-opacity="1"><g transform="translate(137.08566, 277.479199)"><g><path d="M 0.75 -0.546875 C 1.925781 -1.628906 2.785156 -2.441406 3.328125 -2.984375 C 3.867188 -3.535156 4.25 -4.007812 4.46875 -4.40625 C 4.695312 -4.800781 4.8125 -5.203125 4.8125 -5.609375 C 4.8125 -6.109375 4.679688 -6.539062 4.421875 -6.90625 C 4.171875 -7.28125 3.804688 -7.46875 3.328125 -7.46875 C 2.828125 -7.46875 2.414062 -7.25 2.09375 -6.8125 C 1.78125 -6.375 1.460938 -5.691406 1.140625 -4.765625 C 1.140625 -4.753906 1.113281 -4.75 1.0625 -4.75 C 0.9375 -4.75 0.878906 -4.769531 0.890625 -4.8125 L 1.78125 -8.28125 C 1.78125 -8.3125 1.8125 -8.328125 1.875 -8.328125 C 1.90625 -8.328125 1.9375 -8.316406 1.96875 -8.296875 C 2.007812 -8.273438 2.023438 -8.253906 2.015625 -8.234375 C 1.992188 -8.171875 1.984375 -8.09375 1.984375 -8 C 1.984375 -7.769531 2.085938 -7.65625 2.296875 -7.65625 C 2.410156 -7.65625 2.613281 -7.703125 2.90625 -7.796875 C 3.488281 -7.992188 4.019531 -8.09375 4.5 -8.09375 C 5.25 -8.09375 5.832031 -7.914062 6.25 -7.5625 C 6.664062 -7.21875 6.875 -6.753906 6.875 -6.171875 C 6.875 -5.460938 6.597656 -4.820312 6.046875 -4.25 C 5.503906 -3.675781 4.753906 -3.050781 3.796875 -2.375 L 2.984375 -1.765625 C 2.941406 -1.722656 2.929688 -1.6875 2.953125 -1.65625 C 2.972656 -1.632812 3.015625 -1.625 3.078125 -1.625 C 4.160156 -1.625 4.976562 -1.644531 5.53125 -1.6875 C 6.082031 -1.726562 6.515625 -1.816406 6.828125 -1.953125 C 7.148438 -2.097656 7.359375 -2.328125 7.453125 -2.640625 C 7.460938 -2.679688 7.503906 -2.703125 7.578125 -2.703125 C 7.648438 -2.703125 7.6875 -2.679688 7.6875 -2.640625 L 7.265625 -0.21875 C 7.265625 -0.164062 7.25 -0.113281 7.21875 -0.0625 C 7.1875 -0.0195312 7.140625 0 7.078125 0 L 0.875 0 C 0.820312 0 0.773438 -0.0390625 0.734375 -0.125 C 0.703125 -0.207031 0.6875 -0.285156 0.6875 -0.359375 C 0.6875 -0.441406 0.707031 -0.503906 0.75 -0.546875 Z M 0.75 -0.546875 "/></g></g></g><g fill="#a586a6" fill-opacity="1"><g transform="translate(148.290426, 277.479199)"><g><path d="M 1.8125 -3.984375 C 3.695312 -3.953125 5.082031 -3.597656 5.96875 -2.921875 C 6.863281 -2.253906 7.3125 -1.34375 7.3125 -0.1875 C 7.3125 0.582031 7.109375 1.28125 6.703125 1.90625 C 6.296875 2.539062 5.660156 3.148438 4.796875 3.734375 C 3.941406 4.328125 2.800781 4.941406 1.375 5.578125 L 1.359375 5.578125 C 1.304688 5.578125 1.257812 5.546875 1.21875 5.484375 C 1.1875 5.429688 1.203125 5.390625 1.265625 5.359375 C 2.722656 4.535156 3.742188 3.703125 4.328125 2.859375 C 4.921875 2.023438 5.21875 1.125 5.21875 0.15625 C 5.21875 -0.957031 4.882812 -1.828125 4.21875 -2.453125 C 3.5625 -3.078125 2.613281 -3.390625 1.375 -3.390625 C 1.3125 -3.390625 1.257812 -3.410156 1.21875 -3.453125 C 1.175781 -3.503906 1.160156 -3.566406 1.171875 -3.640625 L 1.828125 -7.25 C 1.835938 -7.34375 1.851562 -7.398438 1.875 -7.421875 C 1.90625 -7.441406 1.976562 -7.457031 2.09375 -7.46875 C 3.789062 -7.675781 4.929688 -7.816406 5.515625 -7.890625 C 6.097656 -7.972656 6.472656 -8.054688 6.640625 -8.140625 C 6.816406 -8.234375 6.9375 -8.378906 7 -8.578125 C 7.007812 -8.617188 7.050781 -8.632812 7.125 -8.625 C 7.207031 -8.625 7.238281 -8.597656 7.21875 -8.546875 L 6.8125 -6.296875 C 6.78125 -6.140625 6.722656 -6.035156 6.640625 -5.984375 C 6.554688 -5.941406 6.425781 -5.921875 6.25 -5.921875 L 2.390625 -5.84375 C 2.210938 -5.84375 2.113281 -5.75 2.09375 -5.5625 Z M 1.8125 -3.984375 "/></g></g></g><g fill="#272727" fill-opacity="1"><g transform="translate(119.697395, 321.999708)"><g><path d="M 3.625 -3.84375 C 4.207031 -3.800781 4.675781 -3.609375 5.03125 -3.265625 C 5.382812 -2.929688 5.5625 -2.515625 5.5625 -2.015625 C 5.5625 -1.628906 5.460938 -1.273438 5.265625 -0.953125 C 5.078125 -0.640625 4.816406 -0.394531 4.484375 -0.21875 C 4.148438 -0.0390625 3.78125 0.046875 3.375 0.046875 C 3.132812 0.046875 2.875 0.0351562 2.59375 0.015625 C 2.488281 0.00390625 2.363281 0 2.21875 0 C 2.082031 -0.0078125 1.929688 -0.015625 1.765625 -0.015625 L 1.03125 -0.015625 C 0.894531 -0.00390625 0.707031 0 0.46875 0 C 0.457031 0 0.453125 -0.0195312 0.453125 -0.0625 C 0.453125 -0.101562 0.457031 -0.125 0.46875 -0.125 C 0.738281 -0.125 0.9375 -0.144531 1.0625 -0.1875 C 1.195312 -0.226562 1.289062 -0.300781 1.34375 -0.40625 C 1.394531 -0.507812 1.421875 -0.671875 1.421875 -0.890625 L 1.421875 -5.953125 C 1.421875 -6.171875 1.394531 -6.328125 1.34375 -6.421875 C 1.300781 -6.523438 1.210938 -6.597656 1.078125 -6.640625 C 0.953125 -6.679688 0.753906 -6.703125 0.484375 -6.703125 C 0.460938 -6.703125 0.453125 -6.722656 0.453125 -6.765625 C 0.453125 -6.804688 0.460938 -6.828125 0.484375 -6.828125 L 1.03125 -6.828125 C 1.332031 -6.804688 1.578125 -6.796875 1.765625 -6.796875 C 1.898438 -6.796875 2.023438 -6.800781 2.140625 -6.8125 C 2.253906 -6.820312 2.347656 -6.828125 2.421875 -6.828125 C 2.648438 -6.859375 2.863281 -6.875 3.0625 -6.875 C 3.675781 -6.875 4.132812 -6.738281 4.4375 -6.46875 C 4.75 -6.195312 4.90625 -5.847656 4.90625 -5.421875 C 4.90625 -5.078125 4.789062 -4.765625 4.5625 -4.484375 C 4.332031 -4.210938 4.019531 -4 3.625 -3.84375 Z M 2.828125 -6.703125 C 2.640625 -6.703125 2.5 -6.6875 2.40625 -6.65625 C 2.3125 -6.625 2.238281 -6.550781 2.1875 -6.4375 C 2.144531 -6.332031 2.125 -6.160156 2.125 -5.921875 L 2.125 -3.84375 L 2.625 -3.84375 C 3.15625 -3.84375 3.546875 -3.976562 3.796875 -4.25 C 4.054688 -4.519531 4.1875 -4.882812 4.1875 -5.34375 C 4.1875 -5.75 4.070312 -6.078125 3.84375 -6.328125 C 3.625 -6.578125 3.285156 -6.703125 2.828125 -6.703125 Z M 3.21875 -0.15625 C 3.75 -0.15625 4.144531 -0.289062 4.40625 -0.5625 C 4.664062 -0.832031 4.796875 -1.222656 4.796875 -1.734375 C 4.796875 -2.285156 4.628906 -2.734375 4.296875 -3.078125 C 3.972656 -3.421875 3.53125 -3.597656 2.96875 -3.609375 C 2.726562 -3.617188 2.445312 -3.613281 2.125 -3.59375 L 2.125 -0.890625 C 2.125 -0.691406 2.148438 -0.539062 2.203125 -0.4375 C 2.265625 -0.34375 2.375 -0.269531 2.53125 -0.21875 C 2.6875 -0.175781 2.914062 -0.15625 3.21875 -0.15625 Z M 3.21875 -0.15625 "/></g></g></g><g fill="#272727" fill-opacity="1"><g transform="translate(126.435156, 321.999708)"><g><path d="M 4 0.125 C 3.320312 0.125 2.71875 -0.03125 2.1875 -0.34375 C 1.664062 -0.65625 1.257812 -1.082031 0.96875 -1.625 C 0.675781 -2.175781 0.53125 -2.769531 0.53125 -3.40625 C 0.53125 -4.15625 0.71875 -4.796875 1.09375 -5.328125 C 1.476562 -5.867188 1.96875 -6.273438 2.5625 -6.546875 C 3.15625 -6.816406 3.765625 -6.953125 4.390625 -6.953125 C 5.078125 -6.953125 5.679688 -6.789062 6.203125 -6.46875 C 6.734375 -6.144531 7.140625 -5.71875 7.421875 -5.1875 C 7.703125 -4.65625 7.84375 -4.085938 7.84375 -3.484375 C 7.84375 -2.828125 7.664062 -2.21875 7.3125 -1.65625 C 6.96875 -1.101562 6.5 -0.664062 5.90625 -0.34375 C 5.320312 -0.03125 4.6875 0.125 4 0.125 Z M 4.390625 -0.09375 C 4.878906 -0.09375 5.320312 -0.210938 5.71875 -0.453125 C 6.125 -0.691406 6.441406 -1.046875 6.671875 -1.515625 C 6.898438 -1.984375 7.015625 -2.539062 7.015625 -3.1875 C 7.015625 -3.863281 6.882812 -4.46875 6.625 -5 C 6.375 -5.539062 6.015625 -5.957031 5.546875 -6.25 C 5.085938 -6.550781 4.546875 -6.703125 3.921875 -6.703125 C 3.117188 -6.703125 2.488281 -6.441406 2.03125 -5.921875 C 1.582031 -5.410156 1.359375 -4.703125 1.359375 -3.796875 C 1.359375 -3.109375 1.484375 -2.484375 1.734375 -1.921875 C 1.992188 -1.359375 2.351562 -0.910156 2.8125 -0.578125 C 3.28125 -0.253906 3.804688 -0.09375 4.390625 -0.09375 Z M 4.390625 -0.09375 "/></g></g></g><g fill="#272727" fill-opacity="1"><g transform="translate(135.447903, 321.999708)"><g><path d="M 8.15625 1.765625 C 8.175781 1.765625 8.191406 1.78125 8.203125 1.8125 C 8.210938 1.84375 8.207031 1.863281 8.1875 1.875 C 7.820312 1.957031 7.515625 2 7.265625 2 C 6.753906 2 6.21875 1.832031 5.65625 1.5 C 5.101562 1.164062 4.625 0.707031 4.21875 0.125 C 4.164062 0.125 4.09375 0.125 4 0.125 C 3.320312 0.125 2.71875 -0.03125 2.1875 -0.34375 C 1.664062 -0.65625 1.257812 -1.082031 0.96875 -1.625 C 0.675781 -2.175781 0.53125 -2.769531 0.53125 -3.40625 C 0.53125 -4.15625 0.71875 -4.796875 1.09375 -5.328125 C 1.476562 -5.867188 1.96875 -6.273438 2.5625 -6.546875 C 3.15625 -6.816406 3.765625 -6.953125 4.390625 -6.953125 C 5.078125 -6.953125 5.679688 -6.789062 6.203125 -6.46875 C 6.734375 -6.144531 7.140625 -5.71875 7.421875 -5.1875 C 7.703125 -4.65625 7.84375 -4.085938 7.84375 -3.484375 C 7.84375 -2.941406 7.722656 -2.429688 7.484375 -1.953125 C 7.242188 -1.484375 6.914062 -1.078125 6.5 -0.734375 C 6.09375 -0.398438 5.625 -0.160156 5.09375 -0.015625 C 5.40625 0.503906 5.8125 0.9375 6.3125 1.28125 C 6.820312 1.625 7.300781 1.796875 7.75 1.796875 C 7.914062 1.796875 8.046875 1.785156 8.140625 1.765625 Z M 1.359375 -3.796875 C 1.359375 -3.109375 1.484375 -2.484375 1.734375 -1.921875 C 1.992188 -1.359375 2.351562 -0.910156 2.8125 -0.578125 C 3.28125 -0.253906 3.804688 -0.09375 4.390625 -0.09375 C 4.878906 -0.09375 5.320312 -0.210938 5.71875 -0.453125 C 6.125 -0.691406 6.441406 -1.046875 6.671875 -1.515625 C 6.898438 -1.984375 7.015625 -2.539062 7.015625 -3.1875 C 7.015625 -3.863281 6.882812 -4.46875 6.625 -5 C 6.375 -5.539062 6.015625 -5.957031 5.546875 -6.25 C 5.085938 -6.550781 4.546875 -6.703125 3.921875 -6.703125 C 3.117188 -6.703125 2.488281 -6.441406 2.03125 -5.921875 C 1.582031 -5.410156 1.359375 -4.703125 1.359375 -3.796875 Z M 1.359375 -3.796875 "/></g></g></g><g fill="#272727" fill-opacity="1"><g transform="translate(144.460652, 321.999708)"><g><path d="M 6.25 -5.625 C 6.25 -6.34375 5.929688 -6.703125 5.296875 -6.703125 C 5.273438 -6.703125 5.265625 -6.722656 5.265625 -6.765625 C 5.265625 -6.804688 5.273438 -6.828125 5.296875 -6.828125 L 5.78125 -6.828125 C 6.039062 -6.804688 6.242188 -6.796875 6.390625 -6.796875 C 6.515625 -6.796875 6.695312 -6.804688 6.9375 -6.828125 L 7.390625 -6.828125 C 7.410156 -6.828125 7.421875 -6.804688 7.421875 -6.765625 C 7.421875 -6.722656 7.410156 -6.703125 7.390625 -6.703125 C 6.804688 -6.703125 6.515625 -6.34375 6.515625 -5.625 L 6.515625 -2.53125 C 6.515625 -1.6875 6.28125 -1.03125 5.8125 -0.5625 C 5.351562 -0.09375 4.726562 0.140625 3.9375 0.140625 C 3.394531 0.140625 2.921875 0.0351562 2.515625 -0.171875 C 2.109375 -0.378906 1.796875 -0.675781 1.578125 -1.0625 C 1.359375 -1.457031 1.25 -1.921875 1.25 -2.453125 L 1.25 -5.953125 C 1.25 -6.171875 1.222656 -6.328125 1.171875 -6.421875 C 1.128906 -6.523438 1.046875 -6.597656 0.921875 -6.640625 C 0.796875 -6.679688 0.59375 -6.703125 0.3125 -6.703125 C 0.300781 -6.703125 0.296875 -6.722656 0.296875 -6.765625 C 0.296875 -6.804688 0.300781 -6.828125 0.3125 -6.828125 L 0.859375 -6.828125 C 1.160156 -6.804688 1.40625 -6.796875 1.59375 -6.796875 C 1.800781 -6.796875 2.054688 -6.804688 2.359375 -6.828125 L 2.890625 -6.828125 C 2.910156 -6.828125 2.921875 -6.804688 2.921875 -6.765625 C 2.921875 -6.722656 2.910156 -6.703125 2.890625 -6.703125 C 2.617188 -6.703125 2.414062 -6.679688 2.28125 -6.640625 C 2.15625 -6.597656 2.066406 -6.519531 2.015625 -6.40625 C 1.972656 -6.300781 1.953125 -6.140625 1.953125 -5.921875 L 1.953125 -2.828125 C 1.953125 -1.972656 2.144531 -1.316406 2.53125 -0.859375 C 2.925781 -0.410156 3.472656 -0.1875 4.171875 -0.1875 C 4.828125 -0.1875 5.335938 -0.390625 5.703125 -0.796875 C 6.066406 -1.210938 6.25 -1.785156 6.25 -2.515625 Z M 6.25 -5.625 "/></g></g></g><g fill="#272727" fill-opacity="1"><g transform="translate(152.72965, 321.999708)"><g><path d="M 5.1875 -1.625 C 5.1875 -1.644531 5.203125 -1.65625 5.234375 -1.65625 C 5.253906 -1.65625 5.273438 -1.648438 5.296875 -1.640625 C 5.316406 -1.628906 5.328125 -1.617188 5.328125 -1.609375 C 5.265625 -1.148438 5.234375 -0.664062 5.234375 -0.15625 C 5.234375 -0.101562 5.21875 -0.0625 5.1875 -0.03125 C 5.164062 -0.0078125 5.117188 0 5.046875 0 L 0.46875 0 C 0.457031 0 0.453125 -0.0195312 0.453125 -0.0625 C 0.453125 -0.101562 0.457031 -0.125 0.46875 -0.125 C 0.75 -0.125 0.953125 -0.140625 1.078125 -0.171875 C 1.203125 -0.210938 1.285156 -0.285156 1.328125 -0.390625 C 1.378906 -0.503906 1.40625 -0.671875 1.40625 -0.890625 L 1.40625 -5.953125 C 1.40625 -6.171875 1.378906 -6.328125 1.328125 -6.421875 C 1.285156 -6.523438 1.203125 -6.597656 1.078125 -6.640625 C 0.953125 -6.679688 0.75 -6.703125 0.46875 -6.703125 C 0.457031 -6.703125 0.453125 -6.722656 0.453125 -6.765625 C 0.453125 -6.804688 0.457031 -6.828125 0.46875 -6.828125 L 4.859375 -6.828125 C 4.929688 -6.828125 4.96875 -6.796875 4.96875 -6.734375 L 4.984375 -5.390625 C 4.984375 -5.367188 4.960938 -5.351562 4.921875 -5.34375 C 4.890625 -5.34375 4.867188 -5.351562 4.859375 -5.375 C 4.835938 -5.757812 4.722656 -6.0625 4.515625 -6.28125 C 4.304688 -6.5 4.023438 -6.609375 3.671875 -6.609375 L 3 -6.609375 C 2.75 -6.609375 2.5625 -6.585938 2.4375 -6.546875 C 2.320312 -6.503906 2.238281 -6.429688 2.1875 -6.328125 C 2.144531 -6.234375 2.125 -6.085938 2.125 -5.890625 L 2.125 -3.671875 L 3.453125 -3.671875 C 3.804688 -3.671875 4.054688 -3.726562 4.203125 -3.84375 C 4.347656 -3.96875 4.421875 -4.164062 4.421875 -4.4375 C 4.421875 -4.457031 4.441406 -4.46875 4.484375 -4.46875 C 4.535156 -4.46875 4.5625 -4.457031 4.5625 -4.4375 L 4.546875 -3.546875 C 4.546875 -3.335938 4.550781 -3.179688 4.5625 -3.078125 L 4.578125 -2.546875 C 4.578125 -2.535156 4.550781 -2.53125 4.5 -2.53125 C 4.457031 -2.53125 4.4375 -2.535156 4.4375 -2.546875 C 4.4375 -2.867188 4.359375 -3.097656 4.203125 -3.234375 C 4.046875 -3.367188 3.785156 -3.4375 3.421875 -3.4375 L 2.125 -3.4375 L 2.125 -0.921875 C 2.125 -0.722656 2.144531 -0.578125 2.1875 -0.484375 C 2.226562 -0.390625 2.304688 -0.320312 2.421875 -0.28125 C 2.546875 -0.25 2.726562 -0.234375 2.96875 -0.234375 L 3.84375 -0.234375 C 4.195312 -0.234375 4.488281 -0.351562 4.71875 -0.59375 C 4.957031 -0.84375 5.113281 -1.1875 5.1875 -1.625 Z M 5.1875 -1.625 "/></g></g></g><g fill="#272727" fill-opacity="1"><g transform="translate(159.237726, 321.999708)"><g><path d="M 2.0625 -6.640625 C 1.601562 -6.640625 1.257812 -6.519531 1.03125 -6.28125 C 0.800781 -6.050781 0.632812 -5.65625 0.53125 -5.09375 C 0.53125 -5.082031 0.507812 -5.078125 0.46875 -5.078125 C 0.4375 -5.078125 0.421875 -5.082031 0.421875 -5.09375 C 0.441406 -5.351562 0.46875 -5.695312 0.5 -6.125 C 0.539062 -6.550781 0.5625 -6.867188 0.5625 -7.078125 C 0.5625 -7.109375 0.582031 -7.125 0.625 -7.125 C 0.664062 -7.125 0.6875 -7.109375 0.6875 -7.078125 C 0.6875 -6.910156 0.882812 -6.828125 1.28125 -6.828125 C 1.894531 -6.804688 2.628906 -6.796875 3.484375 -6.796875 C 3.910156 -6.796875 4.363281 -6.804688 4.84375 -6.828125 L 5.59375 -6.828125 C 5.851562 -6.828125 6.046875 -6.84375 6.171875 -6.875 C 6.296875 -6.914062 6.378906 -6.992188 6.421875 -7.109375 C 6.429688 -7.140625 6.453125 -7.15625 6.484375 -7.15625 C 6.523438 -7.15625 6.546875 -7.140625 6.546875 -7.109375 C 6.515625 -6.898438 6.488281 -6.578125 6.46875 -6.140625 C 6.445312 -5.710938 6.4375 -5.363281 6.4375 -5.09375 C 6.4375 -5.082031 6.414062 -5.078125 6.375 -5.078125 C 6.332031 -5.078125 6.3125 -5.082031 6.3125 -5.09375 C 6.289062 -5.664062 6.171875 -6.066406 5.953125 -6.296875 C 5.742188 -6.523438 5.394531 -6.640625 4.90625 -6.640625 C 4.582031 -6.640625 4.347656 -6.625 4.203125 -6.59375 C 4.066406 -6.5625 3.972656 -6.5 3.921875 -6.40625 C 3.867188 -6.3125 3.84375 -6.148438 3.84375 -5.921875 L 3.84375 -0.890625 C 3.84375 -0.660156 3.867188 -0.492188 3.921875 -0.390625 C 3.972656 -0.285156 4.070312 -0.210938 4.21875 -0.171875 C 4.363281 -0.140625 4.59375 -0.125 4.90625 -0.125 C 4.925781 -0.125 4.9375 -0.101562 4.9375 -0.0625 C 4.9375 -0.0195312 4.925781 0 4.90625 0 C 4.664062 0 4.472656 -0.00390625 4.328125 -0.015625 L 2.65625 -0.015625 C 2.507812 -0.00390625 2.3125 0 2.0625 0 C 2.039062 0 2.03125 -0.0195312 2.03125 -0.0625 C 2.03125 -0.101562 2.039062 -0.125 2.0625 -0.125 C 2.375 -0.125 2.601562 -0.140625 2.75 -0.171875 C 2.894531 -0.210938 2.992188 -0.285156 3.046875 -0.390625 C 3.097656 -0.503906 3.125 -0.671875 3.125 -0.890625 L 3.125 -5.953125 C 3.125 -6.171875 3.097656 -6.328125 3.046875 -6.421875 C 2.992188 -6.515625 2.898438 -6.570312 2.765625 -6.59375 C 2.628906 -6.625 2.394531 -6.640625 2.0625 -6.640625 Z M 2.0625 -6.640625 "/></g></g></g><g fill="#272727" fill-opacity="1"><g transform="translate(166.806729, 321.999708)"><g><path d="M 5.1875 -1.625 C 5.1875 -1.644531 5.203125 -1.65625 5.234375 -1.65625 C 5.253906 -1.65625 5.273438 -1.648438 5.296875 -1.640625 C 5.316406 -1.628906 5.328125 -1.617188 5.328125 -1.609375 C 5.265625 -1.148438 5.234375 -0.664062 5.234375 -0.15625 C 5.234375 -0.101562 5.21875 -0.0625 5.1875 -0.03125 C 5.164062 -0.0078125 5.117188 0 5.046875 0 L 0.46875 0 C 0.457031 0 0.453125 -0.0195312 0.453125 -0.0625 C 0.453125 -0.101562 0.457031 -0.125 0.46875 -0.125 C 0.75 -0.125 0.953125 -0.140625 1.078125 -0.171875 C 1.203125 -0.210938 1.285156 -0.285156 1.328125 -0.390625 C 1.378906 -0.503906 1.40625 -0.671875 1.40625 -0.890625 L 1.40625 -5.953125 C 1.40625 -6.171875 1.378906 -6.328125 1.328125 -6.421875 C 1.285156 -6.523438 1.203125 -6.597656 1.078125 -6.640625 C 0.953125 -6.679688 0.75 -6.703125 0.46875 -6.703125 C 0.457031 -6.703125 0.453125 -6.722656 0.453125 -6.765625 C 0.453125 -6.804688 0.457031 -6.828125 0.46875 -6.828125 L 4.859375 -6.828125 C 4.929688 -6.828125 4.96875 -6.796875 4.96875 -6.734375 L 4.984375 -5.390625 C 4.984375 -5.367188 4.960938 -5.351562 4.921875 -5.34375 C 4.890625 -5.34375 4.867188 -5.351562 4.859375 -5.375 C 4.835938 -5.757812 4.722656 -6.0625 4.515625 -6.28125 C 4.304688 -6.5 4.023438 -6.609375 3.671875 -6.609375 L 3 -6.609375 C 2.75 -6.609375 2.5625 -6.585938 2.4375 -6.546875 C 2.320312 -6.503906 2.238281 -6.429688 2.1875 -6.328125 C 2.144531 -6.234375 2.125 -6.085938 2.125 -5.890625 L 2.125 -3.671875 L 3.453125 -3.671875 C 3.804688 -3.671875 4.054688 -3.726562 4.203125 -3.84375 C 4.347656 -3.96875 4.421875 -4.164062 4.421875 -4.4375 C 4.421875 -4.457031 4.441406 -4.46875 4.484375 -4.46875 C 4.535156 -4.46875 4.5625 -4.457031 4.5625 -4.4375 L 4.546875 -3.546875 C 4.546875 -3.335938 4.550781 -3.179688 4.5625 -3.078125 L 4.578125 -2.546875 C 4.578125 -2.535156 4.550781 -2.53125 4.5 -2.53125 C 4.457031 -2.53125 4.4375 -2.535156 4.4375 -2.546875 C 4.4375 -2.867188 4.359375 -3.097656 4.203125 -3.234375 C 4.046875 -3.367188 3.785156 -3.4375 3.421875 -3.4375 L 2.125 -3.4375 L 2.125 -0.921875 C 2.125 -0.722656 2.144531 -0.578125 2.1875 -0.484375 C 2.226562 -0.390625 2.304688 -0.320312 2.421875 -0.28125 C 2.546875 -0.25 2.726562 -0.234375 2.96875 -0.234375 L 3.84375 -0.234375 C 4.195312 -0.234375 4.488281 -0.351562 4.71875 -0.59375 C 4.957031 -0.84375 5.113281 -1.1875 5.1875 -1.625 Z M 5.1875 -1.625 "/></g></g></g></svg>