<svg xmlns="http://www.w3.org/2000/svg" xmlns:xlink="http://www.w3.org/1999/xlink" width="396" zoomAndPan="magnify" viewBox="0 0 297.12 419.249996" height="559" preserveAspectRatio="xMidYMid meet" version="1.0"><defs><g/></defs><g fill="#272727" fill-opacity="1"><g transform="translate(128.233043, 255.391874)"><g><path d="M 4.703125 -1.5 C 4.703125 -1.519531 4.710938 -1.53125 4.734375 -1.53125 C 4.753906 -1.53125 4.769531 -1.523438 4.78125 -1.515625 C 4.800781 -1.503906 4.8125 -1.492188 4.8125 -1.484375 C 4.75 -0.992188 4.71875 -0.546875 4.71875 -0.140625 C 4.71875 -0.0859375 4.707031 -0.0507812 4.6875 -0.03125 C 4.664062 -0.0078125 4.628906 0 4.578125 0 L 0.390625 0 C 0.367188 0 0.359375 -0.015625 0.359375 -0.046875 C 0.359375 -0.0859375 0.367188 -0.109375 0.390625 -0.109375 C 0.585938 -0.109375 0.734375 -0.125 0.828125 -0.15625 C 0.921875 -0.1875 0.984375 -0.25 1.015625 -0.34375 C 1.046875 -0.4375 1.0625 -0.578125 1.0625 -0.765625 L 1.0625 -5.15625 C 1.0625 -5.34375 1.046875 -5.476562 1.015625 -5.5625 C 0.984375 -5.65625 0.921875 -5.71875 0.828125 -5.75 C 0.734375 -5.78125 0.585938 -5.796875 0.390625 -5.796875 C 0.367188 -5.796875 0.359375 -5.816406 0.359375 -5.859375 C 0.359375 -5.898438 0.367188 -5.921875 0.390625 -5.921875 L 4.40625 -5.921875 C 4.46875 -5.921875 4.5 -5.890625 4.5 -5.828125 L 4.515625 -4.578125 C 4.515625 -4.554688 4.492188 -4.539062 4.453125 -4.53125 C 4.421875 -4.53125 4.40625 -4.539062 4.40625 -4.5625 C 4.300781 -4.925781 4.128906 -5.195312 3.890625 -5.375 C 3.648438 -5.550781 3.332031 -5.640625 2.9375 -5.640625 L 2.65625 -5.640625 C 2.46875 -5.640625 2.328125 -5.597656 2.234375 -5.515625 C 2.148438 -5.429688 2.109375 -5.304688 2.109375 -5.140625 L 2.109375 -3.203125 L 2.890625 -3.203125 C 3.265625 -3.203125 3.546875 -3.265625 3.734375 -3.390625 C 3.929688 -3.523438 4.03125 -3.703125 4.03125 -3.921875 C 4.03125 -3.941406 4.046875 -3.953125 4.078125 -3.953125 C 4.117188 -3.953125 4.140625 -3.941406 4.140625 -3.921875 L 4.125 -3.078125 L 4.140625 -2.625 C 4.148438 -2.40625 4.15625 -2.234375 4.15625 -2.109375 C 4.15625 -2.097656 4.132812 -2.09375 4.09375 -2.09375 C 4.0625 -2.09375 4.046875 -2.097656 4.046875 -2.109375 C 4.046875 -2.367188 3.945312 -2.570312 3.75 -2.71875 C 3.550781 -2.863281 3.265625 -2.9375 2.890625 -2.9375 L 2.109375 -2.9375 L 2.109375 -0.8125 C 2.109375 -0.625 2.140625 -0.484375 2.203125 -0.390625 C 2.273438 -0.304688 2.390625 -0.265625 2.546875 -0.265625 L 2.859375 -0.265625 C 3.347656 -0.265625 3.738281 -0.363281 4.03125 -0.5625 C 4.332031 -0.769531 4.554688 -1.082031 4.703125 -1.5 Z M 4.703125 -1.5 "/></g></g></g><g fill="#272727" fill-opacity="1"><g transform="translate(134.881631, 255.391874)"><g><path d="M 6.84375 -5.921875 C 6.851562 -5.921875 6.859375 -5.898438 6.859375 -5.859375 C 6.859375 -5.816406 6.851562 -5.796875 6.84375 -5.796875 C 6.59375 -5.796875 6.394531 -5.695312 6.25 -5.5 C 6.101562 -5.300781 6.03125 -5.035156 6.03125 -4.703125 L 6.03125 0.140625 C 6.03125 0.160156 6.015625 0.171875 5.984375 0.171875 C 5.960938 0.179688 5.941406 0.179688 5.921875 0.171875 L 1.484375 -4.890625 L 1.484375 -1.203125 C 1.484375 -0.867188 1.550781 -0.601562 1.6875 -0.40625 C 1.832031 -0.207031 2.023438 -0.109375 2.265625 -0.109375 C 2.285156 -0.109375 2.296875 -0.0859375 2.296875 -0.046875 C 2.296875 -0.015625 2.285156 0 2.265625 0 C 2.085938 0 1.953125 -0.00390625 1.859375 -0.015625 L 0.765625 -0.015625 C 0.660156 -0.00390625 0.503906 0 0.296875 0 C 0.285156 0 0.28125 -0.015625 0.28125 -0.046875 C 0.28125 -0.0859375 0.285156 -0.109375 0.296875 -0.109375 C 0.578125 -0.109375 0.796875 -0.207031 0.953125 -0.40625 C 1.117188 -0.601562 1.203125 -0.867188 1.203125 -1.203125 L 1.203125 -5.203125 C 0.992188 -5.429688 0.8125 -5.585938 0.65625 -5.671875 C 0.507812 -5.753906 0.359375 -5.796875 0.203125 -5.796875 C 0.191406 -5.796875 0.1875 -5.816406 0.1875 -5.859375 C 0.1875 -5.898438 0.191406 -5.921875 0.203125 -5.921875 L 0.609375 -5.90625 C 0.691406 -5.90625 0.8125 -5.90625 0.96875 -5.90625 L 1.6875 -5.90625 C 1.769531 -5.914062 1.875 -5.921875 2 -5.921875 C 2.050781 -5.921875 2.085938 -5.90625 2.109375 -5.875 C 2.140625 -5.851562 2.1875 -5.800781 2.25 -5.71875 C 2.363281 -5.570312 2.441406 -5.472656 2.484375 -5.421875 L 5.75 -1.640625 L 5.75 -4.703125 C 5.75 -5.046875 5.679688 -5.3125 5.546875 -5.5 C 5.410156 -5.695312 5.21875 -5.796875 4.96875 -5.796875 C 4.957031 -5.796875 4.953125 -5.816406 4.953125 -5.859375 C 4.953125 -5.898438 4.957031 -5.921875 4.96875 -5.921875 L 5.375 -5.90625 C 5.582031 -5.894531 5.753906 -5.890625 5.890625 -5.890625 C 6.015625 -5.890625 6.191406 -5.894531 6.421875 -5.90625 Z M 6.84375 -5.921875 "/></g></g></g><g fill="#272727" fill-opacity="1"><g transform="translate(143.262957, 255.391874)"><g><path d="M 4.703125 -1.5 C 4.703125 -1.519531 4.710938 -1.53125 4.734375 -1.53125 C 4.753906 -1.53125 4.769531 -1.523438 4.78125 -1.515625 C 4.800781 -1.503906 4.8125 -1.492188 4.8125 -1.484375 C 4.75 -0.992188 4.71875 -0.546875 4.71875 -0.140625 C 4.71875 -0.0859375 4.707031 -0.0507812 4.6875 -0.03125 C 4.664062 -0.0078125 4.628906 0 4.578125 0 L 0.390625 0 C 0.367188 0 0.359375 -0.015625 0.359375 -0.046875 C 0.359375 -0.0859375 0.367188 -0.109375 0.390625 -0.109375 C 0.585938 -0.109375 0.734375 -0.125 0.828125 -0.15625 C 0.921875 -0.1875 0.984375 -0.25 1.015625 -0.34375 C 1.046875 -0.4375 1.0625 -0.578125 1.0625 -0.765625 L 1.0625 -5.15625 C 1.0625 -5.34375 1.046875 -5.476562 1.015625 -5.5625 C 0.984375 -5.65625 0.921875 -5.71875 0.828125 -5.75 C 0.734375 -5.78125 0.585938 -5.796875 0.390625 -5.796875 C 0.367188 -5.796875 0.359375 -5.816406 0.359375 -5.859375 C 0.359375 -5.898438 0.367188 -5.921875 0.390625 -5.921875 L 4.40625 -5.921875 C 4.46875 -5.921875 4.5 -5.890625 4.5 -5.828125 L 4.515625 -4.578125 C 4.515625 -4.554688 4.492188 -4.539062 4.453125 -4.53125 C 4.421875 -4.53125 4.40625 -4.539062 4.40625 -4.5625 C 4.300781 -4.925781 4.128906 -5.195312 3.890625 -5.375 C 3.648438 -5.550781 3.332031 -5.640625 2.9375 -5.640625 L 2.65625 -5.640625 C 2.46875 -5.640625 2.328125 -5.597656 2.234375 -5.515625 C 2.148438 -5.429688 2.109375 -5.304688 2.109375 -5.140625 L 2.109375 -3.203125 L 2.890625 -3.203125 C 3.265625 -3.203125 3.546875 -3.265625 3.734375 -3.390625 C 3.929688 -3.523438 4.03125 -3.703125 4.03125 -3.921875 C 4.03125 -3.941406 4.046875 -3.953125 4.078125 -3.953125 C 4.117188 -3.953125 4.140625 -3.941406 4.140625 -3.921875 L 4.125 -3.078125 L 4.140625 -2.625 C 4.148438 -2.40625 4.15625 -2.234375 4.15625 -2.109375 C 4.15625 -2.097656 4.132812 -2.09375 4.09375 -2.09375 C 4.0625 -2.09375 4.046875 -2.097656 4.046875 -2.109375 C 4.046875 -2.367188 3.945312 -2.570312 3.75 -2.71875 C 3.550781 -2.863281 3.265625 -2.9375 2.890625 -2.9375 L 2.109375 -2.9375 L 2.109375 -0.8125 C 2.109375 -0.625 2.140625 -0.484375 2.203125 -0.390625 C 2.273438 -0.304688 2.390625 -0.265625 2.546875 -0.265625 L 2.859375 -0.265625 C 3.347656 -0.265625 3.738281 -0.363281 4.03125 -0.5625 C 4.332031 -0.769531 4.554688 -1.082031 4.703125 -1.5 Z M 4.703125 -1.5 "/></g></g></g><g fill="#272727" fill-opacity="1"><g transform="translate(149.911545, 255.391874)"><g><path d="M 6.703125 -0.109375 C 6.710938 -0.109375 6.71875 -0.0859375 6.71875 -0.046875 C 6.71875 -0.015625 6.710938 0 6.703125 0 L 5.015625 0 C 4.878906 0 4.617188 -0.25 4.234375 -0.75 C 3.859375 -1.25 3.40625 -1.953125 2.875 -2.859375 C 2.820312 -2.847656 2.75 -2.84375 2.65625 -2.84375 C 2.40625 -2.84375 2.226562 -2.847656 2.125 -2.859375 L 2.125 -0.765625 C 2.125 -0.566406 2.140625 -0.421875 2.171875 -0.328125 C 2.203125 -0.242188 2.265625 -0.1875 2.359375 -0.15625 C 2.453125 -0.125 2.597656 -0.109375 2.796875 -0.109375 C 2.816406 -0.109375 2.828125 -0.0859375 2.828125 -0.046875 C 2.828125 -0.015625 2.816406 0 2.796875 0 C 2.585938 0 2.425781 -0.00390625 2.3125 -0.015625 L 0.90625 -0.015625 C 0.769531 -0.00390625 0.597656 0 0.390625 0 C 0.367188 0 0.359375 -0.015625 0.359375 -0.046875 C 0.359375 -0.0859375 0.367188 -0.109375 0.390625 -0.109375 C 0.585938 -0.109375 0.734375 -0.125 0.828125 -0.15625 C 0.921875 -0.1875 0.984375 -0.25 1.015625 -0.34375 C 1.046875 -0.4375 1.0625 -0.578125 1.0625 -0.765625 L 1.0625 -5.15625 C 1.0625 -5.34375 1.046875 -5.476562 1.015625 -5.5625 C 0.984375 -5.65625 0.921875 -5.71875 0.828125 -5.75 C 0.734375 -5.78125 0.585938 -5.796875 0.390625 -5.796875 C 0.378906 -5.796875 0.375 -5.816406 0.375 -5.859375 C 0.375 -5.898438 0.378906 -5.921875 0.390625 -5.921875 L 0.90625 -5.90625 C 1.1875 -5.894531 1.414062 -5.890625 1.59375 -5.890625 C 1.800781 -5.890625 2.023438 -5.898438 2.265625 -5.921875 C 2.347656 -5.921875 2.445312 -5.925781 2.5625 -5.9375 C 2.6875 -5.945312 2.828125 -5.953125 2.984375 -5.953125 C 3.554688 -5.953125 4 -5.84375 4.3125 -5.625 C 4.632812 -5.414062 4.796875 -5.125 4.796875 -4.75 C 4.796875 -4.394531 4.695312 -4.078125 4.5 -3.796875 C 4.3125 -3.515625 4.0625 -3.289062 3.75 -3.125 C 4.25 -2.363281 4.671875 -1.769531 5.015625 -1.34375 C 5.359375 -0.914062 5.660156 -0.601562 5.921875 -0.40625 C 6.191406 -0.207031 6.453125 -0.109375 6.703125 -0.109375 Z M 2.125 -3.125 C 2.28125 -3.101562 2.460938 -3.09375 2.671875 -3.09375 C 3.046875 -3.09375 3.3125 -3.191406 3.46875 -3.390625 C 3.632812 -3.597656 3.71875 -3.929688 3.71875 -4.390625 C 3.71875 -4.898438 3.640625 -5.253906 3.484375 -5.453125 C 3.328125 -5.648438 3.109375 -5.75 2.828125 -5.75 C 2.578125 -5.75 2.394531 -5.703125 2.28125 -5.609375 C 2.175781 -5.515625 2.125 -5.351562 2.125 -5.125 Z M 2.125 -3.125 "/></g></g></g><g fill="#272727" fill-opacity="1"><g transform="translate(157.942545, 255.391874)"><g><path d="M 3.46875 0.109375 C 2.875 0.109375 2.347656 -0.0234375 1.890625 -0.296875 C 1.441406 -0.566406 1.09375 -0.9375 0.84375 -1.40625 C 0.59375 -1.882812 0.46875 -2.398438 0.46875 -2.953125 C 0.46875 -3.597656 0.628906 -4.15625 0.953125 -4.625 C 1.285156 -5.09375 1.707031 -5.441406 2.21875 -5.671875 C 2.726562 -5.898438 3.253906 -6.015625 3.796875 -6.015625 C 4.398438 -6.015625 4.925781 -5.875 5.375 -5.59375 C 5.832031 -5.3125 6.179688 -4.941406 6.421875 -4.484375 C 6.671875 -4.023438 6.796875 -3.535156 6.796875 -3.015625 C 6.796875 -2.441406 6.640625 -1.914062 6.328125 -1.4375 C 6.023438 -0.957031 5.617188 -0.578125 5.109375 -0.296875 C 4.609375 -0.0234375 4.0625 0.109375 3.46875 0.109375 Z M 3.78125 -0.125 C 4.132812 -0.125 4.453125 -0.222656 4.734375 -0.421875 C 5.015625 -0.628906 5.234375 -0.929688 5.390625 -1.328125 C 5.546875 -1.722656 5.625 -2.195312 5.625 -2.75 C 5.625 -3.320312 5.535156 -3.835938 5.359375 -4.296875 C 5.179688 -4.753906 4.925781 -5.113281 4.59375 -5.375 C 4.257812 -5.632812 3.867188 -5.765625 3.421875 -5.765625 C 2.847656 -5.765625 2.40625 -5.546875 2.09375 -5.109375 C 1.78125 -4.679688 1.625 -4.078125 1.625 -3.296875 C 1.625 -2.691406 1.71875 -2.144531 1.90625 -1.65625 C 2.09375 -1.175781 2.347656 -0.800781 2.671875 -0.53125 C 2.992188 -0.257812 3.363281 -0.125 3.78125 -0.125 Z M 3.78125 -0.125 "/></g></g></g><g fill="#272727" fill-opacity="1"><g transform="translate(135.493633, 295.931296)"><g><path d="M 0.34375 -0.25 C 0.894531 -0.757812 1.296875 -1.140625 1.546875 -1.390625 C 1.804688 -1.648438 1.988281 -1.867188 2.09375 -2.046875 C 2.195312 -2.234375 2.25 -2.421875 2.25 -2.609375 C 2.25 -2.847656 2.1875 -3.050781 2.0625 -3.21875 C 1.945312 -3.394531 1.773438 -3.484375 1.546875 -3.484375 C 1.316406 -3.484375 1.125 -3.378906 0.96875 -3.171875 C 0.820312 -2.972656 0.675781 -2.65625 0.53125 -2.21875 C 0.53125 -2.21875 0.519531 -2.21875 0.5 -2.21875 C 0.4375 -2.21875 0.410156 -2.226562 0.421875 -2.25 L 0.828125 -3.859375 C 0.828125 -3.867188 0.84375 -3.875 0.875 -3.875 C 0.894531 -3.875 0.910156 -3.867188 0.921875 -3.859375 C 0.941406 -3.859375 0.945312 -3.851562 0.9375 -3.84375 C 0.925781 -3.8125 0.921875 -3.773438 0.921875 -3.734375 C 0.921875 -3.617188 0.96875 -3.5625 1.0625 -3.5625 C 1.125 -3.5625 1.222656 -3.585938 1.359375 -3.640625 C 1.628906 -3.734375 1.878906 -3.78125 2.109375 -3.78125 C 2.453125 -3.78125 2.71875 -3.695312 2.90625 -3.53125 C 3.101562 -3.363281 3.203125 -3.144531 3.203125 -2.875 C 3.203125 -2.550781 3.070312 -2.253906 2.8125 -1.984375 C 2.5625 -1.710938 2.210938 -1.421875 1.765625 -1.109375 L 1.390625 -0.828125 C 1.367188 -0.804688 1.363281 -0.785156 1.375 -0.765625 C 1.382812 -0.753906 1.40625 -0.75 1.4375 -0.75 C 1.945312 -0.75 2.328125 -0.757812 2.578125 -0.78125 C 2.835938 -0.800781 3.039062 -0.84375 3.1875 -0.90625 C 3.332031 -0.976562 3.425781 -1.085938 3.46875 -1.234375 C 3.476562 -1.253906 3.5 -1.265625 3.53125 -1.265625 C 3.570312 -1.265625 3.59375 -1.253906 3.59375 -1.234375 L 3.390625 -0.109375 C 3.390625 -0.078125 3.378906 -0.0507812 3.359375 -0.03125 C 3.347656 -0.0078125 3.328125 0 3.296875 0 L 0.40625 0 C 0.382812 0 0.363281 -0.015625 0.34375 -0.046875 C 0.332031 -0.0859375 0.328125 -0.128906 0.328125 -0.171875 C 0.328125 -0.210938 0.332031 -0.238281 0.34375 -0.25 Z M 0.34375 -0.25 "/></g></g></g><g fill="#272727" fill-opacity="1"><g transform="translate(140.721949, 295.931296)"><g><path d="M 2.265625 0.125 C 1.878906 0.125 1.53125 0.0390625 1.21875 -0.125 C 0.914062 -0.300781 0.675781 -0.535156 0.5 -0.828125 C 0.332031 -1.128906 0.25 -1.46875 0.25 -1.84375 C 0.25 -2.21875 0.332031 -2.550781 0.5 -2.84375 C 0.675781 -3.132812 0.914062 -3.363281 1.21875 -3.53125 C 1.53125 -3.695312 1.878906 -3.78125 2.265625 -3.78125 C 2.660156 -3.78125 3.007812 -3.695312 3.3125 -3.53125 C 3.613281 -3.363281 3.847656 -3.128906 4.015625 -2.828125 C 4.179688 -2.535156 4.265625 -2.203125 4.265625 -1.828125 C 4.265625 -1.453125 4.179688 -1.113281 4.015625 -0.8125 C 3.847656 -0.519531 3.609375 -0.289062 3.296875 -0.125 C 2.992188 0.0390625 2.648438 0.125 2.265625 0.125 Z M 2.375 -0.078125 C 2.65625 -0.078125 2.867188 -0.21875 3.015625 -0.5 C 3.171875 -0.78125 3.25 -1.175781 3.25 -1.6875 C 3.25 -2.332031 3.148438 -2.804688 2.953125 -3.109375 C 2.753906 -3.421875 2.503906 -3.578125 2.203125 -3.578125 C 1.898438 -3.578125 1.664062 -3.429688 1.5 -3.140625 C 1.34375 -2.847656 1.265625 -2.453125 1.265625 -1.953125 C 1.265625 -1.390625 1.363281 -0.9375 1.5625 -0.59375 C 1.757812 -0.25 2.03125 -0.078125 2.375 -0.078125 Z M 2.375 -0.078125 "/></g></g></g><g fill="#272727" fill-opacity="1"><g transform="translate(146.660407, 295.931296)"><g><path d="M 0.34375 -0.25 C 0.894531 -0.757812 1.296875 -1.140625 1.546875 -1.390625 C 1.804688 -1.648438 1.988281 -1.867188 2.09375 -2.046875 C 2.195312 -2.234375 2.25 -2.421875 2.25 -2.609375 C 2.25 -2.847656 2.1875 -3.050781 2.0625 -3.21875 C 1.945312 -3.394531 1.773438 -3.484375 1.546875 -3.484375 C 1.316406 -3.484375 1.125 -3.378906 0.96875 -3.171875 C 0.820312 -2.972656 0.675781 -2.65625 0.53125 -2.21875 C 0.53125 -2.21875 0.519531 -2.21875 0.5 -2.21875 C 0.4375 -2.21875 0.410156 -2.226562 0.421875 -2.25 L 0.828125 -3.859375 C 0.828125 -3.867188 0.84375 -3.875 0.875 -3.875 C 0.894531 -3.875 0.910156 -3.867188 0.921875 -3.859375 C 0.941406 -3.859375 0.945312 -3.851562 0.9375 -3.84375 C 0.925781 -3.8125 0.921875 -3.773438 0.921875 -3.734375 C 0.921875 -3.617188 0.96875 -3.5625 1.0625 -3.5625 C 1.125 -3.5625 1.222656 -3.585938 1.359375 -3.640625 C 1.628906 -3.734375 1.878906 -3.78125 2.109375 -3.78125 C 2.453125 -3.78125 2.71875 -3.695312 2.90625 -3.53125 C 3.101562 -3.363281 3.203125 -3.144531 3.203125 -2.875 C 3.203125 -2.550781 3.070312 -2.253906 2.8125 -1.984375 C 2.5625 -1.710938 2.210938 -1.421875 1.765625 -1.109375 L 1.390625 -0.828125 C 1.367188 -0.804688 1.363281 -0.785156 1.375 -0.765625 C 1.382812 -0.753906 1.40625 -0.75 1.4375 -0.75 C 1.945312 -0.75 2.328125 -0.757812 2.578125 -0.78125 C 2.835938 -0.800781 3.039062 -0.84375 3.1875 -0.90625 C 3.332031 -0.976562 3.425781 -1.085938 3.46875 -1.234375 C 3.476562 -1.253906 3.5 -1.265625 3.53125 -1.265625 C 3.570312 -1.265625 3.59375 -1.253906 3.59375 -1.234375 L 3.390625 -0.109375 C 3.390625 -0.078125 3.378906 -0.0507812 3.359375 -0.03125 C 3.347656 -0.0078125 3.328125 0 3.296875 0 L 0.40625 0 C 0.382812 0 0.363281 -0.015625 0.34375 -0.046875 C 0.332031 -0.0859375 0.328125 -0.128906 0.328125 -0.171875 C 0.328125 -0.210938 0.332031 -0.238281 0.34375 -0.25 Z M 0.34375 -0.25 "/></g></g></g><g fill="#272727" fill-opacity="1"><g transform="translate(151.888723, 295.931296)"><g><path d="M 0.84375 -1.859375 C 1.726562 -1.847656 2.375 -1.6875 2.78125 -1.375 C 3.195312 -1.0625 3.40625 -0.628906 3.40625 -0.078125 C 3.40625 0.273438 3.3125 0.597656 3.125 0.890625 C 2.9375 1.179688 2.640625 1.460938 2.234375 1.734375 C 1.835938 2.015625 1.304688 2.304688 0.640625 2.609375 C 0.609375 2.609375 0.582031 2.59375 0.5625 2.5625 C 0.550781 2.53125 0.5625 2.507812 0.59375 2.5 C 1.269531 2.113281 1.742188 1.722656 2.015625 1.328125 C 2.296875 0.941406 2.4375 0.523438 2.4375 0.078125 C 2.4375 -0.441406 2.28125 -0.847656 1.96875 -1.140625 C 1.65625 -1.429688 1.210938 -1.578125 0.640625 -1.578125 C 0.609375 -1.578125 0.582031 -1.585938 0.5625 -1.609375 C 0.550781 -1.628906 0.546875 -1.65625 0.546875 -1.6875 L 0.859375 -3.375 C 0.859375 -3.425781 0.863281 -3.453125 0.875 -3.453125 C 0.894531 -3.460938 0.925781 -3.472656 0.96875 -3.484375 C 1.769531 -3.578125 2.304688 -3.640625 2.578125 -3.671875 C 2.847656 -3.710938 3.019531 -3.753906 3.09375 -3.796875 C 3.175781 -3.835938 3.234375 -3.90625 3.265625 -4 C 3.273438 -4.019531 3.296875 -4.03125 3.328125 -4.03125 C 3.359375 -4.03125 3.375 -4.015625 3.375 -3.984375 L 3.1875 -2.9375 C 3.164062 -2.863281 3.132812 -2.816406 3.09375 -2.796875 C 3.0625 -2.773438 3.003906 -2.765625 2.921875 -2.765625 L 1.125 -2.734375 C 1.039062 -2.734375 0.988281 -2.6875 0.96875 -2.59375 Z M 0.84375 -1.859375 "/></g></g></g><g fill="#a586a6" fill-opacity="1"><g transform="translate(136.49363, 276.810622)"><g><path d="M 0.75 -0.546875 C 1.925781 -1.628906 2.78125 -2.441406 3.3125 -2.984375 C 3.851562 -3.523438 4.234375 -3.992188 4.453125 -4.390625 C 4.679688 -4.785156 4.796875 -5.179688 4.796875 -5.578125 C 4.796875 -6.078125 4.664062 -6.515625 4.40625 -6.890625 C 4.15625 -7.265625 3.789062 -7.453125 3.3125 -7.453125 C 2.8125 -7.453125 2.40625 -7.226562 2.09375 -6.78125 C 1.78125 -6.34375 1.460938 -5.664062 1.140625 -4.75 C 1.140625 -4.738281 1.109375 -4.734375 1.046875 -4.734375 C 0.929688 -4.734375 0.878906 -4.753906 0.890625 -4.796875 L 1.78125 -8.25 C 1.78125 -8.28125 1.804688 -8.296875 1.859375 -8.296875 C 1.898438 -8.296875 1.9375 -8.285156 1.96875 -8.265625 C 2 -8.242188 2.007812 -8.226562 2 -8.21875 C 1.988281 -8.144531 1.984375 -8.0625 1.984375 -7.96875 C 1.984375 -7.738281 2.082031 -7.625 2.28125 -7.625 C 2.40625 -7.625 2.609375 -7.671875 2.890625 -7.765625 C 3.472656 -7.972656 4.003906 -8.078125 4.484375 -8.078125 C 5.234375 -8.078125 5.816406 -7.898438 6.234375 -7.546875 C 6.648438 -7.191406 6.859375 -6.726562 6.859375 -6.15625 C 6.859375 -5.445312 6.582031 -4.804688 6.03125 -4.234375 C 5.488281 -3.660156 4.738281 -3.039062 3.78125 -2.375 L 2.96875 -1.765625 C 2.925781 -1.722656 2.914062 -1.6875 2.9375 -1.65625 C 2.957031 -1.632812 3.003906 -1.625 3.078125 -1.625 C 4.148438 -1.625 4.957031 -1.640625 5.5 -1.671875 C 6.050781 -1.710938 6.484375 -1.804688 6.796875 -1.953125 C 7.117188 -2.097656 7.328125 -2.320312 7.421875 -2.625 C 7.441406 -2.664062 7.488281 -2.6875 7.5625 -2.6875 C 7.632812 -2.6875 7.671875 -2.664062 7.671875 -2.625 L 7.25 -0.21875 C 7.25 -0.164062 7.226562 -0.113281 7.1875 -0.0625 C 7.15625 -0.0195312 7.113281 0 7.0625 0 L 0.875 0 C 0.820312 0 0.773438 -0.0390625 0.734375 -0.125 C 0.703125 -0.207031 0.6875 -0.285156 0.6875 -0.359375 C 0.6875 -0.441406 0.707031 -0.503906 0.75 -0.546875 Z M 0.75 -0.546875 "/></g></g></g><g fill="#a586a6" fill-opacity="1"><g transform="translate(147.661499, 276.810622)"><g><path d="M 1.796875 -3.96875 C 3.691406 -3.9375 5.078125 -3.585938 5.953125 -2.921875 C 6.835938 -2.253906 7.28125 -1.34375 7.28125 -0.1875 C 7.28125 0.582031 7.078125 1.28125 6.671875 1.90625 C 6.265625 2.539062 5.632812 3.148438 4.78125 3.734375 C 3.925781 4.316406 2.789062 4.925781 1.375 5.5625 L 1.359375 5.5625 C 1.304688 5.5625 1.257812 5.53125 1.21875 5.46875 C 1.1875 5.40625 1.195312 5.363281 1.25 5.34375 C 2.707031 4.519531 3.726562 3.6875 4.3125 2.84375 C 4.90625 2.007812 5.203125 1.113281 5.203125 0.15625 C 5.203125 -0.957031 4.867188 -1.820312 4.203125 -2.4375 C 3.546875 -3.0625 2.601562 -3.375 1.375 -3.375 C 1.3125 -3.375 1.257812 -3.394531 1.21875 -3.4375 C 1.175781 -3.488281 1.160156 -3.550781 1.171875 -3.625 L 1.828125 -7.21875 C 1.835938 -7.3125 1.851562 -7.367188 1.875 -7.390625 C 1.90625 -7.410156 1.972656 -7.429688 2.078125 -7.453125 C 3.785156 -7.648438 4.925781 -7.789062 5.5 -7.875 C 6.082031 -7.957031 6.457031 -8.039062 6.625 -8.125 C 6.789062 -8.207031 6.910156 -8.351562 6.984375 -8.5625 C 6.992188 -8.601562 7.035156 -8.617188 7.109375 -8.609375 C 7.179688 -8.597656 7.210938 -8.566406 7.203125 -8.515625 L 6.796875 -6.265625 C 6.753906 -6.117188 6.691406 -6.019531 6.609375 -5.96875 C 6.535156 -5.925781 6.410156 -5.90625 6.234375 -5.90625 L 2.390625 -5.828125 C 2.210938 -5.828125 2.109375 -5.734375 2.078125 -5.546875 Z M 1.796875 -3.96875 "/></g></g></g><g fill="#272727" fill-opacity="1"><g transform="translate(134.35346, 320.891787)"><g><path d="M 2.890625 -3.03125 C 3.347656 -2.988281 3.71875 -2.832031 4 -2.5625 C 4.28125 -2.300781 4.421875 -1.972656 4.421875 -1.578125 C 4.421875 -1.273438 4.34375 -1 4.1875 -0.75 C 4.03125 -0.507812 3.816406 -0.316406 3.546875 -0.171875 C 3.285156 -0.0351562 2.988281 0.03125 2.65625 0.03125 C 2.46875 0.03125 2.265625 0.0234375 2.046875 0.015625 C 1.972656 0.00390625 1.878906 0 1.765625 0 C 1.660156 -0.0078125 1.539062 -0.015625 1.40625 -0.015625 L 0.8125 -0.015625 C 0.695312 -0.00390625 0.550781 0 0.375 0 C 0.363281 0 0.359375 -0.015625 0.359375 -0.046875 C 0.359375 -0.0859375 0.363281 -0.109375 0.375 -0.109375 C 0.570312 -0.109375 0.722656 -0.125 0.828125 -0.15625 C 0.929688 -0.1875 1 -0.238281 1.03125 -0.3125 C 1.070312 -0.394531 1.09375 -0.523438 1.09375 -0.703125 L 1.09375 -4.671875 C 1.09375 -4.847656 1.070312 -4.972656 1.03125 -5.046875 C 1 -5.128906 0.9375 -5.1875 0.84375 -5.21875 C 0.75 -5.25 0.597656 -5.265625 0.390625 -5.265625 C 0.367188 -5.265625 0.359375 -5.28125 0.359375 -5.3125 C 0.359375 -5.351562 0.367188 -5.375 0.390625 -5.375 L 0.8125 -5.359375 C 1.050781 -5.347656 1.25 -5.34375 1.40625 -5.34375 C 1.507812 -5.34375 1.601562 -5.34375 1.6875 -5.34375 C 1.78125 -5.351562 1.859375 -5.363281 1.921875 -5.375 C 2.097656 -5.382812 2.265625 -5.390625 2.421875 -5.390625 C 2.910156 -5.390625 3.28125 -5.285156 3.53125 -5.078125 C 3.78125 -4.878906 3.90625 -4.609375 3.90625 -4.265625 C 3.90625 -3.984375 3.816406 -3.734375 3.640625 -3.515625 C 3.460938 -3.304688 3.210938 -3.144531 2.890625 -3.03125 Z M 2.25 -5.265625 C 2.101562 -5.265625 1.992188 -5.25 1.921875 -5.21875 C 1.859375 -5.195312 1.804688 -5.140625 1.765625 -5.046875 C 1.734375 -4.960938 1.71875 -4.832031 1.71875 -4.65625 L 1.71875 -3.03125 L 2.109375 -3.015625 C 2.503906 -3.015625 2.796875 -3.125 2.984375 -3.34375 C 3.179688 -3.5625 3.28125 -3.847656 3.28125 -4.203125 C 3.28125 -4.523438 3.195312 -4.78125 3.03125 -4.96875 C 2.863281 -5.164062 2.601562 -5.265625 2.25 -5.265625 Z M 2.53125 -0.125 C 2.9375 -0.125 3.238281 -0.234375 3.4375 -0.453125 C 3.644531 -0.671875 3.75 -0.972656 3.75 -1.359375 C 3.75 -1.796875 3.625 -2.144531 3.375 -2.40625 C 3.125 -2.675781 2.78125 -2.816406 2.34375 -2.828125 C 2.175781 -2.835938 1.96875 -2.832031 1.71875 -2.8125 L 1.71875 -0.703125 C 1.71875 -0.554688 1.738281 -0.441406 1.78125 -0.359375 C 1.820312 -0.273438 1.898438 -0.210938 2.015625 -0.171875 C 2.128906 -0.140625 2.300781 -0.125 2.53125 -0.125 Z M 2.53125 -0.125 "/></g></g></g><g fill="#272727" fill-opacity="1"><g transform="translate(139.212953, 320.891787)"><g><path d="M 2 0.109375 C 1.65625 0.109375 1.351562 0.03125 1.09375 -0.125 C 0.84375 -0.289062 0.644531 -0.515625 0.5 -0.796875 C 0.363281 -1.078125 0.296875 -1.378906 0.296875 -1.703125 C 0.296875 -2.078125 0.382812 -2.394531 0.5625 -2.65625 C 0.75 -2.914062 0.984375 -3.109375 1.265625 -3.234375 C 1.554688 -3.359375 1.851562 -3.421875 2.15625 -3.421875 C 2.488281 -3.421875 2.78125 -3.335938 3.03125 -3.171875 C 3.289062 -3.015625 3.488281 -2.796875 3.625 -2.515625 C 3.757812 -2.242188 3.828125 -1.957031 3.828125 -1.65625 C 3.828125 -1.300781 3.742188 -0.988281 3.578125 -0.71875 C 3.410156 -0.457031 3.1875 -0.253906 2.90625 -0.109375 C 2.632812 0.0351562 2.332031 0.109375 2 0.109375 Z M 2.25 -0.046875 C 2.539062 -0.046875 2.769531 -0.15625 2.9375 -0.375 C 3.101562 -0.601562 3.1875 -0.945312 3.1875 -1.40625 C 3.1875 -1.769531 3.128906 -2.09375 3.015625 -2.375 C 2.898438 -2.65625 2.738281 -2.867188 2.53125 -3.015625 C 2.332031 -3.171875 2.109375 -3.25 1.859375 -3.25 C 1.566406 -3.25 1.34375 -3.140625 1.1875 -2.921875 C 1.03125 -2.710938 0.953125 -2.398438 0.953125 -1.984375 C 0.953125 -1.617188 1.003906 -1.289062 1.109375 -1 C 1.222656 -0.707031 1.375 -0.472656 1.5625 -0.296875 C 1.757812 -0.128906 1.988281 -0.046875 2.25 -0.046875 Z M 2.25 -0.046875 "/></g></g></g><g fill="#272727" fill-opacity="1"><g transform="translate(143.34997, 320.891787)"><g><path d="M 4.09375 2.265625 C 4.101562 2.265625 4.109375 2.28125 4.109375 2.3125 C 4.109375 2.34375 4.101562 2.359375 4.09375 2.359375 C 3.957031 2.359375 3.84375 2.359375 3.75 2.359375 L 3.28125 2.34375 L 2.75 2.359375 C 2.65625 2.359375 2.519531 2.359375 2.34375 2.359375 C 2.332031 2.359375 2.328125 2.34375 2.328125 2.3125 C 2.328125 2.28125 2.332031 2.265625 2.34375 2.265625 C 2.539062 2.265625 2.679688 2.25 2.765625 2.21875 C 2.859375 2.1875 2.921875 2.128906 2.953125 2.046875 C 2.992188 1.960938 3.015625 1.835938 3.015625 1.671875 L 3.015625 -0.59375 C 2.804688 -0.382812 2.59375 -0.210938 2.375 -0.078125 C 2.164062 0.046875 1.925781 0.109375 1.65625 0.109375 C 1.414062 0.109375 1.191406 0.046875 0.984375 -0.078125 C 0.773438 -0.203125 0.609375 -0.382812 0.484375 -0.625 C 0.359375 -0.863281 0.296875 -1.148438 0.296875 -1.484375 C 0.296875 -1.921875 0.390625 -2.285156 0.578125 -2.578125 C 0.765625 -2.867188 1 -3.082031 1.28125 -3.21875 C 1.570312 -3.351562 1.875 -3.421875 2.1875 -3.421875 C 2.582031 -3.421875 2.960938 -3.320312 3.328125 -3.125 L 3.9375 -3.328125 L 3.953125 -3.34375 C 3.972656 -3.34375 3.984375 -3.328125 3.984375 -3.296875 C 3.992188 -3.273438 3.988281 -3.257812 3.96875 -3.25 C 3.820312 -3.175781 3.710938 -3.082031 3.640625 -2.96875 C 3.578125 -2.851562 3.546875 -2.707031 3.546875 -2.53125 L 3.546875 1.671875 C 3.546875 1.835938 3.5625 1.960938 3.59375 2.046875 C 3.625 2.128906 3.675781 2.1875 3.75 2.21875 C 3.820312 2.25 3.9375 2.265625 4.09375 2.265625 Z M 1.96875 -0.203125 C 2.300781 -0.203125 2.648438 -0.382812 3.015625 -0.75 L 3.015625 -2.296875 C 3.015625 -2.597656 2.910156 -2.832031 2.703125 -3 C 2.492188 -3.164062 2.238281 -3.25 1.9375 -3.25 C 1.257812 -3.25 0.921875 -2.753906 0.921875 -1.765625 C 0.921875 -1.265625 1.015625 -0.878906 1.203125 -0.609375 C 1.398438 -0.335938 1.65625 -0.203125 1.96875 -0.203125 Z M 1.96875 -0.203125 "/></g></g></g><g fill="#272727" fill-opacity="1"><g transform="translate(147.564395, 320.891787)"><g><path d="M 4.203125 -0.5 C 4.222656 -0.5 4.238281 -0.484375 4.25 -0.453125 C 4.257812 -0.429688 4.253906 -0.414062 4.234375 -0.40625 L 3.203125 0.09375 L 3.15625 0.09375 C 3.101562 0.09375 3.050781 0.0234375 3 -0.109375 C 2.945312 -0.242188 2.921875 -0.421875 2.921875 -0.640625 C 2.492188 -0.160156 2.046875 0.078125 1.578125 0.078125 C 1.285156 0.078125 1.054688 -0.0078125 0.890625 -0.1875 C 0.722656 -0.375 0.640625 -0.640625 0.640625 -0.984375 L 0.640625 -2.296875 C 0.640625 -2.515625 0.617188 -2.671875 0.578125 -2.765625 C 0.546875 -2.859375 0.484375 -2.90625 0.390625 -2.90625 C 0.328125 -2.90625 0.234375 -2.882812 0.109375 -2.84375 L 0.09375 -2.84375 C 0.0703125 -2.84375 0.0546875 -2.851562 0.046875 -2.875 C 0.046875 -2.90625 0.0507812 -2.925781 0.0625 -2.9375 L 1.0625 -3.390625 L 1.09375 -3.390625 C 1.113281 -3.390625 1.132812 -3.378906 1.15625 -3.359375 C 1.175781 -3.347656 1.1875 -3.332031 1.1875 -3.3125 L 1.1875 -1.296875 C 1.1875 -0.640625 1.425781 -0.3125 1.90625 -0.3125 C 2.082031 -0.3125 2.257812 -0.351562 2.4375 -0.4375 C 2.613281 -0.519531 2.773438 -0.640625 2.921875 -0.796875 L 2.921875 -2.296875 C 2.921875 -2.515625 2.898438 -2.671875 2.859375 -2.765625 C 2.816406 -2.859375 2.753906 -2.90625 2.671875 -2.90625 C 2.597656 -2.90625 2.5 -2.882812 2.375 -2.84375 L 2.359375 -2.84375 C 2.347656 -2.84375 2.335938 -2.851562 2.328125 -2.875 C 2.328125 -2.90625 2.332031 -2.925781 2.34375 -2.9375 L 3.328125 -3.390625 L 3.375 -3.390625 C 3.382812 -3.390625 3.398438 -3.378906 3.421875 -3.359375 C 3.441406 -3.347656 3.453125 -3.332031 3.453125 -3.3125 L 3.453125 -0.9375 C 3.453125 -0.738281 3.472656 -0.597656 3.515625 -0.515625 C 3.566406 -0.429688 3.644531 -0.390625 3.75 -0.390625 C 3.832031 -0.390625 3.976562 -0.425781 4.1875 -0.5 Z M 4.203125 -0.5 "/></g></g></g><g fill="#272727" fill-opacity="1"><g transform="translate(151.821833, 320.891787)"><g><path d="M 3.125 -0.5 C 3.144531 -0.5 3.160156 -0.488281 3.171875 -0.46875 C 3.191406 -0.445312 3.195312 -0.425781 3.1875 -0.40625 C 2.800781 -0.0625 2.375 0.109375 1.90625 0.109375 C 1.570312 0.109375 1.28125 0.03125 1.03125 -0.125 C 0.789062 -0.28125 0.609375 -0.484375 0.484375 -0.734375 C 0.359375 -0.992188 0.296875 -1.269531 0.296875 -1.5625 C 0.296875 -1.894531 0.378906 -2.203125 0.546875 -2.484375 C 0.710938 -2.765625 0.9375 -2.984375 1.21875 -3.140625 C 1.5 -3.304688 1.804688 -3.390625 2.140625 -3.390625 C 2.472656 -3.390625 2.722656 -3.304688 2.890625 -3.140625 C 3.066406 -2.972656 3.15625 -2.734375 3.15625 -2.421875 C 3.15625 -2.265625 3.125 -2.1875 3.0625 -2.1875 L 0.9375 -2.171875 C 0.925781 -2.046875 0.921875 -1.945312 0.921875 -1.875 C 0.921875 -1.382812 1.035156 -0.984375 1.265625 -0.671875 C 1.503906 -0.367188 1.835938 -0.21875 2.265625 -0.21875 C 2.441406 -0.21875 2.585938 -0.238281 2.703125 -0.28125 C 2.816406 -0.332031 2.957031 -0.40625 3.125 -0.5 Z M 1.84375 -3.21875 C 1.601562 -3.21875 1.40625 -3.132812 1.25 -2.96875 C 1.09375 -2.8125 0.992188 -2.585938 0.953125 -2.296875 L 2.515625 -2.328125 C 2.515625 -2.617188 2.457031 -2.835938 2.34375 -2.984375 C 2.226562 -3.140625 2.0625 -3.21875 1.84375 -3.21875 Z M 1.84375 -3.21875 "/></g></g></g><g fill="#272727" fill-opacity="1"><g transform="translate(155.339592, 320.891787)"><g><path d="M 2.703125 -0.46875 C 2.710938 -0.46875 2.722656 -0.453125 2.734375 -0.421875 C 2.753906 -0.398438 2.753906 -0.382812 2.734375 -0.375 C 2.523438 -0.207031 2.332031 -0.0820312 2.15625 0 C 1.988281 0.0703125 1.804688 0.109375 1.609375 0.109375 C 1.367188 0.109375 1.171875 0.0507812 1.015625 -0.0625 C 0.859375 -0.175781 0.78125 -0.363281 0.78125 -0.625 L 0.78125 -2.625 C 0.78125 -2.757812 0.765625 -2.859375 0.734375 -2.921875 C 0.710938 -2.992188 0.671875 -3.039062 0.609375 -3.0625 C 0.554688 -3.082031 0.460938 -3.09375 0.328125 -3.09375 C 0.304688 -3.09375 0.296875 -3.113281 0.296875 -3.15625 C 0.296875 -3.195312 0.304688 -3.21875 0.328125 -3.21875 C 0.566406 -3.21875 0.757812 -3.273438 0.90625 -3.390625 C 1.0625 -3.503906 1.15625 -3.664062 1.1875 -3.875 C 1.195312 -3.894531 1.222656 -3.90625 1.265625 -3.90625 C 1.304688 -3.90625 1.328125 -3.894531 1.328125 -3.875 L 1.328125 -3.21875 C 1.597656 -3.226562 1.988281 -3.257812 2.5 -3.3125 C 2.519531 -3.3125 2.535156 -3.289062 2.546875 -3.25 C 2.554688 -3.207031 2.5625 -3.160156 2.5625 -3.109375 C 2.5625 -3.054688 2.550781 -3.003906 2.53125 -2.953125 C 2.519531 -2.910156 2.5 -2.890625 2.46875 -2.890625 C 2.15625 -2.972656 1.773438 -3.019531 1.328125 -3.03125 L 1.328125 -0.90625 C 1.328125 -0.445312 1.550781 -0.21875 2 -0.21875 C 2.238281 -0.21875 2.46875 -0.300781 2.6875 -0.46875 Z M 2.703125 -0.46875 "/></g></g></g><g fill="#272727" fill-opacity="1"><g transform="translate(158.24669, 320.891787)"><g><path d="M 3.125 -0.5 C 3.144531 -0.5 3.160156 -0.488281 3.171875 -0.46875 C 3.191406 -0.445312 3.195312 -0.425781 3.1875 -0.40625 C 2.800781 -0.0625 2.375 0.109375 1.90625 0.109375 C 1.570312 0.109375 1.28125 0.03125 1.03125 -0.125 C 0.789062 -0.28125 0.609375 -0.484375 0.484375 -0.734375 C 0.359375 -0.992188 0.296875 -1.269531 0.296875 -1.5625 C 0.296875 -1.894531 0.378906 -2.203125 0.546875 -2.484375 C 0.710938 -2.765625 0.9375 -2.984375 1.21875 -3.140625 C 1.5 -3.304688 1.804688 -3.390625 2.140625 -3.390625 C 2.472656 -3.390625 2.722656 -3.304688 2.890625 -3.140625 C 3.066406 -2.972656 3.15625 -2.734375 3.15625 -2.421875 C 3.15625 -2.265625 3.125 -2.1875 3.0625 -2.1875 L 0.9375 -2.171875 C 0.925781 -2.046875 0.921875 -1.945312 0.921875 -1.875 C 0.921875 -1.382812 1.035156 -0.984375 1.265625 -0.671875 C 1.503906 -0.367188 1.835938 -0.21875 2.265625 -0.21875 C 2.441406 -0.21875 2.585938 -0.238281 2.703125 -0.28125 C 2.816406 -0.332031 2.957031 -0.40625 3.125 -0.5 Z M 1.84375 -3.21875 C 1.601562 -3.21875 1.40625 -3.132812 1.25 -2.96875 C 1.09375 -2.8125 0.992188 -2.585938 0.953125 -2.296875 L 2.515625 -2.328125 C 2.515625 -2.617188 2.457031 -2.835938 2.34375 -2.984375 C 2.226562 -3.140625 2.0625 -3.21875 1.84375 -3.21875 Z M 1.84375 -3.21875 "/></g></g></g></svg>