<svg xmlns="http://www.w3.org/2000/svg" xmlns:xlink="http://www.w3.org/1999/xlink" width="396" zoomAndPan="magnify" viewBox="0 0 297.12 419.249996" height="559" preserveAspectRatio="xMidYMid meet" version="1.0"><defs><g/></defs><g fill="#a586a6" fill-opacity="1"><g transform="translate(82.59796, 149.528095)"><g><path d="M 7.160156 8.859375 C 7.621094 8.859375 7.765625 8.398438 7.851562 7.9375 C 7.964844 7.277344 8.082031 6.613281 7.792969 5.953125 C 6.929688 3.941406 7.417969 2.386719 8.023438 0.835938 C 8.542969 -0.402344 9.03125 -1.609375 9.546875 -2.847656 L 10.238281 -4.515625 C 10.410156 -4.945312 10.640625 -5.378906 11.246094 -5.378906 C 11.332031 -5.378906 11.445312 -5.347656 11.5625 -5.320312 C 12.539062 -5.148438 13.546875 -5.03125 14.609375 -5.03125 C 16.507812 -5.03125 18.375 -5.378906 20.132812 -5.695312 C 23.640625 -6.382812 25.882812 -7.679688 27.234375 -9.71875 C 28.789062 -12.164062 27.894531 -15.183594 24.960938 -17.457031 C 20.992188 -20.476562 16.792969 -20.992188 13.230469 -21.109375 L 12.222656 -21.136719 C 12.019531 -21.136719 11.820312 -21.136719 11.617188 -21.109375 C 11.128906 -21.078125 10.613281 -20.964844 10.121094 -20.878906 L 9.980469 -20.851562 C 4.371094 -19.726562 1.464844 -16.507812 1.378906 -11.332031 C 1.292969 -7.679688 2.960938 -3.941406 4.601562 -0.777344 C 5.664062 1.292969 6.5 3.191406 5.867188 5.089844 C 5.664062 5.636719 5.75 6.382812 5.839844 7.101562 L 5.867188 7.449219 C 5.894531 7.765625 6.066406 8.542969 6.84375 8.800781 C 6.960938 8.828125 7.074219 8.859375 7.160156 8.859375 Z M 22.058594 -18.664062 C 23.640625 -17.917969 25.824219 -16.652344 26.832031 -14.292969 C 27.925781 -11.734375 26.660156 -10.179688 25.277344 -9.03125 C 23.179688 -7.21875 20.359375 -6.671875 18.117188 -6.382812 C 16.707031 -6.210938 15.328125 -6.039062 13.804688 -6.039062 C 12.96875 -6.039062 12.136719 -6.097656 11.332031 -6.210938 L 11.128906 -6.242188 L 11.1875 -6.382812 C 11.675781 -7.476562 12.195312 -8.597656 12.738281 -9.664062 C 13.085938 -10.382812 13.429688 -11.070312 13.773438 -11.761719 C 14.207031 -12.625 14.636719 -13.488281 15.039062 -14.351562 L 15.300781 -14.867188 C 15.757812 -15.847656 16.21875 -16.824219 16.621094 -17.832031 L 16.679688 -17.917969 C 17.023438 -18.636719 16.96875 -18.835938 16.851562 -18.894531 C 16.449219 -18.867188 16.191406 -18.492188 15.960938 -18.117188 L 15.414062 -17.199219 C 13.515625 -13.976562 11.820312 -10.640625 10.4375 -7.792969 L 10.296875 -7.507812 C 10.152344 -7.160156 8.945312 -4.574219 8.800781 -4.285156 C 8.195312 -3.046875 7.679688 -1.753906 7.132812 -0.375 C 6.902344 0.203125 6.671875 0.777344 6.414062 1.378906 L 6.328125 1.609375 L 5.464844 -0.203125 C 4.917969 -1.265625 4.429688 -2.273438 3.96875 -3.277344 C 1.609375 -8.253906 1.292969 -12.25 2.960938 -15.53125 C 4.226562 -18.089844 6.558594 -19.640625 10.066406 -20.304688 C 11.246094 -20.535156 12.453125 -20.648438 13.632812 -20.648438 C 16.480469 -20.648438 19.296875 -19.988281 22.058594 -18.664062 Z M 22.058594 -18.664062 "/></g></g></g><g fill="#a586a6" fill-opacity="1"><g transform="translate(109.567225, 149.528095)"><g><path d="M 16.191406 -4.515625 C 16.132812 -4.574219 16.074219 -4.601562 16.019531 -4.601562 C 15.960938 -4.601562 15.902344 -4.542969 15.847656 -4.457031 C 15.847656 -4.429688 15.816406 -4.398438 15.789062 -4.371094 C 14.839844 -3.335938 13.632812 -2.386719 11.964844 -1.378906 C 11.070312 -0.863281 10.121094 -0.34375 8.828125 -0.34375 C 8.195312 -0.34375 7.792969 -0.488281 7.535156 -0.746094 C 7.277344 -1.007812 7.160156 -1.410156 7.21875 -1.957031 C 7.304688 -2.703125 7.535156 -3.394531 7.792969 -4.054688 C 7.910156 -4.371094 8.023438 -4.660156 8.109375 -4.976562 C 8.136719 -5.089844 8.226562 -5.234375 8.28125 -5.347656 C 8.398438 -5.636719 8.542969 -5.925781 8.453125 -6.152344 C 8.398438 -6.296875 8.28125 -6.382812 8.109375 -6.5 C 7.964844 -6.585938 7.824219 -6.613281 7.734375 -6.613281 C 7.417969 -6.613281 7.304688 -6.242188 7.191406 -5.925781 C 7.132812 -5.808594 7.101562 -5.695312 7.074219 -5.578125 C 6.125 -3.59375 4.515625 -2.011719 2.097656 -0.746094 C 1.78125 -0.574219 1.351562 -0.375 0.921875 -0.375 C 0.863281 -0.375 0.835938 -0.375 0.777344 -0.375 C 0.632812 -0.375 0.546875 -0.429688 0.460938 -0.519531 C 0.316406 -0.691406 0.289062 -0.890625 0.316406 -1.0625 C 0.460938 -2.875 1.351562 -4.457031 2.214844 -5.953125 C 2.558594 -6.585938 2.875 -7.160156 3.164062 -7.765625 C 3.308594 -8.050781 3.394531 -8.28125 3.132812 -8.484375 C 2.992188 -8.597656 2.875 -8.65625 2.789062 -8.65625 C 2.617188 -8.65625 2.472656 -8.542969 2.328125 -8.367188 C 0.488281 -5.980469 -0.488281 -3.765625 -0.777344 -1.351562 C -0.835938 -0.746094 -0.632812 -0.289062 -0.144531 0.144531 C 0.113281 0.375 0.402344 0.488281 0.746094 0.488281 C 0.949219 0.488281 1.148438 0.429688 1.378906 0.375 C 2.1875 0.113281 2.960938 -0.289062 3.625 -0.835938 C 4.171875 -1.292969 4.714844 -1.726562 5.261719 -2.1875 L 6.066406 -2.90625 L 6.097656 -2.703125 C 6.242188 -1.523438 6.613281 -0.691406 7.160156 -0.203125 C 7.535156 0.113281 8.023438 0.289062 8.570312 0.289062 C 8.859375 0.289062 9.175781 0.230469 9.519531 0.144531 C 12.335938 -0.605469 14.378906 -2.328125 16.164062 -4.082031 C 16.25 -4.171875 16.335938 -4.257812 16.335938 -4.34375 C 16.304688 -4.398438 16.277344 -4.457031 16.191406 -4.515625 Z M 16.191406 -4.515625 "/></g></g></g><g fill="#a586a6" fill-opacity="1"><g transform="translate(125.064487, 149.528095)"><g><path d="M 15.242188 -4.800781 C 15.214844 -4.800781 15.183594 -4.800781 15.125 -4.800781 C 14.753906 -4.714844 14.40625 -4.542969 14.0625 -4.34375 C 13.917969 -4.257812 13.773438 -4.199219 13.632812 -4.140625 C 13.113281 -3.882812 12.625 -3.625 12.105469 -3.363281 C 11.160156 -2.847656 10.152344 -2.300781 9.175781 -1.695312 L 8.226562 -1.09375 C 8.167969 -1.035156 8.050781 -1.007812 7.9375 -0.949219 C 7.707031 -0.835938 7.363281 -0.660156 7.304688 -0.546875 L 7.132812 -0.632812 C 7.363281 -1.410156 7.648438 -2.15625 7.9375 -2.90625 C 8.109375 -3.335938 8.253906 -3.765625 8.425781 -4.199219 C 8.453125 -4.285156 8.484375 -4.371094 8.542969 -4.457031 C 8.714844 -4.890625 8.886719 -5.320312 8.453125 -5.722656 C 8.28125 -5.867188 8.109375 -5.953125 7.9375 -5.953125 C 7.648438 -5.953125 7.390625 -5.722656 7.191406 -5.550781 C 7.101562 -5.464844 7.046875 -5.40625 6.960938 -5.378906 C 6.269531 -4.832031 5.578125 -4.3125 4.890625 -3.765625 C 4.027344 -3.078125 3.164062 -2.414062 2.242188 -1.753906 C 1.871094 -1.496094 1.496094 -1.238281 1.0625 -1.0625 C 0.863281 -0.976562 0.519531 -0.890625 0.230469 -0.890625 C -0.0273438 -0.890625 -0.230469 -0.976562 -0.34375 -1.121094 C -0.460938 -1.238281 -0.519531 -1.4375 -0.460938 -1.667969 C -0.34375 -2.097656 -0.113281 -2.414062 0.144531 -2.730469 C 0.230469 -2.875 0.316406 -2.992188 0.402344 -3.132812 C 0.660156 -3.507812 0.921875 -3.882812 1.179688 -4.226562 C 1.378906 -4.515625 1.554688 -4.773438 1.753906 -5.03125 C 1.925781 -5.320312 1.984375 -5.523438 1.726562 -5.75 C 1.582031 -5.894531 1.4375 -5.953125 1.292969 -5.953125 C 1.179688 -5.953125 1.0625 -5.894531 0.949219 -5.808594 C -0.171875 -4.800781 -1.292969 -3.652344 -1.496094 -1.871094 C -1.582031 -1.292969 -1.410156 -0.863281 -0.949219 -0.519531 C -0.660156 -0.316406 -0.375 -0.203125 -0.0859375 -0.203125 C 0.0859375 -0.203125 0.257812 -0.230469 0.460938 -0.316406 C 1.464844 -0.632812 2.300781 -1.265625 3.078125 -1.839844 L 3.507812 -2.1875 C 3.941406 -2.503906 4.34375 -2.847656 4.714844 -3.164062 C 5.664062 -3.96875 6.613281 -4.773438 7.910156 -5.261719 L 8.136719 -5.378906 L 7.191406 -3.480469 C 6.5 -2.128906 5.808594 -0.804688 5.175781 0.574219 C 4.660156 1.667969 3.96875 2.589844 3.046875 3.449219 C 0.203125 6.097656 -1.898438 8.769531 -3.363281 11.5625 C -3.738281 12.25 -4.082031 13 -4.199219 13.890625 C -4.257812 14.292969 -4.257812 14.609375 -3.910156 14.925781 C -3.710938 15.125 -3.480469 15.214844 -3.191406 15.214844 C -3.046875 15.214844 -2.90625 15.214844 -2.730469 15.15625 C -2.328125 15.039062 -1.984375 14.8125 -1.726562 14.609375 C -0.519531 13.632812 0.316406 12.367188 0.921875 11.386719 C 2.414062 8.972656 3.652344 6.296875 4.859375 3.738281 L 5.550781 2.273438 C 5.78125 1.8125 6.125 1.378906 6.527344 1.035156 C 7.734375 0.0273438 9.085938 -0.921875 10.699219 -1.898438 C 11.445312 -2.359375 12.195312 -2.789062 12.941406 -3.222656 C 13.171875 -3.335938 13.402344 -3.449219 13.632812 -3.566406 C 14.089844 -3.796875 14.609375 -4.054688 15.011719 -4.371094 C 15.125 -4.457031 15.300781 -4.746094 15.242188 -4.800781 Z M -2.414062 14.003906 C -2.472656 14.0625 -2.503906 14.089844 -2.53125 14.148438 C -2.703125 14.351562 -2.875 14.550781 -3.164062 14.550781 C -3.277344 14.550781 -3.394531 14.523438 -3.539062 14.40625 C -3.996094 14.089844 -3.855469 13.660156 -3.738281 13.316406 C -3.710938 13.257812 -3.679688 13.171875 -3.652344 13.113281 C -3.335938 11.761719 -2.617188 10.699219 -1.898438 9.691406 C -0.546875 7.792969 1.0625 6.066406 2.875 4.515625 L 3.019531 4.714844 C 1.582031 7.996094 0.0859375 11.386719 -2.414062 14.003906 Z M -2.414062 14.003906 "/></g></g></g><g fill="#a586a6" fill-opacity="1"><g transform="translate(139.44043, 149.528095)"><g/></g></g><g fill="#a586a6" fill-opacity="1"><g transform="translate(148.065991, 149.528095)"><g><path d="M 9.203125 12.394531 C 9.402344 12.394531 9.578125 12.28125 9.71875 12.105469 L 9.777344 12.019531 C 9.949219 11.789062 10.152344 11.53125 10.296875 11.273438 C 11.992188 8.136719 13.027344 4.429688 13.402344 -0.0859375 C 13.71875 -4.027344 14.523438 -4.773438 18.578125 -4.773438 C 19.125 -4.773438 19.671875 -4.800781 20.246094 -4.800781 C 20.792969 -4.800781 21.339844 -4.800781 21.914062 -4.800781 C 22.519531 -4.800781 23.121094 -4.800781 23.871094 -4.773438 C 23.925781 -4.773438 24.042969 -4.746094 24.15625 -4.746094 C 24.414062 -4.746094 24.445312 -4.800781 24.445312 -4.890625 C 24.359375 -4.976562 23.984375 -5.089844 23.554688 -5.148438 C 21.800781 -5.292969 20.042969 -5.378906 18.347656 -5.433594 L 17.859375 -5.464844 L 17.3125 -5.492188 C 16.910156 -5.492188 16.507812 -5.492188 16.074219 -5.550781 C 16.046875 -5.550781 15.988281 -5.578125 15.933594 -5.578125 C 15.816406 -5.609375 15.671875 -5.636719 15.5 -5.636719 C 15.472656 -5.636719 15.441406 -5.636719 15.414062 -5.636719 L 15.214844 -5.75 L 16.363281 -8.570312 C 18.460938 -13.632812 20.445312 -18.40625 22.632812 -23.152344 C 22.777344 -23.410156 22.949219 -23.667969 23.410156 -23.695312 L 24.617188 -23.78125 C 26.199219 -23.898438 27.867188 -24.011719 29.507812 -24.011719 C 30.457031 -24.011719 31.316406 -23.984375 32.152344 -23.898438 L 32.871094 -23.839844 C 34.738281 -23.667969 36.695312 -23.496094 38.652344 -22.605469 C 38.738281 -22.574219 38.851562 -22.488281 38.96875 -22.429688 C 39.140625 -22.316406 39.3125 -22.203125 39.425781 -22.203125 C 39.457031 -22.203125 39.542969 -22.203125 39.601562 -22.460938 C 39.65625 -22.660156 39.628906 -22.949219 38.851562 -23.351562 C 38.449219 -23.554688 38.019531 -23.667969 37.671875 -23.753906 C 35.429688 -24.328125 33.1875 -24.644531 30.972656 -24.644531 L 29.878906 -24.644531 C 29.390625 -24.644531 28.875 -24.675781 28.382812 -24.675781 C 26.945312 -24.675781 25.222656 -24.617188 23.46875 -24.300781 L 23.238281 -24.242188 C 23.238281 -24.242188 23.4375 -24.789062 23.46875 -24.90625 C 23.523438 -25.046875 23.554688 -25.136719 23.582031 -25.25 C 23.609375 -25.507812 23.753906 -25.765625 23.871094 -25.996094 C 24.042969 -26.34375 24.214844 -26.714844 24.097656 -27.003906 C 24.042969 -27.121094 23.925781 -27.207031 23.753906 -27.320312 C 23.640625 -27.378906 23.554688 -27.378906 23.46875 -27.378906 C 22.921875 -27.378906 22.488281 -26.488281 22.429688 -25.625 C 22.34375 -24.761719 21.914062 -24.328125 21.023438 -24.242188 C 18.578125 -24.011719 16.105469 -23.753906 13.6875 -23.46875 C 9.375 -22.976562 5.894531 -22.429688 2.761719 -21.800781 L 2.558594 -21.769531 C 2.011719 -21.65625 1.523438 -21.570312 1.554688 -20.964844 C 1.582031 -20.332031 2.128906 -20.074219 2.703125 -19.785156 L 2.933594 -19.671875 C 7.996094 -17.109375 11.015625 -13 12.421875 -6.730469 C 12.625 -5.867188 12.367188 -5.433594 11.617188 -5.433594 C 11.53125 -5.433594 11.472656 -5.433594 11.386719 -5.433594 C 11.070312 -5.464844 10.785156 -5.492188 10.496094 -5.492188 C 9.691406 -5.492188 8.945312 -5.40625 8.195312 -5.320312 C 7.535156 -5.261719 6.875 -5.175781 6.210938 -5.148438 L 6.097656 -5.148438 C 5.664062 -5.148438 5.378906 -5.117188 5.464844 -4.800781 C 5.492188 -4.6875 5.550781 -4.601562 5.636719 -4.542969 C 5.695312 -4.484375 5.808594 -4.457031 5.953125 -4.457031 C 6.039062 -4.457031 6.125 -4.457031 6.210938 -4.484375 C 6.296875 -4.484375 6.382812 -4.484375 6.46875 -4.484375 C 7.417969 -4.484375 8.398438 -4.484375 9.375 -4.484375 L 12.625 -4.484375 L 12.652344 -4.371094 C 12.855469 -3.421875 12.796875 -2.53125 12.511719 -1.667969 C 11.445312 1.207031 10.46875 4.113281 9.519531 6.929688 C 9.03125 8.453125 8.597656 9.835938 8.484375 11.359375 C 8.453125 11.789062 8.453125 12.050781 8.828125 12.28125 C 8.972656 12.335938 9.085938 12.394531 9.203125 12.394531 Z M 11.675781 3.941406 L 11.90625 4.027344 C 11.789062 6.242188 11.128906 8.226562 9.921875 9.921875 L 9.71875 9.804688 Z M 21.570312 -23.496094 L 21.453125 -23.292969 C 19.613281 -19.554688 18.003906 -15.757812 16.449219 -12.105469 C 15.5 -9.894531 14.582031 -7.707031 13.601562 -5.523438 L 13.457031 -5.207031 L 13.371094 -5.578125 C 12.769531 -8.800781 11.734375 -11.5625 10.210938 -14.003906 C 8.570312 -16.707031 6.210938 -18.808594 2.816406 -20.648438 L 2.53125 -20.792969 L 2.789062 -20.851562 C 9.921875 -22.230469 15.617188 -23.035156 21.339844 -23.46875 Z M 21.570312 -23.496094 "/></g></g></g><g fill="#a586a6" fill-opacity="1"><g transform="translate(174.115196, 149.528095)"><g><path d="M 9.804688 -4.226562 C 9.691406 -4.140625 9.578125 -4.027344 9.460938 -3.910156 C 9.375 -3.855469 9.316406 -3.765625 9.230469 -3.710938 C 8.769531 -3.308594 8.339844 -2.992188 7.878906 -2.675781 C 6.875 -1.984375 5.867188 -1.523438 4.859375 -1.238281 C 4.199219 -1.035156 3.652344 -0.921875 3.019531 -0.921875 C 2.644531 -0.921875 2.300781 -0.949219 1.925781 -1.0625 C 1.464844 -1.179688 1.148438 -1.410156 0.949219 -1.695312 C 0.777344 -1.925781 0.71875 -2.1875 0.777344 -2.445312 L 0.835938 -2.644531 C 1.007812 -3.539062 1.207031 -4.484375 2.503906 -4.6875 C 4.285156 -4.945312 5.492188 -5.523438 6.296875 -6.5 C 6.644531 -6.929688 6.902344 -7.332031 6.46875 -7.9375 C 6.183594 -8.339844 5.78125 -8.542969 5.320312 -8.542969 C 5.175781 -8.542969 5.03125 -8.542969 4.859375 -8.484375 C 2.011719 -7.734375 0.289062 -6.011719 -0.230469 -3.421875 C -0.402344 -2.644531 -0.230469 -1.925781 0.257812 -1.378906 C 0.777344 -0.835938 1.554688 -0.519531 2.503906 -0.488281 L 2.644531 -0.488281 C 5.609375 -0.488281 7.707031 -2.128906 9.71875 -3.710938 L 9.921875 -3.855469 C 10.066406 -3.96875 10.324219 -4.171875 10.265625 -4.371094 C 10.121094 -4.371094 9.949219 -4.3125 9.804688 -4.226562 Z M 2.816406 -5.695312 C 3.679688 -6.730469 4.601562 -7.191406 5.75 -7.535156 L 6.011719 -7.621094 L 5.867188 -7.390625 C 5.175781 -6.269531 4.285156 -5.867188 2.933594 -5.550781 L 2.644531 -5.492188 Z M 2.816406 -5.695312 "/></g></g></g><g fill="#a586a6" fill-opacity="1"><g transform="translate(183.919587, 149.528095)"><g><path d="M 15.816406 -4.800781 C 15.757812 -4.859375 15.730469 -4.859375 15.671875 -4.859375 C 15.5 -4.859375 15.355469 -4.601562 15.269531 -4.429688 L 15.242188 -4.34375 C 14.523438 -2.992188 13.402344 -1.898438 12.511719 -1.007812 C 11.445312 0.0585938 10.152344 1.207031 8.367188 1.753906 C 8.226562 1.8125 8.050781 1.871094 7.910156 1.871094 C 7.707031 1.871094 7.535156 1.78125 7.390625 1.640625 C 7.132812 1.378906 7.246094 1.09375 7.332031 0.890625 L 7.390625 0.777344 C 7.507812 0.429688 7.648438 0.0859375 7.792969 -0.230469 C 8.050781 -0.835938 8.3125 -1.464844 8.484375 -2.128906 C 8.628906 -2.644531 8.511719 -3.105469 8.226562 -3.449219 C 7.9375 -3.765625 7.535156 -3.941406 7.015625 -3.941406 C 6.929688 -3.941406 6.816406 -3.941406 6.730469 -3.910156 C 6.011719 -3.824219 5.292969 -3.625 4.515625 -3.277344 C 3.855469 -3.019531 3.222656 -2.761719 2.617188 -2.472656 C 2.414062 -2.359375 2.242188 -2.242188 2.042969 -2.128906 C 1.898438 -2.011719 1.753906 -1.898438 1.582031 -1.8125 C 1.4375 -1.753906 1.09375 -1.609375 0.835938 -1.609375 C 0.71875 -1.609375 0.632812 -1.640625 0.574219 -1.695312 C 0.402344 -1.839844 0.488281 -2.042969 0.519531 -2.097656 L 1.523438 -4.714844 C 1.554688 -4.773438 1.582031 -4.859375 1.640625 -4.945312 C 1.78125 -5.292969 2.070312 -5.894531 1.898438 -6.269531 C 1.839844 -6.382812 1.753906 -6.441406 1.640625 -6.527344 C 1.554688 -6.558594 1.496094 -6.558594 1.4375 -6.558594 C 1.292969 -6.558594 1.179688 -6.414062 1.09375 -6.269531 L 1.035156 -6.183594 C 0.230469 -4.945312 -0.375 -3.539062 -0.691406 -1.957031 L -0.71875 -1.839844 C -0.804688 -1.496094 -0.890625 -1.179688 -0.488281 -0.835938 C -0.289062 -0.660156 -0.113281 -0.574219 0.0585938 -0.574219 C 0.257812 -0.574219 0.460938 -0.691406 0.632812 -0.777344 L 0.71875 -0.835938 C 1.121094 -1.035156 1.496094 -1.238281 1.871094 -1.464844 C 2.703125 -1.925781 3.59375 -2.414062 4.574219 -2.761719 C 5.320312 -3.019531 6.066406 -3.222656 6.816406 -3.394531 C 6.929688 -3.421875 7.015625 -3.421875 7.074219 -3.421875 C 7.304688 -3.421875 7.476562 -3.363281 7.621094 -3.191406 C 7.878906 -2.933594 7.765625 -2.703125 7.707031 -2.558594 L 7.648438 -2.472656 C 7.5625 -2.214844 7.417969 -2.011719 7.277344 -1.78125 L 7.015625 -1.324219 C 6.613281 -0.660156 6.210938 0.0273438 6.210938 0.921875 C 6.210938 1.410156 6.328125 1.78125 6.585938 2.042969 C 6.84375 2.273438 7.21875 2.414062 7.707031 2.414062 L 7.765625 2.414062 C 8.253906 2.386719 8.597656 2.328125 8.914062 2.128906 C 11.878906 0.460938 14.089844 -1.554688 15.671875 -3.996094 C 15.703125 -4.054688 15.757812 -4.113281 15.816406 -4.171875 C 15.933594 -4.3125 16.074219 -4.429688 16.019531 -4.574219 C 16.019531 -4.660156 15.933594 -4.714844 15.816406 -4.800781 Z M 15.816406 -4.800781 "/></g></g></g><g fill="#a586a6" fill-opacity="1"><g transform="translate(199.12933, 149.528095)"><g><path d="M 14.8125 -5.148438 C 14.636719 -5.148438 14.4375 -5.117188 14.320312 -5.089844 C 13.660156 -4.945312 13.140625 -4.800781 12.683594 -4.628906 C 12.28125 -4.457031 11.90625 -4.285156 11.472656 -4.113281 C 11.445312 -4.082031 11.332031 -4.054688 11.1875 -3.996094 C 10.957031 -3.910156 10.382812 -3.738281 10.351562 -3.625 L 10.179688 -3.710938 L 10.265625 -4.257812 C 10.324219 -4.601562 10.351562 -4.859375 10.382812 -5.117188 C 10.410156 -5.695312 10.410156 -6.242188 9.894531 -6.613281 C 9.71875 -6.785156 9.492188 -6.84375 9.261719 -6.84375 C 9.03125 -6.84375 8.800781 -6.785156 8.511719 -6.671875 C 7.851562 -6.355469 7.246094 -5.925781 6.644531 -5.550781 L 6.558594 -5.464844 C 6.441406 -5.40625 6.355469 -5.347656 6.242188 -5.347656 C 6.066406 -5.347656 5.894531 -5.523438 5.75 -5.722656 C 5.003906 -6.671875 4.34375 -7.101562 3.59375 -7.101562 C 3.25 -7.101562 2.875 -7.015625 2.472656 -6.84375 C 0.949219 -6.183594 -0.0273438 -4.917969 -0.429688 -3.078125 C -0.574219 -2.472656 -0.746094 -1.78125 0.0273438 -1.179688 C 0.316406 -0.921875 0.632812 -0.804688 0.921875 -0.804688 C 1.292969 -0.804688 1.609375 -0.976562 1.957031 -1.148438 C 2.789062 -1.554688 3.480469 -2.15625 4.140625 -2.761719 C 4.398438 -2.960938 4.628906 -3.164062 4.890625 -3.363281 C 4.917969 -3.394531 4.945312 -3.449219 5.003906 -3.507812 C 5.089844 -3.679688 5.234375 -3.824219 5.40625 -3.824219 C 5.664062 -3.824219 5.839844 -3.449219 5.953125 -3.191406 C 5.980469 -3.132812 6.011719 -3.046875 6.152344 -3.046875 C 6.183594 -3.046875 6.210938 -3.078125 6.242188 -3.078125 C 6.382812 -3.105469 6.414062 -3.25 6.382812 -3.480469 C 6.355469 -4.714844 7.824219 -6.382812 9.085938 -6.5 C 9.144531 -6.5 9.203125 -6.5 9.230469 -6.5 C 9.578125 -6.5 9.777344 -6.382812 9.863281 -6.269531 C 9.980469 -6.125 10.035156 -5.925781 9.980469 -5.664062 L 9.894531 -5.234375 C 9.71875 -4.199219 9.519531 -3.132812 8.628906 -2.53125 C 4.976562 -0.0273438 2.097656 3.046875 -1.292969 6.816406 C -2.097656 7.734375 -2.960938 8.683594 -3.308594 9.980469 C -3.421875 10.496094 -3.480469 11.070312 -2.960938 11.617188 C -2.617188 11.933594 -2.242188 12.078125 -1.753906 12.078125 C -1.609375 12.078125 -1.4375 12.078125 -1.292969 12.050781 C -0.144531 11.878906 0.632812 11.1875 1.292969 10.496094 C 4.429688 7.277344 6.699219 4.027344 8.195312 0.574219 C 8.769531 -0.746094 9.519531 -1.839844 10.46875 -2.644531 C 11.503906 -3.566406 12.769531 -4.082031 14.179688 -4.601562 C 14.207031 -4.601562 14.265625 -4.628906 14.351562 -4.628906 C 14.582031 -4.714844 15.15625 -4.859375 15.097656 -5.089844 C 15.097656 -5.117188 15.039062 -5.148438 14.8125 -5.148438 Z M 4.917969 -4.113281 C 4.890625 -4.082031 4.832031 -4.054688 4.800781 -3.996094 C 4.601562 -3.855469 4.429688 -3.679688 4.257812 -3.539062 C 3.449219 -2.816406 2.617188 -2.097656 1.523438 -1.582031 C 1.351562 -1.496094 1.148438 -1.410156 0.949219 -1.410156 C 0.804688 -1.410156 0.632812 -1.464844 0.488281 -1.582031 C 0.0859375 -1.925781 0.230469 -2.386719 0.316406 -2.675781 C 0.804688 -4.371094 1.925781 -5.464844 3.59375 -5.894531 L 3.625 -5.894531 C 4.371094 -5.894531 4.773438 -5.433594 5.0625 -5.03125 C 5.464844 -4.484375 5.175781 -4.285156 4.917969 -4.113281 Z M -0.460938 10.4375 L -0.574219 10.554688 C -0.921875 10.84375 -1.351562 11.214844 -1.8125 11.214844 C -2.011719 11.214844 -2.242188 11.128906 -2.414062 10.957031 C -3.105469 10.382812 -2.675781 9.691406 -2.328125 9.144531 L -2.1875 8.914062 C -1.179688 7.160156 0.257812 5.78125 1.695312 4.429688 C 2.214844 3.910156 2.730469 3.421875 3.222656 2.90625 C 4.542969 1.554688 6.011719 0.144531 7.824219 -0.976562 L 7.964844 -0.835938 C 5.722656 3.164062 3.25 7.304688 -0.460938 10.4375 Z M -0.460938 10.4375 "/></g></g></g><g fill="#a586a6" fill-opacity="1"><g transform="translate(138.970687, 183.106886)"><g><path d="M 16.507812 -9.261719 C 16.390625 -9.433594 16.25 -9.519531 16.046875 -9.519531 C 15.902344 -9.519531 15.757812 -9.492188 15.617188 -9.433594 C 15.070312 -9.289062 14.550781 -9.058594 14.035156 -8.769531 C 12.710938 -7.996094 11.648438 -6.929688 10.582031 -5.894531 L 10.265625 -5.609375 C 10.238281 -5.550781 10.210938 -5.523438 10.152344 -5.464844 C 10.035156 -5.292969 9.894531 -5.117188 9.71875 -5.117188 C 9.632812 -5.117188 9.546875 -5.175781 9.460938 -5.234375 C 8.828125 -5.78125 8.511719 -6.5 8.226562 -7.191406 C 8.136719 -7.363281 8.082031 -7.5625 7.996094 -7.734375 C 7.679688 -8.367188 7.996094 -8.597656 8.3125 -8.828125 C 8.714844 -9.117188 9.144531 -9.433594 9.546875 -9.71875 C 10.613281 -10.46875 11.703125 -11.273438 12.738281 -12.078125 C 13.71875 -12.855469 14.8125 -13.773438 15.386719 -15.125 C 15.757812 -16.046875 15.644531 -16.851562 15.070312 -17.628906 C 14.496094 -18.375 13.371094 -18.492188 12.769531 -18.492188 L 12.421875 -18.460938 C 11.589844 -18.40625 10.726562 -18.175781 9.921875 -17.800781 C 7.015625 -16.480469 5.664062 -13.285156 6.382812 -9.492188 C 6.5 -8.800781 6.382812 -8.398438 5.953125 -7.964844 C 4.800781 -6.875 3.738281 -5.75 2.730469 -4.660156 C 2.097656 -3.96875 1.695312 -3.191406 1.582031 -2.359375 C 1.496094 -1.898438 1.582031 -1.523438 1.78125 -1.238281 C 2.011719 -0.890625 2.414062 -0.660156 3.019531 -0.460938 C 3.363281 -0.34375 3.679688 -0.289062 4.027344 -0.289062 C 4.226562 -0.289062 4.429688 -0.316406 4.628906 -0.34375 C 6.644531 -0.71875 8.023438 -1.839844 9.117188 -2.90625 C 9.347656 -3.132812 9.546875 -3.25 9.75 -3.25 C 10.007812 -3.25 10.265625 -3.078125 10.613281 -2.761719 C 11.332031 -2.070312 12.195312 -1.464844 13.316406 -0.890625 C 13.457031 -0.804688 13.632812 -0.746094 13.746094 -0.746094 C 13.832031 -0.746094 13.890625 -0.777344 13.949219 -0.835938 C 14.0625 -1.035156 13.863281 -1.238281 13.601562 -1.4375 C 12.914062 -1.984375 12.195312 -2.558594 11.417969 -3.105469 C 10.957031 -3.421875 10.726562 -3.679688 10.667969 -3.910156 C 10.613281 -4.199219 10.753906 -4.457031 11.101562 -4.773438 L 11.648438 -5.261719 C 13.027344 -6.46875 14.40625 -7.734375 16.105469 -8.628906 L 16.21875 -8.683594 C 16.507812 -8.828125 16.679688 -8.945312 16.507812 -9.261719 Z M 8.914062 -15.644531 C 9.492188 -16.335938 10.179688 -16.882812 10.957031 -17.253906 C 11.417969 -17.484375 12.367188 -17.886719 13.316406 -17.886719 C 13.429688 -17.886719 13.574219 -17.859375 13.71875 -17.859375 C 14.292969 -17.773438 14.609375 -17.484375 14.753906 -17.253906 C 15.097656 -16.707031 15.039062 -15.933594 14.78125 -15.414062 C 14.378906 -14.667969 13.804688 -13.976562 13.054688 -13.429688 C 11.847656 -12.480469 10.640625 -11.589844 9.375 -10.640625 L 7.734375 -9.402344 L 7.59375 -9.546875 C 7.59375 -9.605469 7.507812 -9.980469 7.476562 -10.152344 C 7.449219 -10.296875 7.417969 -10.382812 7.417969 -10.4375 C 7.21875 -12.335938 7.765625 -14.207031 8.914062 -15.644531 Z M 7.59375 -2.875 C 6.671875 -2.011719 5.636719 -1.207031 4.171875 -0.890625 C 3.996094 -0.863281 3.796875 -0.835938 3.625 -0.835938 C 3.105469 -0.835938 2.675781 -1.007812 2.328125 -1.378906 C 1.839844 -1.871094 2.070312 -2.328125 2.242188 -2.703125 L 2.328125 -2.847656 C 3.277344 -4.976562 5.0625 -6.355469 6.785156 -7.734375 L 6.875 -7.792969 L 7.21875 -7.101562 C 7.390625 -6.757812 7.5625 -6.414062 7.765625 -6.066406 C 8.886719 -4.140625 8.886719 -4.082031 7.59375 -2.875 Z M 7.59375 -2.875 "/></g></g></g><g fill="#a586a6" fill-opacity="1"><g transform="translate(59.710749, 216.685677)"><g><path d="M 3.164062 10.210938 C 3.421875 10.210938 3.652344 9.894531 3.824219 9.605469 C 3.910156 9.492188 3.996094 9.375 4.054688 9.289062 C 7.015625 5.925781 9.71875 1.898438 12.597656 -3.421875 C 15.902344 -9.546875 17.972656 -14.496094 19.269531 -19.5 C 19.613281 -20.734375 19.84375 -21.886719 19.554688 -23.179688 C 19.355469 -23.925781 19.066406 -24.472656 18.636719 -24.847656 C 18.261719 -25.136719 17.800781 -25.277344 17.285156 -25.277344 C 16.96875 -25.277344 16.621094 -25.222656 16.25 -25.105469 C 12.105469 -23.898438 9.058594 -21.253906 6.097656 -18.664062 L 5.839844 -18.460938 C 4.3125 -17.140625 2.875 -15.816406 1.8125 -14.179688 L 1.753906 -14.089844 C 1.609375 -13.917969 1.496094 -13.746094 1.554688 -13.546875 C 1.582031 -13.429688 1.667969 -13.34375 1.839844 -13.230469 C 1.957031 -13.113281 2.070312 -13.085938 2.1875 -13.085938 C 2.359375 -13.085938 2.53125 -13.230469 2.675781 -13.402344 C 3.164062 -13.863281 3.59375 -14.351562 4.027344 -14.867188 L 4.398438 -15.300781 C 7.191406 -18.40625 10.238281 -21.625 14.378906 -23.78125 C 15.011719 -24.128906 15.816406 -24.558594 16.824219 -24.589844 L 17.054688 -24.589844 C 17.742188 -24.589844 18.175781 -24.472656 18.460938 -24.1875 C 18.75 -23.871094 18.835938 -23.410156 18.777344 -22.71875 C 18.664062 -21.683594 18.460938 -20.648438 18.148438 -19.671875 C 16.277344 -13.863281 13.601562 -8.136719 9.519531 -1.0625 C 8.65625 0.375 7.707031 1.753906 6.757812 3.105469 C 5.523438 4.859375 4.226562 6.699219 3.25 8.683594 C 3.191406 8.800781 3.078125 8.945312 2.992188 9.058594 C 2.789062 9.316406 2.589844 9.605469 2.644531 9.835938 C 2.675781 9.921875 2.730469 10.007812 2.816406 10.066406 C 2.933594 10.179688 3.046875 10.210938 3.164062 10.210938 Z M 3.164062 10.210938 "/></g></g></g><g fill="#a586a6" fill-opacity="1"><g transform="translate(76.818123, 216.685677)"><g><path d="M 9.75 -5.0625 C 9.71875 -5.089844 9.632812 -5.148438 9.402344 -5.148438 C 8.972656 -5.148438 8.398438 -4.976562 8.167969 -4.917969 C 6.84375 -4.515625 5.261719 -4.054688 3.796875 -3.363281 C 3.566406 -3.25 3.363281 -3.191406 3.164062 -3.191406 C 2.589844 -3.191406 2.273438 -3.738281 1.8125 -4.457031 C 1.609375 -4.800781 1.378906 -5.148438 1.121094 -5.433594 C 0.660156 -5.953125 0.632812 -6.441406 0.976562 -6.816406 C 2.097656 -8.023438 3.59375 -8.742188 5.433594 -8.914062 L 5.523438 -8.945312 C 5.578125 -8.945312 5.636719 -8.945312 5.722656 -8.945312 C 5.925781 -8.945312 6.097656 -8.859375 6.210938 -8.683594 C 6.382812 -8.398438 6.269531 -8.167969 6.152344 -7.964844 C 5.953125 -7.5625 5.722656 -7.160156 5.523438 -6.730469 C 5.378906 -6.5 5.320312 -6.296875 5.550781 -6.125 C 5.636719 -6.066406 5.722656 -6.039062 5.808594 -6.039062 C 5.953125 -6.039062 6.066406 -6.125 6.183594 -6.210938 C 6.757812 -6.613281 7.074219 -7.101562 7.21875 -7.707031 C 7.363281 -8.226562 7.277344 -8.683594 6.988281 -9.03125 C 6.730469 -9.316406 6.328125 -9.460938 5.808594 -9.460938 L 5.664062 -9.460938 C 3.480469 -9.347656 1.609375 -8.511719 0.144531 -7.046875 C -0.289062 -6.585938 -0.316406 -6.011719 0.113281 -5.320312 L 0.34375 -4.976562 C 0.546875 -4.601562 0.777344 -4.226562 1.035156 -3.855469 C 1.753906 -2.847656 1.667969 -2.242188 0.777344 -1.78125 C -0.632812 -1.035156 -2.070312 -0.171875 -3.078125 1.09375 C -3.855469 2.097656 -3.855469 3.277344 -3.105469 3.941406 C -2.816406 4.171875 -2.445312 4.3125 -2.070312 4.3125 C -1.496094 4.3125 -0.890625 4.054688 -0.34375 3.566406 C 1.09375 2.328125 1.925781 1.007812 2.1875 -0.429688 C 2.472656 -2.011719 3.539062 -2.644531 4.6875 -3.222656 C 5.433594 -3.566406 6.269531 -3.910156 7.304688 -4.226562 C 7.824219 -4.398438 8.367188 -4.542969 8.886719 -4.660156 C 8.945312 -4.6875 9.03125 -4.6875 9.117188 -4.714844 C 9.347656 -4.746094 9.835938 -4.800781 9.804688 -4.945312 Z M -1.265625 3.539062 C -1.4375 3.625 -1.695312 3.710938 -2.011719 3.710938 C -2.273438 3.710938 -2.472656 3.625 -2.617188 3.480469 C -2.730469 3.335938 -2.789062 3.132812 -2.789062 2.875 C -2.703125 2.097656 -1.871094 1.351562 -1.238281 0.835938 L -1.035156 0.660156 C -0.691406 0.316406 -0.289062 0.0273438 0.171875 -0.316406 C 0.257812 -0.34375 0.375 -0.429688 0.546875 -0.488281 C 0.804688 -0.632812 1.324219 -0.890625 1.351562 -1.035156 L 1.554688 -0.976562 C 1.179688 1.265625 0.289062 2.703125 -1.265625 3.539062 Z M -1.265625 3.539062 "/></g></g></g><g fill="#a586a6" fill-opacity="1"><g transform="translate(85.817464, 216.685677)"><g><path d="M 14.78125 -5.609375 C 14.667969 -5.609375 14.496094 -5.464844 14.378906 -5.378906 L 14.292969 -5.320312 C 14.035156 -5.175781 13.832031 -4.976562 13.601562 -4.800781 C 13.488281 -4.6875 13.371094 -4.601562 13.230469 -4.515625 C 12.96875 -4.3125 12.738281 -4.113281 12.480469 -3.910156 C 12.136719 -3.625 11.789062 -3.335938 11.417969 -3.046875 C 10.296875 -2.242188 9.085938 -1.351562 7.851562 -0.519531 C 7.679688 -0.402344 7.074219 -0.0859375 6.671875 -0.0859375 C 6.613281 -0.0859375 6.558594 -0.0859375 6.5 -0.113281 C 6.414062 -0.144531 6.355469 -0.171875 6.328125 -0.257812 C 6.269531 -0.34375 6.269531 -0.488281 6.328125 -0.691406 L 6.5 -1.09375 C 6.644531 -1.554688 6.816406 -2.011719 7.015625 -2.445312 L 7.535156 -3.507812 C 8.195312 -4.859375 8.859375 -6.242188 9.492188 -7.621094 C 9.664062 -7.9375 9.75 -8.195312 9.402344 -8.453125 C 9.289062 -8.570312 9.175781 -8.628906 9.03125 -8.628906 C 8.859375 -8.628906 8.683594 -8.542969 8.511719 -8.453125 C 8.28125 -8.367188 8.082031 -8.226562 7.910156 -8.050781 L 7.824219 -7.964844 C 7.59375 -7.734375 7.363281 -7.535156 7.046875 -7.535156 C 6.757812 -7.535156 6.441406 -7.765625 6.066406 -8.253906 C 5.839844 -8.570312 5.347656 -8.570312 4.859375 -8.597656 L 4.746094 -8.597656 C 3.59375 -8.597656 2.675781 -8.136719 1.8125 -7.21875 C 0.632812 -5.894531 -0.171875 -4.285156 -0.632812 -2.472656 L -0.691406 -2.273438 C -0.863281 -1.554688 -1.09375 -0.746094 -0.257812 -0.171875 C -0.0585938 -0.0273438 0.144531 0.0585938 0.34375 0.0585938 C 0.777344 0.0585938 1.148438 -0.289062 1.496094 -0.574219 L 1.726562 -0.777344 C 2.847656 -1.667969 3.765625 -2.761719 4.6875 -3.824219 C 5.089844 -4.3125 5.492188 -4.800781 5.925781 -5.261719 C 6.011719 -5.378906 6.125 -5.464844 6.210938 -5.578125 L 6.414062 -5.78125 L 6.46875 -5.695312 C 6.730469 -5.433594 6.84375 -5.40625 6.902344 -5.40625 C 7.015625 -5.40625 7.015625 -5.664062 7.015625 -5.839844 L 7.015625 -5.925781 C 7.046875 -6.527344 7.363281 -6.988281 7.648438 -7.304688 C 7.648438 -7.304688 8.226562 -7.9375 8.597656 -7.9375 C 8.65625 -7.9375 8.714844 -7.910156 8.742188 -7.910156 C 8.828125 -7.851562 8.886719 -7.792969 8.914062 -7.707031 C 9.058594 -7.363281 8.714844 -6.785156 8.367188 -6.296875 C 8.3125 -6.210938 8.28125 -6.125 8.253906 -6.097656 C 8.109375 -5.808594 7.390625 -4.484375 7.390625 -4.484375 C 6.84375 -3.480469 6.296875 -2.359375 5.953125 -1.121094 C 5.925781 -1.035156 5.894531 -0.949219 5.867188 -0.863281 C 5.695312 -0.429688 5.578125 -0.0273438 6.097656 0.402344 C 6.296875 0.574219 6.5 0.660156 6.699219 0.660156 C 6.960938 0.660156 7.191406 0.519531 7.417969 0.402344 L 7.59375 0.289062 C 10.4375 -1.265625 12.855469 -3.105469 14.8125 -5.175781 C 14.925781 -5.292969 14.984375 -5.433594 14.953125 -5.523438 C 14.925781 -5.578125 14.867188 -5.578125 14.78125 -5.609375 Z M 6.355469 -6.699219 C 5.75 -6.039062 5.175781 -5.320312 4.628906 -4.628906 C 3.449219 -3.191406 2.214844 -1.667969 0.546875 -0.660156 C 0.460938 -0.605469 0.375 -0.574219 0.289062 -0.574219 C 0.203125 -0.574219 0.113281 -0.605469 0.0273438 -0.660156 C -0.230469 -0.921875 -0.171875 -1.554688 -0.144531 -1.753906 C -0.0273438 -2.1875 0.203125 -2.558594 0.402344 -2.90625 C 0.488281 -3.078125 0.574219 -3.222656 0.660156 -3.363281 C 1.4375 -4.832031 2.386719 -6.46875 4.082031 -7.476562 C 4.429688 -7.679688 4.859375 -7.824219 5.320312 -7.910156 C 5.378906 -7.9375 5.40625 -7.9375 5.464844 -7.9375 C 5.78125 -7.9375 6.125 -7.734375 6.355469 -7.449219 C 6.558594 -7.160156 6.558594 -6.902344 6.355469 -6.699219 Z M 6.355469 -6.699219 "/></g></g></g><g fill="#a586a6" fill-opacity="1"><g transform="translate(99.819626, 216.685677)"><g><path d="M 0.460938 -1.753906 C 0.632812 -2.414062 0.890625 -3.046875 1.121094 -3.652344 C 1.265625 -4.054688 1.410156 -4.429688 1.554688 -4.832031 C 1.640625 -5.089844 1.839844 -5.207031 2.042969 -5.292969 C 2.097656 -5.320312 2.1875 -5.347656 2.242188 -5.378906 C 5.347656 -7.21875 7.996094 -9.578125 10.035156 -12.335938 C 11.070312 -13.71875 12.105469 -15.414062 12.078125 -17.6875 C 12.078125 -18.261719 11.878906 -18.777344 11.53125 -19.125 C 11.214844 -19.441406 10.8125 -19.585938 10.351562 -19.585938 C 10.179688 -19.585938 9.980469 -19.554688 9.777344 -19.5 C 9.117188 -19.324219 8.628906 -18.867188 8.253906 -18.433594 C 6.902344 -16.996094 5.78125 -15.355469 4.714844 -13.746094 L 4.054688 -12.769531 C 1.582031 -9.117188 -0.0859375 -4.945312 -0.890625 -0.34375 L -0.949219 -0.0585938 C -1.09375 0.691406 -1.265625 1.523438 -0.402344 2.128906 C -0.0859375 2.359375 0.171875 2.445312 0.460938 2.445312 C 0.949219 2.445312 1.378906 2.097656 1.726562 1.78125 L 1.925781 1.609375 C 3.132812 0.605469 4.34375 -0.429688 4.371094 -2.1875 C 4.371094 -3.078125 4.6875 -3.308594 5.347656 -3.449219 C 6.296875 -3.652344 7.246094 -3.855469 8.195312 -4.082031 L 9.691406 -4.429688 C 9.835938 -4.457031 10.007812 -4.484375 10.035156 -4.574219 C 10.035156 -4.628906 10.035156 -4.6875 9.980469 -4.773438 C 9.894531 -4.917969 9.804688 -4.945312 9.71875 -4.945312 C 9.632812 -4.945312 9.546875 -4.917969 9.460938 -4.890625 L 9.347656 -4.859375 C 8.828125 -4.746094 8.28125 -4.601562 7.707031 -4.484375 C 6.269531 -4.171875 4.34375 -3.765625 2.300781 -3.566406 C 2.042969 -3.539062 1.871094 -3.480469 1.8125 -3.363281 C 1.78125 -3.277344 1.78125 -3.164062 1.839844 -3.046875 C 1.925781 -2.816406 2.128906 -2.703125 2.445312 -2.703125 C 2.503906 -2.703125 2.53125 -2.703125 2.675781 -2.703125 C 2.789062 -2.730469 2.933594 -2.730469 3.105469 -2.789062 C 3.222656 -2.847656 3.308594 -2.875 3.449219 -2.875 C 3.59375 -2.875 3.765625 -2.816406 3.910156 -2.644531 C 4.140625 -2.359375 4.082031 -2.128906 3.996094 -1.871094 C 3.710938 -1.007812 3.222656 -0.257812 2.589844 0.34375 C 2.097656 0.804688 1.523438 1.351562 0.777344 1.554688 C 0.71875 1.582031 0.632812 1.582031 0.574219 1.582031 C 0.460938 1.582031 0.34375 1.554688 0.257812 1.496094 C 0 1.292969 0 0.890625 0.0273438 0.660156 C 0.0859375 -0.203125 0.230469 -1.007812 0.460938 -1.753906 Z M 2.414062 -7.132812 C 2.675781 -7.734375 2.960938 -8.367188 3.277344 -8.945312 C 5.234375 -12.394531 7.191406 -15.328125 9.289062 -17.859375 L 9.375 -17.972656 C 9.664062 -18.320312 10.007812 -18.75 10.46875 -18.75 C 10.613281 -18.75 10.785156 -18.722656 10.929688 -18.605469 C 11.675781 -18.148438 11.503906 -17.285156 11.359375 -16.652344 L 11.332031 -16.507812 C 10.984375 -14.839844 10.179688 -13.257812 8.828125 -11.589844 C 6.929688 -9.289062 4.746094 -7.507812 2.1875 -6.152344 L 2.042969 -6.269531 C 2.15625 -6.558594 2.300781 -6.84375 2.414062 -7.132812 Z M 2.414062 -7.132812 "/></g></g></g><g fill="#a586a6" fill-opacity="1"><g transform="translate(109.048977, 216.685677)"><g><path d="M 9.804688 -4.226562 C 9.691406 -4.140625 9.578125 -4.027344 9.460938 -3.910156 C 9.375 -3.855469 9.316406 -3.765625 9.230469 -3.710938 C 8.769531 -3.308594 8.339844 -2.992188 7.878906 -2.675781 C 6.875 -1.984375 5.867188 -1.523438 4.859375 -1.238281 C 4.199219 -1.035156 3.652344 -0.921875 3.019531 -0.921875 C 2.644531 -0.921875 2.300781 -0.949219 1.925781 -1.0625 C 1.464844 -1.179688 1.148438 -1.410156 0.949219 -1.695312 C 0.777344 -1.925781 0.71875 -2.1875 0.777344 -2.445312 L 0.835938 -2.644531 C 1.007812 -3.539062 1.207031 -4.484375 2.503906 -4.6875 C 4.285156 -4.945312 5.492188 -5.523438 6.296875 -6.5 C 6.644531 -6.929688 6.902344 -7.332031 6.46875 -7.9375 C 6.183594 -8.339844 5.78125 -8.542969 5.320312 -8.542969 C 5.175781 -8.542969 5.03125 -8.542969 4.859375 -8.484375 C 2.011719 -7.734375 0.289062 -6.011719 -0.230469 -3.421875 C -0.402344 -2.644531 -0.230469 -1.925781 0.257812 -1.378906 C 0.777344 -0.835938 1.554688 -0.519531 2.503906 -0.488281 L 2.644531 -0.488281 C 5.609375 -0.488281 7.707031 -2.128906 9.71875 -3.710938 L 9.921875 -3.855469 C 10.066406 -3.96875 10.324219 -4.171875 10.265625 -4.371094 C 10.121094 -4.371094 9.949219 -4.3125 9.804688 -4.226562 Z M 2.816406 -5.695312 C 3.679688 -6.730469 4.601562 -7.191406 5.75 -7.535156 L 6.011719 -7.621094 L 5.867188 -7.390625 C 5.175781 -6.269531 4.285156 -5.867188 2.933594 -5.550781 L 2.644531 -5.492188 Z M 2.816406 -5.695312 "/></g></g></g><g fill="#a586a6" fill-opacity="1"><g transform="translate(118.853369, 216.685677)"><g><path d="M 12.25 -24.90625 C 12.078125 -25.046875 11.933594 -25.105469 11.820312 -25.105469 C 11.589844 -25.105469 11.445312 -24.90625 11.273438 -24.703125 C 11.246094 -24.644531 11.1875 -24.558594 11.128906 -24.503906 C 8.082031 -21.195312 6.152344 -17.082031 4.140625 -13 C 0.574219 -5.808594 -3.019531 1.984375 -3.765625 10.582031 L -3.796875 10.898438 C -3.882812 11.847656 -3.96875 12.855469 -3.652344 13.890625 C -3.363281 14.898438 -2.703125 15.386719 -1.640625 15.386719 L -1.582031 15.386719 C -1.378906 15.386719 -1.148438 15.328125 -1.179688 14.953125 C -1.207031 14.839844 -1.265625 14.695312 -1.351562 14.609375 C -1.410156 14.550781 -1.496094 14.523438 -1.582031 14.496094 C -2.011719 14.4375 -2.359375 14.320312 -2.558594 14.089844 C -2.847656 13.773438 -2.816406 13.34375 -2.816406 12.96875 C -2.816406 12.855469 -2.816406 12.769531 -2.816406 12.683594 C -2.875 10.324219 -2.558594 7.9375 -1.839844 5.117188 C 0.171875 -2.90625 3.679688 -10.46875 7.910156 -17.3125 C 8.859375 -18.867188 9.835938 -20.359375 10.871094 -21.828125 C 10.898438 -21.886719 10.929688 -21.914062 10.929688 -21.941406 C 11.359375 -22.546875 11.761719 -23.152344 12.222656 -23.695312 C 12.539062 -24.15625 12.710938 -24.503906 12.25 -24.90625 Z M 12.25 -24.90625 "/></g></g></g><g fill="#a586a6" fill-opacity="1"><g transform="translate(124.31623, 216.685677)"><g/></g></g><g fill="#a586a6" fill-opacity="1"><g transform="translate(132.941791, 216.685677)"><g><path d="M 2.503906 7.964844 C 2.816406 7.964844 3.164062 7.824219 3.480469 7.679688 C 3.738281 7.59375 3.96875 7.507812 4.171875 7.449219 C 6.5 7.015625 8.683594 6.785156 10.8125 6.757812 L 11.300781 6.730469 C 12.308594 6.730469 13.34375 6.785156 14.320312 6.875 C 15.15625 6.960938 15.988281 7.132812 16.824219 7.304688 C 17.109375 7.363281 17.425781 7.417969 17.742188 7.476562 L 18.003906 7.535156 C 18.261719 7.59375 18.636719 7.679688 18.921875 7.679688 C 19.125 7.679688 19.269531 7.621094 19.355469 7.476562 C 19.324219 7.449219 19.210938 7.417969 19.125 7.390625 L 18.980469 7.332031 C 17.714844 6.816406 16.421875 6.613281 15.183594 6.414062 C 13.890625 6.210938 12.480469 6.097656 11.015625 6.066406 L 10.667969 6.066406 C 9.578125 6.066406 8.425781 6.125 7.160156 6.242188 C 6.527344 6.296875 5.894531 6.382812 5.261719 6.46875 C 5.0625 6.5 4.859375 6.527344 4.660156 6.558594 C 4.429688 6.613281 4.171875 6.671875 3.941406 6.699219 C 3.882812 6.699219 3.855469 6.699219 3.796875 6.699219 C 3.625 6.699219 3.480469 6.644531 3.394531 6.558594 C 3.308594 6.46875 3.25 6.355469 3.222656 6.242188 C 3.164062 5.808594 3.679688 5.261719 4.199219 4.800781 C 4.285156 4.714844 4.34375 4.660156 4.398438 4.601562 C 4.859375 4.027344 5.347656 3.421875 5.867188 2.675781 C 6.558594 1.695312 7.21875 0.660156 7.851562 -0.34375 L 8.542969 -1.410156 C 9.980469 -3.625 16.621094 -15.644531 17.972656 -17.886719 C 19.039062 -19.613281 20.074219 -21.367188 21.167969 -23.09375 L 21.394531 -23.46875 C 22.230469 -24.761719 23.09375 -26.113281 23.640625 -27.636719 C 23.8125 -28.125 23.753906 -28.441406 23.410156 -28.671875 C 23.324219 -28.757812 23.238281 -28.789062 23.152344 -28.789062 C 22.949219 -28.789062 22.777344 -28.558594 22.632812 -28.355469 C 21.914062 -27.320312 21.050781 -26.082031 20.246094 -24.847656 C 18.433594 -22 16.679688 -19.039062 14.953125 -16.164062 C 12.652344 -12.25 5.003906 1.523438 2.386719 5.320312 C 2.273438 5.464844 2.15625 5.636719 2.011719 5.78125 C 1.523438 6.269531 1.0625 6.785156 1.640625 7.507812 C 1.898438 7.824219 2.15625 7.964844 2.503906 7.964844 Z M 2.503906 7.964844 "/></g></g></g><g fill="#a586a6" fill-opacity="1"><g transform="translate(147.087713, 216.685677)"><g><path d="M 16.191406 -4.515625 C 16.132812 -4.574219 16.074219 -4.601562 16.019531 -4.601562 C 15.960938 -4.601562 15.902344 -4.542969 15.847656 -4.457031 C 15.847656 -4.429688 15.816406 -4.398438 15.789062 -4.371094 C 14.839844 -3.335938 13.632812 -2.386719 11.964844 -1.378906 C 11.070312 -0.863281 10.121094 -0.34375 8.828125 -0.34375 C 8.195312 -0.34375 7.792969 -0.488281 7.535156 -0.746094 C 7.277344 -1.007812 7.160156 -1.410156 7.21875 -1.957031 C 7.304688 -2.703125 7.535156 -3.394531 7.792969 -4.054688 C 7.910156 -4.371094 8.023438 -4.660156 8.109375 -4.976562 C 8.136719 -5.089844 8.226562 -5.234375 8.28125 -5.347656 C 8.398438 -5.636719 8.542969 -5.925781 8.453125 -6.152344 C 8.398438 -6.296875 8.28125 -6.382812 8.109375 -6.5 C 7.964844 -6.585938 7.824219 -6.613281 7.734375 -6.613281 C 7.417969 -6.613281 7.304688 -6.242188 7.191406 -5.925781 C 7.132812 -5.808594 7.101562 -5.695312 7.074219 -5.578125 C 6.125 -3.59375 4.515625 -2.011719 2.097656 -0.746094 C 1.78125 -0.574219 1.351562 -0.375 0.921875 -0.375 C 0.863281 -0.375 0.835938 -0.375 0.777344 -0.375 C 0.632812 -0.375 0.546875 -0.429688 0.460938 -0.519531 C 0.316406 -0.691406 0.289062 -0.890625 0.316406 -1.0625 C 0.460938 -2.875 1.351562 -4.457031 2.214844 -5.953125 C 2.558594 -6.585938 2.875 -7.160156 3.164062 -7.765625 C 3.308594 -8.050781 3.394531 -8.28125 3.132812 -8.484375 C 2.992188 -8.597656 2.875 -8.65625 2.789062 -8.65625 C 2.617188 -8.65625 2.472656 -8.542969 2.328125 -8.367188 C 0.488281 -5.980469 -0.488281 -3.765625 -0.777344 -1.351562 C -0.835938 -0.746094 -0.632812 -0.289062 -0.144531 0.144531 C 0.113281 0.375 0.402344 0.488281 0.746094 0.488281 C 0.949219 0.488281 1.148438 0.429688 1.378906 0.375 C 2.1875 0.113281 2.960938 -0.289062 3.625 -0.835938 C 4.171875 -1.292969 4.714844 -1.726562 5.261719 -2.1875 L 6.066406 -2.90625 L 6.097656 -2.703125 C 6.242188 -1.523438 6.613281 -0.691406 7.160156 -0.203125 C 7.535156 0.113281 8.023438 0.289062 8.570312 0.289062 C 8.859375 0.289062 9.175781 0.230469 9.519531 0.144531 C 12.335938 -0.605469 14.378906 -2.328125 16.164062 -4.082031 C 16.25 -4.171875 16.335938 -4.257812 16.335938 -4.34375 C 16.304688 -4.398438 16.277344 -4.457031 16.191406 -4.515625 Z M 16.191406 -4.515625 "/></g></g></g><g fill="#a586a6" fill-opacity="1"><g transform="translate(162.584976, 216.685677)"><g><path d="M 10.324219 -4.660156 C 10.265625 -4.660156 10.210938 -4.660156 10.179688 -4.660156 C 9.894531 -4.660156 9.664062 -4.574219 9.433594 -4.457031 C 9.230469 -4.371094 9.058594 -4.285156 8.828125 -4.257812 C 8.367188 -4.199219 7.878906 -4.140625 7.304688 -4.140625 C 7.074219 -4.140625 6.84375 -4.171875 6.585938 -4.171875 C 6.183594 -4.199219 5.925781 -4.285156 5.78125 -4.457031 C 5.636719 -4.601562 5.609375 -4.832031 5.695312 -5.148438 C 5.839844 -5.722656 5.839844 -6.328125 5.664062 -6.960938 C 5.464844 -7.707031 5.117188 -8.136719 4.574219 -8.398438 C 4.3125 -8.511719 4.082031 -8.570312 3.882812 -8.570312 C 3.539062 -8.570312 3.222656 -8.425781 2.933594 -8.167969 C 2.558594 -7.851562 2.214844 -7.507812 1.898438 -7.160156 C 0.488281 -5.695312 -0.289062 -3.96875 -0.429688 -2.011719 C -0.460938 -1.265625 -0.460938 -0.488281 0.316406 0 C 0.574219 0.203125 0.863281 0.289062 1.148438 0.289062 C 1.582031 0.289062 2.011719 0.0585938 2.300781 -0.144531 C 3.507812 -0.921875 4.398438 -1.925781 4.945312 -3.132812 C 5.207031 -3.652344 5.492188 -3.882812 5.953125 -3.882812 C 6.125 -3.882812 6.328125 -3.855469 6.558594 -3.796875 C 7.015625 -3.679688 7.476562 -3.625 7.910156 -3.625 C 8.425781 -3.625 8.914062 -3.710938 9.433594 -3.855469 C 9.71875 -3.941406 10.613281 -4.226562 10.554688 -4.574219 C 10.554688 -4.574219 10.496094 -4.628906 10.324219 -4.660156 Z M 4.34375 -4.34375 C 4.34375 -4.257812 4.34375 -4.171875 4.3125 -4.082031 C 3.796875 -2.847656 3.019531 -1.292969 1.351562 -0.460938 C 1.207031 -0.375 1.0625 -0.34375 0.921875 -0.34375 C 0.746094 -0.34375 0.605469 -0.402344 0.488281 -0.519531 C 0.34375 -0.660156 0.257812 -0.921875 0.257812 -1.238281 C 0.289062 -3.078125 1.035156 -4.515625 2.1875 -6.066406 C 2.273438 -6.210938 2.359375 -6.269531 2.472656 -6.269531 C 2.675781 -6.269531 2.847656 -6.066406 2.992188 -5.894531 C 3.078125 -5.808594 3.132812 -5.75 3.191406 -5.695312 C 3.480469 -5.464844 3.765625 -5.175781 4.027344 -4.917969 C 4.113281 -4.832031 4.226562 -4.714844 4.371094 -4.542969 C 4.34375 -4.457031 4.34375 -4.398438 4.34375 -4.34375 Z M 4.601562 -5.492188 C 4.574219 -5.378906 4.542969 -5.261719 4.515625 -5.117188 L 4.484375 -4.976562 L 4.371094 -5.089844 C 4.257812 -5.207031 4.140625 -5.292969 3.996094 -5.40625 C 3.566406 -5.75 3.132812 -6.097656 3.335938 -6.699219 C 3.394531 -6.875 3.679688 -7.160156 3.96875 -7.160156 C 4.082031 -7.160156 4.199219 -7.132812 4.285156 -7.046875 C 4.832031 -6.527344 4.714844 -6.011719 4.601562 -5.492188 Z M 4.601562 -5.492188 "/></g></g></g><g fill="#a586a6" fill-opacity="1"><g transform="translate(172.331868, 216.685677)"><g/></g></g><g fill="#a586a6" fill-opacity="1"><g transform="translate(180.957429, 216.685677)"><g><path d="M 22.027344 -26.6875 C 21.570312 -26.140625 21.339844 -25.421875 21.050781 -24.789062 C 20.390625 -23.410156 19.757812 -22 19.066406 -20.621094 C 17.65625 -17.742188 12.335938 -5.664062 10.8125 -2.90625 L 10.210938 -1.8125 C 9.921875 -1.265625 9.402344 -1.035156 8.859375 -0.804688 C 6.902344 -0.0273438 4.628906 0.921875 2.53125 2.15625 C 2.445312 2.214844 2.328125 2.273438 2.214844 2.328125 C 1.78125 2.503906 1.410156 2.675781 1.582031 3.25 C 1.753906 3.738281 2.070312 3.765625 2.558594 3.796875 C 2.730469 3.824219 2.933594 3.824219 3.105469 3.882812 C 4.113281 4.199219 4.800781 4.660156 5.148438 5.261719 C 5.492188 5.839844 5.464844 6.527344 5.0625 7.332031 C 4.515625 8.398438 4.027344 9.578125 3.566406 10.8125 L 3.507812 10.957031 C 3.308594 11.503906 3.191406 11.90625 3.738281 12.222656 C 3.910156 12.335938 4.054688 12.394531 4.199219 12.394531 C 4.542969 12.394531 4.746094 12.078125 4.945312 11.820312 L 5.0625 11.675781 C 5.261719 11.386719 5.433594 11.042969 5.578125 10.640625 C 5.695312 10.265625 5.808594 9.863281 5.925781 9.460938 C 6.125 8.714844 6.355469 7.9375 6.699219 7.277344 C 7.679688 5.492188 8.714844 3.710938 9.71875 2.011719 C 10.210938 1.238281 10.667969 0.429688 11.128906 -0.34375 C 11.417969 -0.863281 11.789062 -1.179688 12.308594 -1.351562 C 14.582031 -2.128906 17.3125 -2.992188 20.476562 -3.507812 L 20.5625 -3.308594 C 20.503906 -3.25 20.359375 -2.730469 20.304688 -2.53125 C 20.273438 -2.414062 20.246094 -2.328125 20.246094 -2.273438 C 20.101562 -1.898438 19.957031 -1.523438 19.816406 -1.148438 L 19.238281 0.34375 C 18.664062 1.898438 18.03125 3.480469 17.515625 5.089844 L 17.199219 6.242188 C 16.851562 7.417969 16.480469 8.628906 16.21875 9.863281 L 16.21875 9.949219 C 15.933594 11.128906 16.046875 11.417969 16.132812 11.472656 C 16.164062 11.472656 16.191406 11.472656 16.277344 11.445312 C 16.621094 11.273438 16.824219 10.871094 16.96875 10.496094 C 17.65625 8.742188 18.289062 6.902344 18.894531 5.117188 C 19.816406 2.472656 20.761719 -0.289062 21.941406 -2.847656 C 22.230469 -3.539062 22.660156 -3.824219 23.46875 -3.941406 C 24.386719 -4.082031 25.335938 -4.140625 26.226562 -4.171875 C 26.371094 -4.171875 26.542969 -4.171875 26.6875 -4.171875 L 27.347656 -4.171875 C 27.808594 -4.171875 28.328125 -4.171875 28.757812 -4.285156 C 28.960938 -4.3125 29.332031 -4.515625 29.304688 -4.660156 C 29.304688 -4.6875 29.21875 -4.746094 29.191406 -4.746094 C 28.988281 -4.859375 28.644531 -4.890625 28.414062 -4.890625 L 28.242188 -4.890625 C 28.039062 -4.917969 27.839844 -4.917969 27.636719 -4.917969 C 27.378906 -4.917969 27.089844 -4.917969 26.832031 -4.890625 C 26.628906 -4.890625 26.429688 -4.890625 26.199219 -4.890625 C 25.796875 -4.890625 23.4375 -4.773438 23.292969 -4.746094 L 23.0625 -4.746094 C 22.949219 -5.207031 23.121094 -5.492188 23.265625 -5.75 C 23.292969 -5.839844 23.351562 -5.925781 23.378906 -5.980469 C 24.90625 -9.230469 26.746094 -12.308594 28.558594 -15.269531 L 29.074219 -16.164062 C 29.160156 -16.304688 29.277344 -16.421875 29.417969 -16.566406 C 29.648438 -16.851562 29.9375 -17.167969 29.878906 -17.457031 C 29.851562 -17.570312 29.765625 -17.6875 29.648438 -17.773438 C 29.5625 -17.859375 29.476562 -17.886719 29.390625 -17.886719 C 29.046875 -17.886719 28.757812 -17.425781 28.5 -17.054688 C 28.414062 -16.9375 28.328125 -16.792969 28.242188 -16.707031 C 25.855469 -13.660156 23.726562 -10.066406 21.597656 -5.347656 C 21.539062 -5.292969 21.511719 -5.207031 21.484375 -5.117188 C 21.339844 -4.746094 21.195312 -4.34375 20.675781 -4.285156 C 17.832031 -3.855469 15.097656 -3.019531 12.480469 -2.1875 L 12.195312 -2.097656 L 12.625 -2.960938 C 12.769531 -3.277344 12.914062 -3.539062 13.027344 -3.765625 L 13.113281 -3.941406 C 15.097656 -7.765625 21.109375 -20.820312 22.488281 -24.90625 C 22.632812 -25.277344 22.804688 -26.371094 22.71875 -26.859375 C 22.632812 -27.175781 22.429688 -27.234375 22.027344 -26.6875 Z M 8.945312 0.402344 L 6.011719 5.578125 L 5.925781 5.40625 C 5.0625 4.171875 4.171875 3.539062 2.789062 3.191406 L 2.472656 3.132812 L 2.703125 2.992188 C 4.917969 1.726562 6.585938 0.890625 8.65625 0.460938 Z M 8.945312 0.402344 "/></g></g></g><g fill="#a586a6" fill-opacity="1"><g transform="translate(211.146903, 216.685677)"><g><path d="M 10.324219 -4.660156 C 10.265625 -4.660156 10.210938 -4.660156 10.179688 -4.660156 C 9.894531 -4.660156 9.664062 -4.574219 9.433594 -4.457031 C 9.230469 -4.371094 9.058594 -4.285156 8.828125 -4.257812 C 8.367188 -4.199219 7.878906 -4.140625 7.304688 -4.140625 C 7.074219 -4.140625 6.84375 -4.171875 6.585938 -4.171875 C 6.183594 -4.199219 5.925781 -4.285156 5.78125 -4.457031 C 5.636719 -4.601562 5.609375 -4.832031 5.695312 -5.148438 C 5.839844 -5.722656 5.839844 -6.328125 5.664062 -6.960938 C 5.464844 -7.707031 5.117188 -8.136719 4.574219 -8.398438 C 4.3125 -8.511719 4.082031 -8.570312 3.882812 -8.570312 C 3.539062 -8.570312 3.222656 -8.425781 2.933594 -8.167969 C 2.558594 -7.851562 2.214844 -7.507812 1.898438 -7.160156 C 0.488281 -5.695312 -0.289062 -3.96875 -0.429688 -2.011719 C -0.460938 -1.265625 -0.460938 -0.488281 0.316406 0 C 0.574219 0.203125 0.863281 0.289062 1.148438 0.289062 C 1.582031 0.289062 2.011719 0.0585938 2.300781 -0.144531 C 3.507812 -0.921875 4.398438 -1.925781 4.945312 -3.132812 C 5.207031 -3.652344 5.492188 -3.882812 5.953125 -3.882812 C 6.125 -3.882812 6.328125 -3.855469 6.558594 -3.796875 C 7.015625 -3.679688 7.476562 -3.625 7.910156 -3.625 C 8.425781 -3.625 8.914062 -3.710938 9.433594 -3.855469 C 9.71875 -3.941406 10.613281 -4.226562 10.554688 -4.574219 C 10.554688 -4.574219 10.496094 -4.628906 10.324219 -4.660156 Z M 4.34375 -4.34375 C 4.34375 -4.257812 4.34375 -4.171875 4.3125 -4.082031 C 3.796875 -2.847656 3.019531 -1.292969 1.351562 -0.460938 C 1.207031 -0.375 1.0625 -0.34375 0.921875 -0.34375 C 0.746094 -0.34375 0.605469 -0.402344 0.488281 -0.519531 C 0.34375 -0.660156 0.257812 -0.921875 0.257812 -1.238281 C 0.289062 -3.078125 1.035156 -4.515625 2.1875 -6.066406 C 2.273438 -6.210938 2.359375 -6.269531 2.472656 -6.269531 C 2.675781 -6.269531 2.847656 -6.066406 2.992188 -5.894531 C 3.078125 -5.808594 3.132812 -5.75 3.191406 -5.695312 C 3.480469 -5.464844 3.765625 -5.175781 4.027344 -4.917969 C 4.113281 -4.832031 4.226562 -4.714844 4.371094 -4.542969 C 4.34375 -4.457031 4.34375 -4.398438 4.34375 -4.34375 Z M 4.601562 -5.492188 C 4.574219 -5.378906 4.542969 -5.261719 4.515625 -5.117188 L 4.484375 -4.976562 L 4.371094 -5.089844 C 4.257812 -5.207031 4.140625 -5.292969 3.996094 -5.40625 C 3.566406 -5.75 3.132812 -6.097656 3.335938 -6.699219 C 3.394531 -6.875 3.679688 -7.160156 3.96875 -7.160156 C 4.082031 -7.160156 4.199219 -7.132812 4.285156 -7.046875 C 4.832031 -6.527344 4.714844 -6.011719 4.601562 -5.492188 Z M 4.601562 -5.492188 "/></g></g></g><g fill="#a586a6" fill-opacity="1"><g transform="translate(220.893795, 216.685677)"><g><path d="M 16.191406 -4.515625 C 16.132812 -4.574219 16.074219 -4.601562 16.019531 -4.601562 C 15.960938 -4.601562 15.902344 -4.542969 15.847656 -4.457031 C 15.847656 -4.429688 15.816406 -4.398438 15.789062 -4.371094 C 14.839844 -3.335938 13.632812 -2.386719 11.964844 -1.378906 C 11.070312 -0.863281 10.121094 -0.34375 8.828125 -0.34375 C 8.195312 -0.34375 7.792969 -0.488281 7.535156 -0.746094 C 7.277344 -1.007812 7.160156 -1.410156 7.21875 -1.957031 C 7.304688 -2.703125 7.535156 -3.394531 7.792969 -4.054688 C 7.910156 -4.371094 8.023438 -4.660156 8.109375 -4.976562 C 8.136719 -5.089844 8.226562 -5.234375 8.28125 -5.347656 C 8.398438 -5.636719 8.542969 -5.925781 8.453125 -6.152344 C 8.398438 -6.296875 8.28125 -6.382812 8.109375 -6.5 C 7.964844 -6.585938 7.824219 -6.613281 7.734375 -6.613281 C 7.417969 -6.613281 7.304688 -6.242188 7.191406 -5.925781 C 7.132812 -5.808594 7.101562 -5.695312 7.074219 -5.578125 C 6.125 -3.59375 4.515625 -2.011719 2.097656 -0.746094 C 1.78125 -0.574219 1.351562 -0.375 0.921875 -0.375 C 0.863281 -0.375 0.835938 -0.375 0.777344 -0.375 C 0.632812 -0.375 0.546875 -0.429688 0.460938 -0.519531 C 0.316406 -0.691406 0.289062 -0.890625 0.316406 -1.0625 C 0.460938 -2.875 1.351562 -4.457031 2.214844 -5.953125 C 2.558594 -6.585938 2.875 -7.160156 3.164062 -7.765625 C 3.308594 -8.050781 3.394531 -8.28125 3.132812 -8.484375 C 2.992188 -8.597656 2.875 -8.65625 2.789062 -8.65625 C 2.617188 -8.65625 2.472656 -8.542969 2.328125 -8.367188 C 0.488281 -5.980469 -0.488281 -3.765625 -0.777344 -1.351562 C -0.835938 -0.746094 -0.632812 -0.289062 -0.144531 0.144531 C 0.113281 0.375 0.402344 0.488281 0.746094 0.488281 C 0.949219 0.488281 1.148438 0.429688 1.378906 0.375 C 2.1875 0.113281 2.960938 -0.289062 3.625 -0.835938 C 4.171875 -1.292969 4.714844 -1.726562 5.261719 -2.1875 L 6.066406 -2.90625 L 6.097656 -2.703125 C 6.242188 -1.523438 6.613281 -0.691406 7.160156 -0.203125 C 7.535156 0.113281 8.023438 0.289062 8.570312 0.289062 C 8.859375 0.289062 9.175781 0.230469 9.519531 0.144531 C 12.335938 -0.605469 14.378906 -2.328125 16.164062 -4.082031 C 16.25 -4.171875 16.335938 -4.257812 16.335938 -4.34375 C 16.304688 -4.398438 16.277344 -4.457031 16.191406 -4.515625 Z M 16.191406 -4.515625 "/></g></g></g></svg>