<svg xmlns="http://www.w3.org/2000/svg" xmlns:xlink="http://www.w3.org/1999/xlink" width="396" zoomAndPan="magnify" viewBox="0 0 297.12 419.249996" height="559" preserveAspectRatio="xMidYMid meet" version="1.0"><defs><g/></defs><path stroke-linecap="round" transform="matrix(0.746195, 0, 0, 0.746195, 168.145433, 260.585977)" fill="none" stroke-linejoin="miter" d="M 0.501341 0.502496 L 79.762799 0.502496 " stroke="#966737" stroke-width="1" stroke-opacity="1" stroke-miterlimit="4"/><path stroke-linecap="round" transform="matrix(0.746195, 0, 0, 0.746195, 168.145433, 280.585316)" fill="none" stroke-linejoin="miter" d="M 0.501341 0.498147 L 79.762799 0.498147 " stroke="#966737" stroke-width="1" stroke-opacity="1" stroke-miterlimit="4"/><path stroke-linecap="round" transform="matrix(0.746195, 0, 0, 0.746195, 64.701195, 260.585977)" fill="none" stroke-linejoin="miter" d="M 0.499901 0.502496 L 79.761359 0.502496 " stroke="#966737" stroke-width="1" stroke-opacity="1" stroke-miterlimit="4"/><path stroke-linecap="round" transform="matrix(0.746195, 0, 0, 0.746195, 64.701195, 280.585316)" fill="none" stroke-linejoin="miter" d="M 0.499901 0.498147 L 79.761359 0.498147 " stroke="#966737" stroke-width="1" stroke-opacity="1" stroke-miterlimit="4"/><g fill="#272727" fill-opacity="1"><g transform="translate(178.333128, 274.127691)"><g><path d="M 2.921875 -2.734375 C 3.335938 -2.734375 3.648438 -2.609375 3.859375 -2.359375 C 4.066406 -2.117188 4.171875 -1.832031 4.171875 -1.5 C 4.171875 -1.207031 4.082031 -0.9375 3.90625 -0.6875 C 3.726562 -0.4375 3.484375 -0.238281 3.171875 -0.09375 C 2.867188 0.0507812 2.535156 0.125 2.171875 0.125 C 1.609375 0.125 1.160156 -0.0546875 0.828125 -0.421875 C 0.503906 -0.796875 0.34375 -1.304688 0.34375 -1.953125 C 0.34375 -2.546875 0.484375 -3.128906 0.765625 -3.703125 C 1.046875 -4.273438 1.445312 -4.785156 1.96875 -5.234375 C 2.488281 -5.679688 3.09375 -6.023438 3.78125 -6.265625 C 3.8125 -6.265625 3.832031 -6.25 3.84375 -6.21875 C 3.851562 -6.1875 3.847656 -6.164062 3.828125 -6.15625 C 3.285156 -5.882812 2.828125 -5.53125 2.453125 -5.09375 C 2.078125 -4.65625 1.789062 -4.175781 1.59375 -3.65625 C 1.40625 -3.132812 1.3125 -2.613281 1.3125 -2.09375 C 1.3125 -1.726562 1.359375 -1.394531 1.453125 -1.09375 C 1.546875 -0.789062 1.675781 -0.550781 1.84375 -0.375 C 2.019531 -0.195312 2.21875 -0.109375 2.4375 -0.109375 C 2.664062 -0.109375 2.847656 -0.207031 2.984375 -0.40625 C 3.128906 -0.601562 3.203125 -0.878906 3.203125 -1.234375 C 3.203125 -1.566406 3.132812 -1.832031 3 -2.03125 C 2.863281 -2.226562 2.671875 -2.328125 2.421875 -2.328125 C 2.304688 -2.328125 2.195312 -2.304688 2.09375 -2.265625 C 1.988281 -2.222656 1.875 -2.15625 1.75 -2.0625 C 1.738281 -2.0625 1.726562 -2.0625 1.71875 -2.0625 C 1.695312 -2.0625 1.675781 -2.066406 1.65625 -2.078125 C 1.632812 -2.097656 1.628906 -2.113281 1.640625 -2.125 C 2.003906 -2.53125 2.429688 -2.734375 2.921875 -2.734375 Z M 2.921875 -2.734375 "/></g></g></g><g fill="#272727" fill-opacity="1"><g transform="translate(184.157962, 274.127691)"><g><path d="M 1 -2.5625 C 0.820312 -2.5625 0.679688 -2.613281 0.578125 -2.71875 C 0.472656 -2.820312 0.421875 -2.960938 0.421875 -3.140625 C 0.421875 -3.296875 0.472656 -3.425781 0.578125 -3.53125 C 0.679688 -3.632812 0.820312 -3.6875 1 -3.6875 C 1.175781 -3.6875 1.3125 -3.632812 1.40625 -3.53125 C 1.5 -3.4375 1.546875 -3.304688 1.546875 -3.140625 C 1.546875 -2.953125 1.5 -2.804688 1.40625 -2.703125 C 1.3125 -2.609375 1.175781 -2.5625 1 -2.5625 Z M 1 0.109375 C 0.820312 0.109375 0.679688 0.0546875 0.578125 -0.046875 C 0.472656 -0.148438 0.421875 -0.289062 0.421875 -0.46875 C 0.421875 -0.632812 0.472656 -0.765625 0.578125 -0.859375 C 0.679688 -0.960938 0.820312 -1.015625 1 -1.015625 C 1.175781 -1.015625 1.3125 -0.96875 1.40625 -0.875 C 1.5 -0.78125 1.546875 -0.644531 1.546875 -0.46875 C 1.546875 -0.289062 1.5 -0.148438 1.40625 -0.046875 C 1.3125 0.0546875 1.175781 0.109375 1 0.109375 Z M 1 0.109375 "/></g></g></g><g fill="#272727" fill-opacity="1"><g transform="translate(187.539918, 274.127691)"><g><path d="M 2.265625 0.125 C 1.878906 0.125 1.53125 0.0390625 1.21875 -0.125 C 0.914062 -0.300781 0.675781 -0.535156 0.5 -0.828125 C 0.332031 -1.128906 0.25 -1.46875 0.25 -1.84375 C 0.25 -2.21875 0.332031 -2.550781 0.5 -2.84375 C 0.675781 -3.132812 0.914062 -3.363281 1.21875 -3.53125 C 1.53125 -3.695312 1.878906 -3.78125 2.265625 -3.78125 C 2.660156 -3.78125 3.007812 -3.695312 3.3125 -3.53125 C 3.613281 -3.363281 3.847656 -3.128906 4.015625 -2.828125 C 4.179688 -2.535156 4.265625 -2.203125 4.265625 -1.828125 C 4.265625 -1.453125 4.179688 -1.113281 4.015625 -0.8125 C 3.847656 -0.519531 3.609375 -0.289062 3.296875 -0.125 C 2.992188 0.0390625 2.648438 0.125 2.265625 0.125 Z M 2.375 -0.078125 C 2.65625 -0.078125 2.867188 -0.21875 3.015625 -0.5 C 3.171875 -0.78125 3.25 -1.175781 3.25 -1.6875 C 3.25 -2.332031 3.148438 -2.804688 2.953125 -3.109375 C 2.753906 -3.421875 2.503906 -3.578125 2.203125 -3.578125 C 1.898438 -3.578125 1.664062 -3.429688 1.5 -3.140625 C 1.34375 -2.847656 1.265625 -2.453125 1.265625 -1.953125 C 1.265625 -1.390625 1.363281 -0.9375 1.5625 -0.59375 C 1.757812 -0.25 2.03125 -0.078125 2.375 -0.078125 Z M 2.375 -0.078125 "/></g></g></g><g fill="#272727" fill-opacity="1"><g transform="translate(193.478376, 274.127691)"><g><path d="M 2.265625 0.125 C 1.878906 0.125 1.53125 0.0390625 1.21875 -0.125 C 0.914062 -0.300781 0.675781 -0.535156 0.5 -0.828125 C 0.332031 -1.128906 0.25 -1.46875 0.25 -1.84375 C 0.25 -2.21875 0.332031 -2.550781 0.5 -2.84375 C 0.675781 -3.132812 0.914062 -3.363281 1.21875 -3.53125 C 1.53125 -3.695312 1.878906 -3.78125 2.265625 -3.78125 C 2.660156 -3.78125 3.007812 -3.695312 3.3125 -3.53125 C 3.613281 -3.363281 3.847656 -3.128906 4.015625 -2.828125 C 4.179688 -2.535156 4.265625 -2.203125 4.265625 -1.828125 C 4.265625 -1.453125 4.179688 -1.113281 4.015625 -0.8125 C 3.847656 -0.519531 3.609375 -0.289062 3.296875 -0.125 C 2.992188 0.0390625 2.648438 0.125 2.265625 0.125 Z M 2.375 -0.078125 C 2.65625 -0.078125 2.867188 -0.21875 3.015625 -0.5 C 3.171875 -0.78125 3.25 -1.175781 3.25 -1.6875 C 3.25 -2.332031 3.148438 -2.804688 2.953125 -3.109375 C 2.753906 -3.421875 2.503906 -3.578125 2.203125 -3.578125 C 1.898438 -3.578125 1.664062 -3.429688 1.5 -3.140625 C 1.34375 -2.847656 1.265625 -2.453125 1.265625 -1.953125 C 1.265625 -1.390625 1.363281 -0.9375 1.5625 -0.59375 C 1.757812 -0.25 2.03125 -0.078125 2.375 -0.078125 Z M 2.375 -0.078125 "/></g></g></g><g fill="#272727" fill-opacity="1"><g transform="translate(199.416833, 274.127691)"><g/></g></g><g fill="#272727" fill-opacity="1"><g transform="translate(203.054438, 274.127691)"><g><path d="M 2.046875 -0.8125 C 2.046875 -0.601562 2.066406 -0.453125 2.109375 -0.359375 C 2.148438 -0.273438 2.234375 -0.210938 2.359375 -0.171875 C 2.484375 -0.128906 2.679688 -0.109375 2.953125 -0.109375 C 2.972656 -0.109375 2.984375 -0.0859375 2.984375 -0.046875 C 2.984375 -0.015625 2.972656 0 2.953125 0 C 2.691406 0 2.488281 -0.00390625 2.34375 -0.015625 L 0.828125 -0.015625 C 0.703125 -0.00390625 0.535156 0 0.328125 0 C 0.304688 0 0.296875 -0.015625 0.296875 -0.046875 C 0.296875 -0.0859375 0.304688 -0.109375 0.328125 -0.109375 C 0.523438 -0.109375 0.671875 -0.125 0.765625 -0.15625 C 0.859375 -0.1875 0.921875 -0.25 0.953125 -0.34375 C 0.984375 -0.4375 1 -0.578125 1 -0.765625 L 1 -5.15625 C 1 -5.34375 0.984375 -5.476562 0.953125 -5.5625 C 0.921875 -5.65625 0.851562 -5.71875 0.75 -5.75 C 0.65625 -5.78125 0.515625 -5.796875 0.328125 -5.796875 C 0.304688 -5.796875 0.296875 -5.816406 0.296875 -5.859375 C 0.296875 -5.898438 0.304688 -5.921875 0.328125 -5.921875 L 0.828125 -5.90625 C 1.117188 -5.894531 1.347656 -5.890625 1.515625 -5.890625 C 1.671875 -5.890625 1.851562 -5.898438 2.0625 -5.921875 C 2.132812 -5.921875 2.234375 -5.925781 2.359375 -5.9375 C 2.492188 -5.945312 2.640625 -5.953125 2.796875 -5.953125 C 3.441406 -5.953125 3.953125 -5.816406 4.328125 -5.546875 C 4.703125 -5.273438 4.890625 -4.859375 4.890625 -4.296875 C 4.890625 -3.910156 4.785156 -3.578125 4.578125 -3.296875 C 4.378906 -3.023438 4.117188 -2.820312 3.796875 -2.6875 C 3.484375 -2.550781 3.160156 -2.484375 2.828125 -2.484375 C 2.648438 -2.484375 2.5 -2.5 2.375 -2.53125 C 2.363281 -2.53125 2.359375 -2.546875 2.359375 -2.578125 C 2.359375 -2.597656 2.363281 -2.613281 2.375 -2.625 C 2.382812 -2.644531 2.394531 -2.65625 2.40625 -2.65625 C 2.5 -2.625 2.609375 -2.609375 2.734375 -2.609375 C 3.015625 -2.609375 3.25 -2.742188 3.4375 -3.015625 C 3.632812 -3.285156 3.734375 -3.671875 3.734375 -4.171875 C 3.734375 -4.671875 3.628906 -5.054688 3.421875 -5.328125 C 3.210938 -5.597656 2.90625 -5.734375 2.5 -5.734375 C 2.320312 -5.734375 2.203125 -5.691406 2.140625 -5.609375 C 2.078125 -5.523438 2.046875 -5.363281 2.046875 -5.125 Z M 2.046875 -0.8125 "/></g></g></g><g fill="#272727" fill-opacity="1"><g transform="translate(209.712505, 274.127691)"><g><path d="M 7.890625 -0.109375 C 7.898438 -0.109375 7.90625 -0.0859375 7.90625 -0.046875 C 7.90625 -0.015625 7.898438 0 7.890625 0 C 7.671875 0 7.5 -0.00390625 7.375 -0.015625 L 5.96875 -0.015625 C 5.84375 -0.00390625 5.675781 0 5.46875 0 C 5.445312 0 5.4375 -0.015625 5.4375 -0.046875 C 5.4375 -0.0859375 5.445312 -0.109375 5.46875 -0.109375 C 5.738281 -0.109375 5.921875 -0.140625 6.015625 -0.203125 C 6.109375 -0.265625 6.15625 -0.398438 6.15625 -0.609375 L 6.140625 -0.765625 L 5.953125 -4.640625 L 4 -0.0625 C 3.988281 -0.0390625 3.960938 -0.03125 3.921875 -0.03125 C 3.878906 -0.03125 3.851562 -0.0390625 3.84375 -0.0625 L 1.453125 -4.625 L 1.375 -1.203125 C 1.363281 -0.859375 1.429688 -0.585938 1.578125 -0.390625 C 1.722656 -0.203125 1.921875 -0.109375 2.171875 -0.109375 C 2.191406 -0.109375 2.203125 -0.0859375 2.203125 -0.046875 C 2.203125 -0.015625 2.191406 0 2.171875 0 C 2.003906 0 1.875 -0.00390625 1.78125 -0.015625 L 0.65625 -0.015625 C 0.5625 -0.00390625 0.425781 0 0.25 0 C 0.238281 0 0.234375 -0.015625 0.234375 -0.046875 C 0.234375 -0.0859375 0.238281 -0.109375 0.25 -0.109375 C 0.507812 -0.109375 0.710938 -0.207031 0.859375 -0.40625 C 1.015625 -0.601562 1.097656 -0.867188 1.109375 -1.203125 L 1.1875 -5.125 C 1.0625 -5.363281 0.929688 -5.535156 0.796875 -5.640625 C 0.660156 -5.742188 0.503906 -5.796875 0.328125 -5.796875 C 0.304688 -5.796875 0.296875 -5.816406 0.296875 -5.859375 C 0.296875 -5.898438 0.304688 -5.921875 0.328125 -5.921875 L 0.765625 -5.90625 C 0.859375 -5.90625 0.972656 -5.90625 1.109375 -5.90625 L 1.609375 -5.90625 C 1.660156 -5.914062 1.734375 -5.921875 1.828125 -5.921875 C 1.910156 -5.921875 1.972656 -5.890625 2.015625 -5.828125 C 2.054688 -5.773438 2.140625 -5.640625 2.265625 -5.421875 L 4.328125 -1.546875 L 6.125 -5.6875 C 6.164062 -5.769531 6.207031 -5.828125 6.25 -5.859375 C 6.289062 -5.898438 6.34375 -5.921875 6.40625 -5.921875 C 6.46875 -5.921875 6.535156 -5.914062 6.609375 -5.90625 C 6.679688 -5.90625 6.765625 -5.90625 6.859375 -5.90625 L 7.421875 -5.90625 C 7.503906 -5.914062 7.628906 -5.921875 7.796875 -5.921875 C 7.816406 -5.921875 7.828125 -5.898438 7.828125 -5.859375 C 7.828125 -5.816406 7.816406 -5.796875 7.796875 -5.796875 C 7.492188 -5.796875 7.273438 -5.734375 7.140625 -5.609375 C 7.015625 -5.492188 6.957031 -5.3125 6.96875 -5.0625 L 7.203125 -0.765625 C 7.210938 -0.566406 7.234375 -0.421875 7.265625 -0.328125 C 7.296875 -0.242188 7.359375 -0.1875 7.453125 -0.15625 C 7.546875 -0.125 7.691406 -0.109375 7.890625 -0.109375 Z M 7.890625 -0.109375 "/></g></g></g><g fill="#272727" fill-opacity="1"><g transform="translate(72.089742, 274.127691)"><g><path d="M 1.640625 -4.96875 C 1.640625 -4.738281 1.695312 -4.535156 1.8125 -4.359375 C 1.9375 -4.179688 2.082031 -4.023438 2.25 -3.890625 C 2.425781 -3.753906 2.65625 -3.59375 2.9375 -3.40625 C 3.257812 -3.207031 3.515625 -3.03125 3.703125 -2.875 C 3.890625 -2.726562 4.050781 -2.546875 4.1875 -2.328125 C 4.320312 -2.109375 4.390625 -1.859375 4.390625 -1.578125 C 4.390625 -1.242188 4.300781 -0.945312 4.125 -0.6875 C 3.945312 -0.4375 3.703125 -0.238281 3.390625 -0.09375 C 3.078125 0.0390625 2.726562 0.109375 2.34375 0.109375 C 2.050781 0.109375 1.75 0.0703125 1.4375 0 C 1.132812 -0.0820312 0.929688 -0.171875 0.828125 -0.265625 C 0.796875 -0.285156 0.769531 -0.304688 0.75 -0.328125 C 0.738281 -0.359375 0.734375 -0.394531 0.734375 -0.4375 L 0.703125 -1.953125 C 0.703125 -1.984375 0.71875 -2 0.75 -2 C 0.78125 -2 0.800781 -1.988281 0.8125 -1.96875 C 1 -1.582031 1.160156 -1.269531 1.296875 -1.03125 C 1.441406 -0.789062 1.625 -0.578125 1.84375 -0.390625 C 2.0625 -0.210938 2.304688 -0.125 2.578125 -0.125 C 2.835938 -0.125 3.046875 -0.191406 3.203125 -0.328125 C 3.367188 -0.460938 3.453125 -0.691406 3.453125 -1.015625 C 3.453125 -1.296875 3.390625 -1.539062 3.265625 -1.75 C 3.148438 -1.957031 3.003906 -2.132812 2.828125 -2.28125 C 2.648438 -2.425781 2.40625 -2.597656 2.09375 -2.796875 C 1.789062 -2.992188 1.554688 -3.160156 1.390625 -3.296875 C 1.222656 -3.441406 1.078125 -3.609375 0.953125 -3.796875 C 0.835938 -3.992188 0.78125 -4.226562 0.78125 -4.5 C 0.78125 -4.832031 0.875 -5.113281 1.0625 -5.34375 C 1.257812 -5.570312 1.507812 -5.738281 1.8125 -5.84375 C 2.113281 -5.957031 2.429688 -6.015625 2.765625 -6.015625 C 2.984375 -6.015625 3.207031 -5.992188 3.4375 -5.953125 C 3.664062 -5.921875 3.847656 -5.875 3.984375 -5.8125 C 4.046875 -5.789062 4.082031 -5.765625 4.09375 -5.734375 C 4.113281 -5.703125 4.125 -5.664062 4.125 -5.625 L 4.125 -4.234375 C 4.125 -4.210938 4.109375 -4.195312 4.078125 -4.1875 C 4.046875 -4.175781 4.03125 -4.179688 4.03125 -4.203125 L 3.953125 -4.390625 C 3.796875 -4.785156 3.609375 -5.117188 3.390625 -5.390625 C 3.179688 -5.671875 2.890625 -5.8125 2.515625 -5.8125 C 2.253906 -5.8125 2.039062 -5.738281 1.875 -5.59375 C 1.71875 -5.445312 1.640625 -5.238281 1.640625 -4.96875 Z M 1.640625 -4.96875 "/></g></g></g><g fill="#272727" fill-opacity="1"><g transform="translate(78.388004, 274.127691)"><g><path d="M 6.796875 -0.109375 C 6.828125 -0.109375 6.84375 -0.0859375 6.84375 -0.046875 C 6.84375 -0.015625 6.828125 0 6.796875 0 C 6.660156 0 6.460938 -0.00390625 6.203125 -0.015625 C 5.921875 -0.0234375 5.722656 -0.03125 5.609375 -0.03125 C 5.453125 -0.03125 5.257812 -0.0234375 5.03125 -0.015625 C 4.8125 -0.00390625 4.640625 0 4.515625 0 C 4.492188 0 4.484375 -0.015625 4.484375 -0.046875 C 4.484375 -0.0859375 4.492188 -0.109375 4.515625 -0.109375 C 4.679688 -0.109375 4.800781 -0.125 4.875 -0.15625 C 4.945312 -0.195312 4.984375 -0.257812 4.984375 -0.34375 C 4.984375 -0.457031 4.921875 -0.640625 4.796875 -0.890625 L 4.140625 -2.171875 L 1.8125 -2.171875 L 1.453125 -1.34375 C 1.367188 -1.15625 1.328125 -0.984375 1.328125 -0.828125 C 1.328125 -0.609375 1.40625 -0.429688 1.5625 -0.296875 C 1.726562 -0.171875 1.945312 -0.109375 2.21875 -0.109375 C 2.25 -0.109375 2.265625 -0.0859375 2.265625 -0.046875 C 2.265625 -0.015625 2.25 0 2.21875 0 C 2.101562 0 1.9375 -0.00390625 1.71875 -0.015625 C 1.476562 -0.0234375 1.269531 -0.03125 1.09375 -0.03125 C 0.925781 -0.03125 0.722656 -0.0234375 0.484375 -0.015625 C 0.265625 -0.00390625 0.09375 0 -0.03125 0 C -0.0625 0 -0.078125 -0.015625 -0.078125 -0.046875 C -0.078125 -0.0859375 -0.0625 -0.109375 -0.03125 -0.109375 C 0.144531 -0.109375 0.289062 -0.144531 0.40625 -0.21875 C 0.53125 -0.289062 0.648438 -0.421875 0.765625 -0.609375 C 0.890625 -0.796875 1.03125 -1.070312 1.1875 -1.4375 L 3.25 -5.953125 C 3.257812 -5.972656 3.285156 -5.984375 3.328125 -5.984375 C 3.378906 -5.984375 3.410156 -5.972656 3.421875 -5.953125 L 5.78125 -1.296875 C 6 -0.847656 6.179688 -0.535156 6.328125 -0.359375 C 6.472656 -0.191406 6.628906 -0.109375 6.796875 -0.109375 Z M 1.9375 -2.4375 L 4 -2.4375 L 2.921875 -4.59375 Z M 1.9375 -2.4375 "/></g></g></g><g fill="#272727" fill-opacity="1"><g transform="translate(86.589443, 274.127691)"><g><path d="M 3.40625 -3.328125 C 3.9375 -3.265625 4.359375 -3.085938 4.671875 -2.796875 C 4.984375 -2.503906 5.140625 -2.144531 5.140625 -1.71875 C 5.140625 -1.382812 5.046875 -1.082031 4.859375 -0.8125 C 4.671875 -0.550781 4.40625 -0.34375 4.0625 -0.1875 C 3.726562 -0.0390625 3.359375 0.03125 2.953125 0.03125 C 2.773438 0.03125 2.570312 0.0234375 2.34375 0.015625 C 2.257812 0.00390625 2.148438 0 2.015625 0 C 1.890625 -0.0078125 1.75 -0.015625 1.59375 -0.015625 L 0.90625 -0.015625 C 0.769531 -0.00390625 0.597656 0 0.390625 0 C 0.367188 0 0.359375 -0.015625 0.359375 -0.046875 C 0.359375 -0.0859375 0.367188 -0.109375 0.390625 -0.109375 C 0.566406 -0.109375 0.703125 -0.125 0.796875 -0.15625 C 0.898438 -0.195312 0.96875 -0.265625 1 -0.359375 C 1.039062 -0.453125 1.0625 -0.585938 1.0625 -0.765625 L 1.0625 -5.15625 C 1.0625 -5.414062 1.019531 -5.585938 0.9375 -5.671875 C 0.851562 -5.753906 0.671875 -5.796875 0.390625 -5.796875 C 0.378906 -5.796875 0.375 -5.816406 0.375 -5.859375 C 0.375 -5.898438 0.378906 -5.921875 0.390625 -5.921875 L 0.90625 -5.90625 C 1.1875 -5.894531 1.414062 -5.890625 1.59375 -5.890625 C 1.769531 -5.890625 1.953125 -5.898438 2.140625 -5.921875 C 2.203125 -5.921875 2.296875 -5.925781 2.421875 -5.9375 C 2.546875 -5.945312 2.65625 -5.953125 2.75 -5.953125 C 3.320312 -5.953125 3.765625 -5.847656 4.078125 -5.640625 C 4.398438 -5.429688 4.5625 -5.125 4.5625 -4.71875 C 4.5625 -4.414062 4.460938 -4.140625 4.265625 -3.890625 C 4.066406 -3.648438 3.78125 -3.460938 3.40625 -3.328125 Z M 2.609375 -5.734375 C 2.429688 -5.734375 2.304688 -5.691406 2.234375 -5.609375 C 2.160156 -5.523438 2.125 -5.363281 2.125 -5.125 L 2.125 -3.328125 L 2.515625 -3.328125 C 2.835938 -3.328125 3.085938 -3.445312 3.265625 -3.6875 C 3.441406 -3.9375 3.53125 -4.253906 3.53125 -4.640625 C 3.53125 -4.992188 3.453125 -5.265625 3.296875 -5.453125 C 3.140625 -5.640625 2.910156 -5.734375 2.609375 -5.734375 Z M 2.796875 -0.203125 C 3.617188 -0.203125 4.03125 -0.628906 4.03125 -1.484375 C 4.03125 -1.972656 3.910156 -2.359375 3.671875 -2.640625 C 3.441406 -2.921875 3.09375 -3.0625 2.625 -3.0625 C 2.4375 -3.0625 2.269531 -3.054688 2.125 -3.046875 L 2.125 -0.765625 C 2.125 -0.554688 2.164062 -0.410156 2.25 -0.328125 C 2.332031 -0.242188 2.515625 -0.203125 2.796875 -0.203125 Z M 2.796875 -0.203125 "/></g></g></g><g fill="#272727" fill-opacity="1"><g transform="translate(93.645185, 274.127691)"><g><path d="M 6.796875 -0.109375 C 6.828125 -0.109375 6.84375 -0.0859375 6.84375 -0.046875 C 6.84375 -0.015625 6.828125 0 6.796875 0 C 6.660156 0 6.460938 -0.00390625 6.203125 -0.015625 C 5.921875 -0.0234375 5.722656 -0.03125 5.609375 -0.03125 C 5.453125 -0.03125 5.257812 -0.0234375 5.03125 -0.015625 C 4.8125 -0.00390625 4.640625 0 4.515625 0 C 4.492188 0 4.484375 -0.015625 4.484375 -0.046875 C 4.484375 -0.0859375 4.492188 -0.109375 4.515625 -0.109375 C 4.679688 -0.109375 4.800781 -0.125 4.875 -0.15625 C 4.945312 -0.195312 4.984375 -0.257812 4.984375 -0.34375 C 4.984375 -0.457031 4.921875 -0.640625 4.796875 -0.890625 L 4.140625 -2.171875 L 1.8125 -2.171875 L 1.453125 -1.34375 C 1.367188 -1.15625 1.328125 -0.984375 1.328125 -0.828125 C 1.328125 -0.609375 1.40625 -0.429688 1.5625 -0.296875 C 1.726562 -0.171875 1.945312 -0.109375 2.21875 -0.109375 C 2.25 -0.109375 2.265625 -0.0859375 2.265625 -0.046875 C 2.265625 -0.015625 2.25 0 2.21875 0 C 2.101562 0 1.9375 -0.00390625 1.71875 -0.015625 C 1.476562 -0.0234375 1.269531 -0.03125 1.09375 -0.03125 C 0.925781 -0.03125 0.722656 -0.0234375 0.484375 -0.015625 C 0.265625 -0.00390625 0.09375 0 -0.03125 0 C -0.0625 0 -0.078125 -0.015625 -0.078125 -0.046875 C -0.078125 -0.0859375 -0.0625 -0.109375 -0.03125 -0.109375 C 0.144531 -0.109375 0.289062 -0.144531 0.40625 -0.21875 C 0.53125 -0.289062 0.648438 -0.421875 0.765625 -0.609375 C 0.890625 -0.796875 1.03125 -1.070312 1.1875 -1.4375 L 3.25 -5.953125 C 3.257812 -5.972656 3.285156 -5.984375 3.328125 -5.984375 C 3.378906 -5.984375 3.410156 -5.972656 3.421875 -5.953125 L 5.78125 -1.296875 C 6 -0.847656 6.179688 -0.535156 6.328125 -0.359375 C 6.472656 -0.191406 6.628906 -0.109375 6.796875 -0.109375 Z M 1.9375 -2.4375 L 4 -2.4375 L 2.921875 -4.59375 Z M 1.9375 -2.4375 "/></g></g></g><g fill="#272727" fill-opacity="1"><g transform="translate(101.846624, 274.127691)"><g><path d="M 3.09375 0.03125 C 2.882812 0.03125 2.644531 0.0234375 2.375 0.015625 C 2.269531 0.00390625 2.140625 0 1.984375 0 C 1.835938 -0.0078125 1.675781 -0.015625 1.5 -0.015625 L 0.796875 -0.015625 C 0.671875 -0.00390625 0.5 0 0.28125 0 C 0.269531 0 0.265625 -0.015625 0.265625 -0.046875 C 0.265625 -0.0859375 0.269531 -0.109375 0.28125 -0.109375 C 0.488281 -0.109375 0.640625 -0.125 0.734375 -0.15625 C 0.828125 -0.1875 0.890625 -0.25 0.921875 -0.34375 C 0.953125 -0.4375 0.96875 -0.578125 0.96875 -0.765625 L 0.96875 -5.15625 C 0.96875 -5.34375 0.953125 -5.476562 0.921875 -5.5625 C 0.890625 -5.65625 0.828125 -5.71875 0.734375 -5.75 C 0.640625 -5.78125 0.492188 -5.796875 0.296875 -5.796875 C 0.285156 -5.796875 0.28125 -5.816406 0.28125 -5.859375 C 0.28125 -5.898438 0.285156 -5.921875 0.296875 -5.921875 L 0.8125 -5.90625 C 1.09375 -5.894531 1.320312 -5.890625 1.5 -5.890625 C 1.757812 -5.890625 2.023438 -5.898438 2.296875 -5.921875 C 2.617188 -5.929688 2.835938 -5.9375 2.953125 -5.9375 C 3.585938 -5.9375 4.148438 -5.804688 4.640625 -5.546875 C 5.140625 -5.296875 5.523438 -4.953125 5.796875 -4.515625 C 6.078125 -4.085938 6.21875 -3.601562 6.21875 -3.0625 C 6.21875 -2.445312 6.078125 -1.90625 5.796875 -1.4375 C 5.515625 -0.96875 5.132812 -0.601562 4.65625 -0.34375 C 4.175781 -0.09375 3.65625 0.03125 3.09375 0.03125 Z M 2.984375 -0.1875 C 3.390625 -0.1875 3.75 -0.285156 4.0625 -0.484375 C 4.375 -0.691406 4.613281 -0.992188 4.78125 -1.390625 C 4.957031 -1.796875 5.046875 -2.28125 5.046875 -2.84375 C 5.046875 -3.382812 4.960938 -3.875 4.796875 -4.3125 C 4.628906 -4.75 4.394531 -5.09375 4.09375 -5.34375 C 3.789062 -5.601562 3.441406 -5.734375 3.046875 -5.734375 C 2.660156 -5.734375 2.394531 -5.691406 2.25 -5.609375 C 2.101562 -5.535156 2.03125 -5.375 2.03125 -5.125 L 2.03125 -0.875 C 2.03125 -0.625 2.09375 -0.445312 2.21875 -0.34375 C 2.351562 -0.238281 2.609375 -0.1875 2.984375 -0.1875 Z M 2.984375 -0.1875 "/></g></g></g><g fill="#272727" fill-opacity="1"><g transform="translate(109.943908, 274.127691)"><g><path d="M 3.46875 0.109375 C 2.875 0.109375 2.347656 -0.0234375 1.890625 -0.296875 C 1.441406 -0.566406 1.09375 -0.9375 0.84375 -1.40625 C 0.59375 -1.882812 0.46875 -2.398438 0.46875 -2.953125 C 0.46875 -3.597656 0.628906 -4.15625 0.953125 -4.625 C 1.285156 -5.09375 1.707031 -5.441406 2.21875 -5.671875 C 2.726562 -5.898438 3.253906 -6.015625 3.796875 -6.015625 C 4.398438 -6.015625 4.925781 -5.875 5.375 -5.59375 C 5.832031 -5.3125 6.179688 -4.941406 6.421875 -4.484375 C 6.671875 -4.023438 6.796875 -3.535156 6.796875 -3.015625 C 6.796875 -2.441406 6.640625 -1.914062 6.328125 -1.4375 C 6.023438 -0.957031 5.617188 -0.578125 5.109375 -0.296875 C 4.609375 -0.0234375 4.0625 0.109375 3.46875 0.109375 Z M 3.78125 -0.125 C 4.132812 -0.125 4.453125 -0.222656 4.734375 -0.421875 C 5.015625 -0.628906 5.234375 -0.929688 5.390625 -1.328125 C 5.546875 -1.722656 5.625 -2.195312 5.625 -2.75 C 5.625 -3.320312 5.535156 -3.835938 5.359375 -4.296875 C 5.179688 -4.753906 4.925781 -5.113281 4.59375 -5.375 C 4.257812 -5.632812 3.867188 -5.765625 3.421875 -5.765625 C 2.847656 -5.765625 2.40625 -5.546875 2.09375 -5.109375 C 1.78125 -4.679688 1.625 -4.078125 1.625 -3.296875 C 1.625 -2.691406 1.71875 -2.144531 1.90625 -1.65625 C 2.09375 -1.175781 2.347656 -0.800781 2.671875 -0.53125 C 2.992188 -0.257812 3.363281 -0.125 3.78125 -0.125 Z M 3.78125 -0.125 "/></g></g></g></svg>