<svg xmlns="http://www.w3.org/2000/svg" xmlns:xlink="http://www.w3.org/1999/xlink" width="396" zoomAndPan="magnify" viewBox="0 0 297.12 419.249996" height="559" preserveAspectRatio="xMidYMid meet" version="1.0"><defs><g/></defs><g fill="#272727" fill-opacity="1"><g transform="translate(84.643703, 89.665654)"><g><path d="M 1.9375 -6.59375 C 1.9375 -6.257812 2.015625 -5.96875 2.171875 -5.71875 C 2.335938 -5.46875 2.535156 -5.253906 2.765625 -5.078125 C 3.003906 -4.910156 3.332031 -4.703125 3.75 -4.453125 C 4.1875 -4.191406 4.53125 -3.96875 4.78125 -3.78125 C 5.03125 -3.59375 5.242188 -3.351562 5.421875 -3.0625 C 5.597656 -2.78125 5.6875 -2.445312 5.6875 -2.0625 C 5.6875 -1.644531 5.578125 -1.265625 5.359375 -0.921875 C 5.148438 -0.585938 4.84375 -0.320312 4.4375 -0.125 C 4.039062 0.0625 3.566406 0.15625 3.015625 0.15625 C 2.316406 0.15625 1.695312 0 1.15625 -0.3125 C 1.113281 -0.332031 1.082031 -0.359375 1.0625 -0.390625 C 1.050781 -0.429688 1.039062 -0.484375 1.03125 -0.546875 L 0.890625 -2.359375 C 0.878906 -2.390625 0.894531 -2.410156 0.9375 -2.421875 C 0.988281 -2.429688 1.019531 -2.421875 1.03125 -2.390625 C 1.195312 -1.753906 1.460938 -1.207031 1.828125 -0.75 C 2.203125 -0.300781 2.695312 -0.078125 3.3125 -0.078125 C 3.726562 -0.078125 4.078125 -0.1875 4.359375 -0.40625 C 4.648438 -0.632812 4.796875 -1.003906 4.796875 -1.515625 C 4.796875 -1.898438 4.707031 -2.226562 4.53125 -2.5 C 4.363281 -2.78125 4.15625 -3.015625 3.90625 -3.203125 C 3.664062 -3.398438 3.332031 -3.625 2.90625 -3.875 C 2.488281 -4.144531 2.160156 -4.367188 1.921875 -4.546875 C 1.691406 -4.722656 1.492188 -4.945312 1.328125 -5.21875 C 1.171875 -5.488281 1.09375 -5.804688 1.09375 -6.171875 C 1.09375 -6.609375 1.207031 -6.976562 1.4375 -7.28125 C 1.675781 -7.59375 1.984375 -7.820312 2.359375 -7.96875 C 2.734375 -8.125 3.132812 -8.203125 3.5625 -8.203125 C 4.09375 -8.203125 4.601562 -8.101562 5.09375 -7.90625 C 5.21875 -7.84375 5.28125 -7.765625 5.28125 -7.671875 L 5.359375 -6.125 C 5.359375 -6.09375 5.332031 -6.070312 5.28125 -6.0625 C 5.238281 -6.050781 5.210938 -6.0625 5.203125 -6.09375 C 5.117188 -6.550781 4.925781 -6.976562 4.625 -7.375 C 4.320312 -7.78125 3.890625 -7.984375 3.328125 -7.984375 C 2.867188 -7.984375 2.519531 -7.847656 2.28125 -7.578125 C 2.050781 -7.316406 1.9375 -6.988281 1.9375 -6.59375 Z M 1.9375 -6.59375 "/></g></g></g><g fill="#272727" fill-opacity="1"><g transform="translate(91.775453, 89.665654)"><g><path d="M 9.046875 -0.15625 C 9.078125 -0.15625 9.09375 -0.128906 9.09375 -0.078125 C 9.09375 -0.0234375 9.078125 0 9.046875 0 C 8.878906 0 8.625 -0.0078125 8.28125 -0.03125 C 7.9375 -0.0390625 7.6875 -0.046875 7.53125 -0.046875 C 7.332031 -0.046875 7.085938 -0.0390625 6.796875 -0.03125 C 6.515625 -0.0078125 6.300781 0 6.15625 0 C 6.113281 0 6.09375 -0.0234375 6.09375 -0.078125 C 6.09375 -0.128906 6.113281 -0.15625 6.15625 -0.15625 C 6.457031 -0.15625 6.675781 -0.179688 6.8125 -0.234375 C 6.945312 -0.296875 7.015625 -0.398438 7.015625 -0.546875 C 7.015625 -0.671875 6.953125 -0.863281 6.828125 -1.125 L 5.71875 -3.4375 L 2.640625 -3.4375 L 1.875 -1.671875 C 1.769531 -1.410156 1.71875 -1.175781 1.71875 -0.96875 C 1.71875 -0.425781 2.132812 -0.15625 2.96875 -0.15625 C 3.007812 -0.15625 3.03125 -0.128906 3.03125 -0.078125 C 3.03125 -0.0234375 3.007812 0 2.96875 0 C 2.8125 0 2.585938 -0.0078125 2.296875 -0.03125 C 1.960938 -0.0390625 1.675781 -0.046875 1.4375 -0.046875 C 1.226562 -0.046875 0.96875 -0.0390625 0.65625 -0.03125 C 0.394531 -0.0078125 0.175781 0 0 0 C -0.0390625 0 -0.0625 -0.0234375 -0.0625 -0.078125 C -0.0625 -0.128906 -0.0390625 -0.15625 0 -0.15625 C 0.238281 -0.15625 0.441406 -0.195312 0.609375 -0.28125 C 0.773438 -0.375 0.9375 -0.535156 1.09375 -0.765625 C 1.25 -1.003906 1.421875 -1.347656 1.609375 -1.796875 L 4.328125 -8.15625 C 4.347656 -8.1875 4.382812 -8.203125 4.4375 -8.203125 C 4.488281 -8.203125 4.519531 -8.1875 4.53125 -8.15625 L 7.59375 -1.765625 C 7.882812 -1.140625 8.132812 -0.710938 8.34375 -0.484375 C 8.550781 -0.265625 8.785156 -0.15625 9.046875 -0.15625 Z M 2.765625 -3.71875 L 5.59375 -3.71875 L 4.09375 -6.828125 Z M 2.765625 -3.71875 "/></g></g></g><g fill="#272727" fill-opacity="1"><g transform="translate(101.602559, 89.665654)"><g><path d="M 8.609375 -8.0625 C 8.640625 -8.0625 8.65625 -8.035156 8.65625 -7.984375 C 8.65625 -7.929688 8.640625 -7.90625 8.609375 -7.90625 C 8.003906 -7.90625 7.550781 -7.535156 7.25 -6.796875 L 4.578125 -0.015625 C 4.566406 0.015625 4.519531 0.03125 4.4375 0.03125 C 4.363281 0.03125 4.316406 0.015625 4.296875 -0.015625 L 1.078125 -6.984375 C 0.921875 -7.304688 0.765625 -7.539062 0.609375 -7.6875 C 0.453125 -7.832031 0.25 -7.90625 0 -7.90625 C -0.0195312 -7.90625 -0.03125 -7.929688 -0.03125 -7.984375 C -0.03125 -8.035156 -0.0195312 -8.0625 0 -8.0625 L 0.4375 -8.046875 C 0.675781 -8.023438 0.878906 -8.015625 1.046875 -8.015625 C 1.453125 -8.015625 1.863281 -8.023438 2.28125 -8.046875 C 2.414062 -8.054688 2.597656 -8.0625 2.828125 -8.0625 C 2.847656 -8.0625 2.859375 -8.035156 2.859375 -7.984375 C 2.859375 -7.929688 2.847656 -7.90625 2.828125 -7.90625 C 2.296875 -7.90625 2.03125 -7.742188 2.03125 -7.421875 C 2.03125 -7.304688 2.066406 -7.160156 2.140625 -6.984375 L 4.75 -1.28125 L 6.953125 -6.859375 C 7.023438 -7.046875 7.0625 -7.203125 7.0625 -7.328125 C 7.0625 -7.523438 6.984375 -7.671875 6.828125 -7.765625 C 6.671875 -7.859375 6.421875 -7.90625 6.078125 -7.90625 C 6.046875 -7.90625 6.03125 -7.929688 6.03125 -7.984375 C 6.03125 -8.035156 6.046875 -8.0625 6.078125 -8.0625 L 6.640625 -8.046875 C 6.953125 -8.023438 7.226562 -8.015625 7.46875 -8.015625 C 7.632812 -8.015625 7.835938 -8.023438 8.078125 -8.046875 Z M 8.609375 -8.0625 "/></g></g></g><g fill="#272727" fill-opacity="1"><g transform="translate(110.926705, 89.665654)"><g><path d="M 6.171875 -1.9375 C 6.171875 -1.957031 6.195312 -1.960938 6.25 -1.953125 C 6.300781 -1.953125 6.328125 -1.941406 6.328125 -1.921875 C 6.253906 -1.359375 6.21875 -0.78125 6.21875 -0.1875 C 6.21875 -0.125 6.203125 -0.078125 6.171875 -0.046875 C 6.140625 -0.015625 6.082031 0 6 0 L 0.546875 0 C 0.535156 0 0.53125 -0.0234375 0.53125 -0.078125 C 0.53125 -0.128906 0.535156 -0.15625 0.546875 -0.15625 C 0.867188 -0.15625 1.101562 -0.175781 1.25 -0.21875 C 1.394531 -0.257812 1.492188 -0.34375 1.546875 -0.46875 C 1.597656 -0.59375 1.625 -0.785156 1.625 -1.046875 L 1.625 -7.015625 C 1.625 -7.273438 1.597656 -7.460938 1.546875 -7.578125 C 1.492188 -7.703125 1.394531 -7.785156 1.25 -7.828125 C 1.101562 -7.878906 0.867188 -7.90625 0.546875 -7.90625 C 0.535156 -7.90625 0.53125 -7.929688 0.53125 -7.984375 C 0.53125 -8.035156 0.535156 -8.0625 0.546875 -8.0625 L 5.78125 -8.0625 C 5.863281 -8.0625 5.90625 -8.019531 5.90625 -7.9375 L 5.921875 -6.328125 C 5.921875 -6.304688 5.894531 -6.296875 5.84375 -6.296875 C 5.800781 -6.296875 5.78125 -6.304688 5.78125 -6.328125 C 5.726562 -6.796875 5.566406 -7.148438 5.296875 -7.390625 C 5.035156 -7.640625 4.691406 -7.765625 4.265625 -7.765625 L 3.5625 -7.765625 C 3.15625 -7.765625 2.882812 -7.707031 2.75 -7.59375 C 2.625 -7.488281 2.5625 -7.273438 2.5625 -6.953125 L 2.5625 -4.328125 L 4.046875 -4.328125 C 4.472656 -4.328125 4.78125 -4.398438 4.96875 -4.546875 C 5.164062 -4.691406 5.265625 -4.929688 5.265625 -5.265625 C 5.265625 -5.273438 5.289062 -5.28125 5.34375 -5.28125 C 5.394531 -5.28125 5.421875 -5.273438 5.421875 -5.265625 L 5.40625 -4.1875 C 5.40625 -3.9375 5.410156 -3.75 5.421875 -3.625 L 5.4375 -2.984375 C 5.4375 -2.960938 5.410156 -2.953125 5.359375 -2.953125 C 5.304688 -2.953125 5.28125 -2.960938 5.28125 -2.984375 C 5.28125 -3.359375 5.179688 -3.628906 4.984375 -3.796875 C 4.785156 -3.960938 4.460938 -4.046875 4.015625 -4.046875 L 2.5625 -4.046875 L 2.5625 -1.09375 C 2.5625 -0.875 2.585938 -0.707031 2.640625 -0.59375 C 2.691406 -0.476562 2.78125 -0.394531 2.90625 -0.34375 C 3.039062 -0.300781 3.238281 -0.28125 3.5 -0.28125 L 4.421875 -0.28125 C 4.878906 -0.28125 5.253906 -0.421875 5.546875 -0.703125 C 5.847656 -0.992188 6.054688 -1.40625 6.171875 -1.9375 Z M 6.171875 -1.9375 "/></g></g></g><g fill="#272727" fill-opacity="1"><g transform="translate(118.647832, 89.665654)"><g/></g></g><g fill="#272727" fill-opacity="1"><g transform="translate(122.413591, 89.665654)"><g/></g></g><g fill="#272727" fill-opacity="1"><g transform="translate(126.179349, 89.665654)"><g/></g></g><g fill="#272727" fill-opacity="1"><g transform="translate(129.945107, 89.665654)"><g/></g></g><g fill="#272727" fill-opacity="1"><g transform="translate(133.727195, 89.665654)"><g><path d="M 2.5 -7.8125 C 1.96875 -7.8125 1.554688 -7.664062 1.265625 -7.375 C 0.984375 -7.09375 0.773438 -6.625 0.640625 -5.96875 C 0.628906 -5.9375 0.597656 -5.921875 0.546875 -5.921875 C 0.503906 -5.929688 0.484375 -5.945312 0.484375 -5.96875 C 0.523438 -6.207031 0.566406 -6.59375 0.609375 -7.125 C 0.648438 -7.65625 0.671875 -8.0625 0.671875 -8.34375 C 0.671875 -8.382812 0.695312 -8.40625 0.75 -8.40625 C 0.800781 -8.40625 0.828125 -8.382812 0.828125 -8.34375 C 0.828125 -8.15625 1.054688 -8.0625 1.515625 -8.0625 C 2.253906 -8.03125 3.117188 -8.015625 4.109375 -8.015625 C 4.617188 -8.015625 5.15625 -8.023438 5.71875 -8.046875 L 6.59375 -8.0625 C 6.90625 -8.0625 7.132812 -8.082031 7.28125 -8.125 C 7.4375 -8.164062 7.535156 -8.25 7.578125 -8.375 C 7.585938 -8.414062 7.613281 -8.4375 7.65625 -8.4375 C 7.695312 -8.4375 7.71875 -8.414062 7.71875 -8.375 C 7.695312 -8.125 7.671875 -7.738281 7.640625 -7.21875 C 7.617188 -6.695312 7.609375 -6.28125 7.609375 -5.96875 C 7.609375 -5.945312 7.582031 -5.9375 7.53125 -5.9375 C 7.488281 -5.9375 7.460938 -5.945312 7.453125 -5.96875 C 7.421875 -6.625 7.269531 -7.09375 7 -7.375 C 6.726562 -7.664062 6.304688 -7.8125 5.734375 -7.8125 C 5.390625 -7.8125 5.140625 -7.789062 4.984375 -7.75 C 4.835938 -7.71875 4.738281 -7.644531 4.6875 -7.53125 C 4.632812 -7.425781 4.609375 -7.242188 4.609375 -6.984375 L 4.609375 -1.046875 C 4.609375 -0.773438 4.632812 -0.578125 4.6875 -0.453125 C 4.738281 -0.335938 4.847656 -0.257812 5.015625 -0.21875 C 5.179688 -0.175781 5.453125 -0.15625 5.828125 -0.15625 C 5.847656 -0.15625 5.859375 -0.128906 5.859375 -0.078125 C 5.859375 -0.0234375 5.847656 0 5.828125 0 C 5.535156 0 5.300781 -0.00390625 5.125 -0.015625 L 4.109375 -0.03125 L 3.125 -0.015625 C 2.957031 -0.00390625 2.71875 0 2.40625 0 C 2.394531 0 2.390625 -0.0234375 2.390625 -0.078125 C 2.390625 -0.128906 2.394531 -0.15625 2.40625 -0.15625 C 2.769531 -0.15625 3.035156 -0.175781 3.203125 -0.21875 C 3.378906 -0.257812 3.492188 -0.34375 3.546875 -0.46875 C 3.609375 -0.59375 3.640625 -0.785156 3.640625 -1.046875 L 3.640625 -7.015625 C 3.640625 -7.265625 3.613281 -7.441406 3.5625 -7.546875 C 3.507812 -7.648438 3.40625 -7.71875 3.25 -7.75 C 3.101562 -7.789062 2.851562 -7.8125 2.5 -7.8125 Z M 2.5 -7.8125 "/></g></g></g><g fill="#272727" fill-opacity="1"><g transform="translate(142.677336, 89.665654)"><g><path d="M 9.328125 -0.15625 C 9.359375 -0.15625 9.375 -0.128906 9.375 -0.078125 C 9.375 -0.0234375 9.359375 0 9.328125 0 C 9.054688 0 8.84375 -0.00390625 8.6875 -0.015625 L 7.765625 -0.03125 L 6.78125 -0.015625 C 6.632812 -0.00390625 6.429688 0 6.171875 0 C 6.148438 0 6.140625 -0.0234375 6.140625 -0.078125 C 6.140625 -0.128906 6.148438 -0.15625 6.171875 -0.15625 C 6.503906 -0.15625 6.742188 -0.175781 6.890625 -0.21875 C 7.046875 -0.257812 7.148438 -0.34375 7.203125 -0.46875 C 7.265625 -0.59375 7.296875 -0.785156 7.296875 -1.046875 L 7.296875 -4.046875 L 2.484375 -4.046875 L 2.484375 -1.046875 C 2.484375 -0.785156 2.507812 -0.59375 2.5625 -0.46875 C 2.625 -0.34375 2.726562 -0.257812 2.875 -0.21875 C 3.03125 -0.175781 3.273438 -0.15625 3.609375 -0.15625 C 3.628906 -0.15625 3.640625 -0.128906 3.640625 -0.078125 C 3.640625 -0.0234375 3.628906 0 3.609375 0 C 3.335938 0 3.125 -0.00390625 2.96875 -0.015625 L 2 -0.03125 L 1.09375 -0.015625 C 0.9375 -0.00390625 0.71875 0 0.4375 0 C 0.414062 0 0.40625 -0.0234375 0.40625 -0.078125 C 0.40625 -0.128906 0.414062 -0.15625 0.4375 -0.15625 C 0.757812 -0.15625 0.992188 -0.175781 1.140625 -0.21875 C 1.296875 -0.257812 1.398438 -0.34375 1.453125 -0.46875 C 1.515625 -0.59375 1.546875 -0.785156 1.546875 -1.046875 L 1.546875 -7.015625 C 1.546875 -7.273438 1.515625 -7.460938 1.453125 -7.578125 C 1.398438 -7.703125 1.296875 -7.785156 1.140625 -7.828125 C 0.992188 -7.878906 0.765625 -7.90625 0.453125 -7.90625 C 0.429688 -7.90625 0.421875 -7.929688 0.421875 -7.984375 C 0.421875 -8.035156 0.429688 -8.0625 0.453125 -8.0625 L 1.109375 -8.046875 C 1.472656 -8.023438 1.769531 -8.015625 2 -8.015625 C 2.257812 -8.015625 2.585938 -8.023438 2.984375 -8.046875 L 3.609375 -8.0625 C 3.628906 -8.0625 3.640625 -8.035156 3.640625 -7.984375 C 3.640625 -7.929688 3.628906 -7.90625 3.609375 -7.90625 C 3.285156 -7.90625 3.046875 -7.878906 2.890625 -7.828125 C 2.734375 -7.773438 2.625 -7.6875 2.5625 -7.5625 C 2.507812 -7.4375 2.484375 -7.242188 2.484375 -6.984375 L 2.484375 -4.328125 L 7.296875 -4.328125 L 7.296875 -6.984375 C 7.296875 -7.242188 7.265625 -7.4375 7.203125 -7.5625 C 7.148438 -7.6875 7.046875 -7.773438 6.890625 -7.828125 C 6.742188 -7.878906 6.503906 -7.90625 6.171875 -7.90625 C 6.148438 -7.90625 6.140625 -7.929688 6.140625 -7.984375 C 6.140625 -8.035156 6.148438 -8.0625 6.171875 -8.0625 L 6.78125 -8.046875 C 7.15625 -8.023438 7.484375 -8.015625 7.765625 -8.015625 C 8.003906 -8.015625 8.3125 -8.023438 8.6875 -8.046875 L 9.328125 -8.0625 C 9.359375 -8.0625 9.375 -8.035156 9.375 -7.984375 C 9.375 -7.929688 9.359375 -7.90625 9.328125 -7.90625 C 9.003906 -7.90625 8.765625 -7.878906 8.609375 -7.828125 C 8.460938 -7.785156 8.359375 -7.703125 8.296875 -7.578125 C 8.242188 -7.460938 8.21875 -7.273438 8.21875 -7.015625 L 8.21875 -1.046875 C 8.21875 -0.785156 8.242188 -0.59375 8.296875 -0.46875 C 8.359375 -0.34375 8.460938 -0.257812 8.609375 -0.21875 C 8.765625 -0.175781 9.003906 -0.15625 9.328125 -0.15625 Z M 9.328125 -0.15625 "/></g></g></g><g fill="#272727" fill-opacity="1"><g transform="translate(153.226653, 89.665654)"><g><path d="M 6.171875 -1.9375 C 6.171875 -1.957031 6.195312 -1.960938 6.25 -1.953125 C 6.300781 -1.953125 6.328125 -1.941406 6.328125 -1.921875 C 6.253906 -1.359375 6.21875 -0.78125 6.21875 -0.1875 C 6.21875 -0.125 6.203125 -0.078125 6.171875 -0.046875 C 6.140625 -0.015625 6.082031 0 6 0 L 0.546875 0 C 0.535156 0 0.53125 -0.0234375 0.53125 -0.078125 C 0.53125 -0.128906 0.535156 -0.15625 0.546875 -0.15625 C 0.867188 -0.15625 1.101562 -0.175781 1.25 -0.21875 C 1.394531 -0.257812 1.492188 -0.34375 1.546875 -0.46875 C 1.597656 -0.59375 1.625 -0.785156 1.625 -1.046875 L 1.625 -7.015625 C 1.625 -7.273438 1.597656 -7.460938 1.546875 -7.578125 C 1.492188 -7.703125 1.394531 -7.785156 1.25 -7.828125 C 1.101562 -7.878906 0.867188 -7.90625 0.546875 -7.90625 C 0.535156 -7.90625 0.53125 -7.929688 0.53125 -7.984375 C 0.53125 -8.035156 0.535156 -8.0625 0.546875 -8.0625 L 5.78125 -8.0625 C 5.863281 -8.0625 5.90625 -8.019531 5.90625 -7.9375 L 5.921875 -6.328125 C 5.921875 -6.304688 5.894531 -6.296875 5.84375 -6.296875 C 5.800781 -6.296875 5.78125 -6.304688 5.78125 -6.328125 C 5.726562 -6.796875 5.566406 -7.148438 5.296875 -7.390625 C 5.035156 -7.640625 4.691406 -7.765625 4.265625 -7.765625 L 3.5625 -7.765625 C 3.15625 -7.765625 2.882812 -7.707031 2.75 -7.59375 C 2.625 -7.488281 2.5625 -7.273438 2.5625 -6.953125 L 2.5625 -4.328125 L 4.046875 -4.328125 C 4.472656 -4.328125 4.78125 -4.398438 4.96875 -4.546875 C 5.164062 -4.691406 5.265625 -4.929688 5.265625 -5.265625 C 5.265625 -5.273438 5.289062 -5.28125 5.34375 -5.28125 C 5.394531 -5.28125 5.421875 -5.273438 5.421875 -5.265625 L 5.40625 -4.1875 C 5.40625 -3.9375 5.410156 -3.75 5.421875 -3.625 L 5.4375 -2.984375 C 5.4375 -2.960938 5.410156 -2.953125 5.359375 -2.953125 C 5.304688 -2.953125 5.28125 -2.960938 5.28125 -2.984375 C 5.28125 -3.359375 5.179688 -3.628906 4.984375 -3.796875 C 4.785156 -3.960938 4.460938 -4.046875 4.015625 -4.046875 L 2.5625 -4.046875 L 2.5625 -1.09375 C 2.5625 -0.875 2.585938 -0.707031 2.640625 -0.59375 C 2.691406 -0.476562 2.78125 -0.394531 2.90625 -0.34375 C 3.039062 -0.300781 3.238281 -0.28125 3.5 -0.28125 L 4.421875 -0.28125 C 4.878906 -0.28125 5.253906 -0.421875 5.546875 -0.703125 C 5.847656 -0.992188 6.054688 -1.40625 6.171875 -1.9375 Z M 6.171875 -1.9375 "/></g></g></g><g fill="#272727" fill-opacity="1"><g transform="translate(160.947291, 89.665654)"><g/></g></g><g fill="#272727" fill-opacity="1"><g transform="translate(164.713049, 89.665654)"><g/></g></g><g fill="#272727" fill-opacity="1"><g transform="translate(168.478807, 89.665654)"><g/></g></g><g fill="#272727" fill-opacity="1"><g transform="translate(172.244565, 89.665654)"><g/></g></g><g fill="#272727" fill-opacity="1"><g transform="translate(176.026653, 89.665654)"><g><path d="M 3.953125 0.046875 C 3.703125 0.046875 3.40625 0.0351562 3.0625 0.015625 C 2.9375 0.00390625 2.78125 -0.00390625 2.59375 -0.015625 C 2.40625 -0.0234375 2.203125 -0.03125 1.984375 -0.03125 L 1.09375 -0.015625 C 0.925781 -0.00390625 0.707031 0 0.4375 0 C 0.414062 0 0.40625 -0.0234375 0.40625 -0.078125 C 0.40625 -0.128906 0.414062 -0.15625 0.4375 -0.15625 C 0.757812 -0.15625 0.992188 -0.175781 1.140625 -0.21875 C 1.285156 -0.257812 1.382812 -0.34375 1.4375 -0.46875 C 1.488281 -0.59375 1.515625 -0.785156 1.515625 -1.046875 L 1.515625 -7.015625 C 1.515625 -7.273438 1.488281 -7.460938 1.4375 -7.578125 C 1.382812 -7.703125 1.285156 -7.785156 1.140625 -7.828125 C 0.992188 -7.878906 0.765625 -7.90625 0.453125 -7.90625 C 0.429688 -7.90625 0.421875 -7.929688 0.421875 -7.984375 C 0.421875 -8.035156 0.429688 -8.0625 0.453125 -8.0625 L 1.09375 -8.046875 C 1.46875 -8.023438 1.765625 -8.015625 1.984375 -8.015625 C 2.304688 -8.015625 2.628906 -8.03125 2.953125 -8.0625 C 3.367188 -8.070312 3.644531 -8.078125 3.78125 -8.078125 C 4.675781 -8.078125 5.46875 -7.90625 6.15625 -7.5625 C 6.84375 -7.21875 7.375 -6.75 7.75 -6.15625 C 8.125 -5.5625 8.3125 -4.894531 8.3125 -4.15625 C 8.3125 -3.320312 8.113281 -2.585938 7.71875 -1.953125 C 7.332031 -1.316406 6.804688 -0.820312 6.140625 -0.46875 C 5.472656 -0.125 4.742188 0.046875 3.953125 0.046875 Z M 3.828125 -0.15625 C 4.492188 -0.15625 5.082031 -0.296875 5.59375 -0.578125 C 6.101562 -0.867188 6.5 -1.296875 6.78125 -1.859375 C 7.070312 -2.421875 7.21875 -3.09375 7.21875 -3.875 C 7.21875 -4.625 7.078125 -5.300781 6.796875 -5.90625 C 6.523438 -6.507812 6.140625 -6.988281 5.640625 -7.34375 C 5.140625 -7.695312 4.554688 -7.875 3.890625 -7.875 C 3.523438 -7.875 3.242188 -7.851562 3.046875 -7.8125 C 2.847656 -7.769531 2.703125 -7.6875 2.609375 -7.5625 C 2.515625 -7.4375 2.46875 -7.242188 2.46875 -6.984375 L 2.46875 -1.1875 C 2.46875 -0.8125 2.554688 -0.546875 2.734375 -0.390625 C 2.921875 -0.234375 3.285156 -0.15625 3.828125 -0.15625 Z M 3.828125 -0.15625 "/></g></g></g><g fill="#272727" fill-opacity="1"><g transform="translate(185.7248, 89.665654)"><g><path d="M 9.046875 -0.15625 C 9.078125 -0.15625 9.09375 -0.128906 9.09375 -0.078125 C 9.09375 -0.0234375 9.078125 0 9.046875 0 C 8.878906 0 8.625 -0.0078125 8.28125 -0.03125 C 7.9375 -0.0390625 7.6875 -0.046875 7.53125 -0.046875 C 7.332031 -0.046875 7.085938 -0.0390625 6.796875 -0.03125 C 6.515625 -0.0078125 6.300781 0 6.15625 0 C 6.113281 0 6.09375 -0.0234375 6.09375 -0.078125 C 6.09375 -0.128906 6.113281 -0.15625 6.15625 -0.15625 C 6.457031 -0.15625 6.675781 -0.179688 6.8125 -0.234375 C 6.945312 -0.296875 7.015625 -0.398438 7.015625 -0.546875 C 7.015625 -0.671875 6.953125 -0.863281 6.828125 -1.125 L 5.71875 -3.4375 L 2.640625 -3.4375 L 1.875 -1.671875 C 1.769531 -1.410156 1.71875 -1.175781 1.71875 -0.96875 C 1.71875 -0.425781 2.132812 -0.15625 2.96875 -0.15625 C 3.007812 -0.15625 3.03125 -0.128906 3.03125 -0.078125 C 3.03125 -0.0234375 3.007812 0 2.96875 0 C 2.8125 0 2.585938 -0.0078125 2.296875 -0.03125 C 1.960938 -0.0390625 1.675781 -0.046875 1.4375 -0.046875 C 1.226562 -0.046875 0.96875 -0.0390625 0.65625 -0.03125 C 0.394531 -0.0078125 0.175781 0 0 0 C -0.0390625 0 -0.0625 -0.0234375 -0.0625 -0.078125 C -0.0625 -0.128906 -0.0390625 -0.15625 0 -0.15625 C 0.238281 -0.15625 0.441406 -0.195312 0.609375 -0.28125 C 0.773438 -0.375 0.9375 -0.535156 1.09375 -0.765625 C 1.25 -1.003906 1.421875 -1.347656 1.609375 -1.796875 L 4.328125 -8.15625 C 4.347656 -8.1875 4.382812 -8.203125 4.4375 -8.203125 C 4.488281 -8.203125 4.519531 -8.1875 4.53125 -8.15625 L 7.59375 -1.765625 C 7.882812 -1.140625 8.132812 -0.710938 8.34375 -0.484375 C 8.550781 -0.265625 8.785156 -0.15625 9.046875 -0.15625 Z M 2.765625 -3.71875 L 5.59375 -3.71875 L 4.09375 -6.828125 Z M 2.765625 -3.71875 "/></g></g></g><g fill="#272727" fill-opacity="1"><g transform="translate(195.551906, 89.665654)"><g><path d="M 2.5 -7.8125 C 1.96875 -7.8125 1.554688 -7.664062 1.265625 -7.375 C 0.984375 -7.09375 0.773438 -6.625 0.640625 -5.96875 C 0.628906 -5.9375 0.597656 -5.921875 0.546875 -5.921875 C 0.503906 -5.929688 0.484375 -5.945312 0.484375 -5.96875 C 0.523438 -6.207031 0.566406 -6.59375 0.609375 -7.125 C 0.648438 -7.65625 0.671875 -8.0625 0.671875 -8.34375 C 0.671875 -8.382812 0.695312 -8.40625 0.75 -8.40625 C 0.800781 -8.40625 0.828125 -8.382812 0.828125 -8.34375 C 0.828125 -8.15625 1.054688 -8.0625 1.515625 -8.0625 C 2.253906 -8.03125 3.117188 -8.015625 4.109375 -8.015625 C 4.617188 -8.015625 5.15625 -8.023438 5.71875 -8.046875 L 6.59375 -8.0625 C 6.90625 -8.0625 7.132812 -8.082031 7.28125 -8.125 C 7.4375 -8.164062 7.535156 -8.25 7.578125 -8.375 C 7.585938 -8.414062 7.613281 -8.4375 7.65625 -8.4375 C 7.695312 -8.4375 7.71875 -8.414062 7.71875 -8.375 C 7.695312 -8.125 7.671875 -7.738281 7.640625 -7.21875 C 7.617188 -6.695312 7.609375 -6.28125 7.609375 -5.96875 C 7.609375 -5.945312 7.582031 -5.9375 7.53125 -5.9375 C 7.488281 -5.9375 7.460938 -5.945312 7.453125 -5.96875 C 7.421875 -6.625 7.269531 -7.09375 7 -7.375 C 6.726562 -7.664062 6.304688 -7.8125 5.734375 -7.8125 C 5.390625 -7.8125 5.140625 -7.789062 4.984375 -7.75 C 4.835938 -7.71875 4.738281 -7.644531 4.6875 -7.53125 C 4.632812 -7.425781 4.609375 -7.242188 4.609375 -6.984375 L 4.609375 -1.046875 C 4.609375 -0.773438 4.632812 -0.578125 4.6875 -0.453125 C 4.738281 -0.335938 4.847656 -0.257812 5.015625 -0.21875 C 5.179688 -0.175781 5.453125 -0.15625 5.828125 -0.15625 C 5.847656 -0.15625 5.859375 -0.128906 5.859375 -0.078125 C 5.859375 -0.0234375 5.847656 0 5.828125 0 C 5.535156 0 5.300781 -0.00390625 5.125 -0.015625 L 4.109375 -0.03125 L 3.125 -0.015625 C 2.957031 -0.00390625 2.71875 0 2.40625 0 C 2.394531 0 2.390625 -0.0234375 2.390625 -0.078125 C 2.390625 -0.128906 2.394531 -0.15625 2.40625 -0.15625 C 2.769531 -0.15625 3.035156 -0.175781 3.203125 -0.21875 C 3.378906 -0.257812 3.492188 -0.34375 3.546875 -0.46875 C 3.609375 -0.59375 3.640625 -0.785156 3.640625 -1.046875 L 3.640625 -7.015625 C 3.640625 -7.265625 3.613281 -7.441406 3.5625 -7.546875 C 3.507812 -7.648438 3.40625 -7.71875 3.25 -7.75 C 3.101562 -7.789062 2.851562 -7.8125 2.5 -7.8125 Z M 2.5 -7.8125 "/></g></g></g><g fill="#272727" fill-opacity="1"><g transform="translate(204.502049, 89.665654)"><g><path d="M 6.171875 -1.9375 C 6.171875 -1.957031 6.195312 -1.960938 6.25 -1.953125 C 6.300781 -1.953125 6.328125 -1.941406 6.328125 -1.921875 C 6.253906 -1.359375 6.21875 -0.78125 6.21875 -0.1875 C 6.21875 -0.125 6.203125 -0.078125 6.171875 -0.046875 C 6.140625 -0.015625 6.082031 0 6 0 L 0.546875 0 C 0.535156 0 0.53125 -0.0234375 0.53125 -0.078125 C 0.53125 -0.128906 0.535156 -0.15625 0.546875 -0.15625 C 0.867188 -0.15625 1.101562 -0.175781 1.25 -0.21875 C 1.394531 -0.257812 1.492188 -0.34375 1.546875 -0.46875 C 1.597656 -0.59375 1.625 -0.785156 1.625 -1.046875 L 1.625 -7.015625 C 1.625 -7.273438 1.597656 -7.460938 1.546875 -7.578125 C 1.492188 -7.703125 1.394531 -7.785156 1.25 -7.828125 C 1.101562 -7.878906 0.867188 -7.90625 0.546875 -7.90625 C 0.535156 -7.90625 0.53125 -7.929688 0.53125 -7.984375 C 0.53125 -8.035156 0.535156 -8.0625 0.546875 -8.0625 L 5.78125 -8.0625 C 5.863281 -8.0625 5.90625 -8.019531 5.90625 -7.9375 L 5.921875 -6.328125 C 5.921875 -6.304688 5.894531 -6.296875 5.84375 -6.296875 C 5.800781 -6.296875 5.78125 -6.304688 5.78125 -6.328125 C 5.726562 -6.796875 5.566406 -7.148438 5.296875 -7.390625 C 5.035156 -7.640625 4.691406 -7.765625 4.265625 -7.765625 L 3.5625 -7.765625 C 3.15625 -7.765625 2.882812 -7.707031 2.75 -7.59375 C 2.625 -7.488281 2.5625 -7.273438 2.5625 -6.953125 L 2.5625 -4.328125 L 4.046875 -4.328125 C 4.472656 -4.328125 4.78125 -4.398438 4.96875 -4.546875 C 5.164062 -4.691406 5.265625 -4.929688 5.265625 -5.265625 C 5.265625 -5.273438 5.289062 -5.28125 5.34375 -5.28125 C 5.394531 -5.28125 5.421875 -5.273438 5.421875 -5.265625 L 5.40625 -4.1875 C 5.40625 -3.9375 5.410156 -3.75 5.421875 -3.625 L 5.4375 -2.984375 C 5.4375 -2.960938 5.410156 -2.953125 5.359375 -2.953125 C 5.304688 -2.953125 5.28125 -2.960938 5.28125 -2.984375 C 5.28125 -3.359375 5.179688 -3.628906 4.984375 -3.796875 C 4.785156 -3.960938 4.460938 -4.046875 4.015625 -4.046875 L 2.5625 -4.046875 L 2.5625 -1.09375 C 2.5625 -0.875 2.585938 -0.707031 2.640625 -0.59375 C 2.691406 -0.476562 2.78125 -0.394531 2.90625 -0.34375 C 3.039062 -0.300781 3.238281 -0.28125 3.5 -0.28125 L 4.421875 -0.28125 C 4.878906 -0.28125 5.253906 -0.421875 5.546875 -0.703125 C 5.847656 -0.992188 6.054688 -1.40625 6.171875 -1.9375 Z M 6.171875 -1.9375 "/></g></g></g></svg>