<svg xmlns="http://www.w3.org/2000/svg" xmlns:xlink="http://www.w3.org/1999/xlink" width="396" zoomAndPan="magnify" viewBox="0 0 297.12 419.249996" height="559" preserveAspectRatio="xMidYMid meet" version="1.0"><defs><g/></defs><g fill="#272727" fill-opacity="1"><g transform="translate(110.242181, 91.687134)"><g><path d="M 1.15625 -3.921875 C 1.15625 -3.734375 1.203125 -3.5625 1.296875 -3.40625 C 1.390625 -3.257812 1.503906 -3.132812 1.640625 -3.03125 C 1.785156 -2.9375 1.984375 -2.8125 2.234375 -2.65625 C 2.492188 -2.5 2.695312 -2.363281 2.84375 -2.25 C 3 -2.132812 3.128906 -1.992188 3.234375 -1.828125 C 3.335938 -1.660156 3.390625 -1.460938 3.390625 -1.234375 C 3.390625 -0.984375 3.328125 -0.753906 3.203125 -0.546875 C 3.078125 -0.347656 2.894531 -0.191406 2.65625 -0.078125 C 2.414062 0.0351562 2.128906 0.09375 1.796875 0.09375 C 1.378906 0.09375 1.007812 0 0.6875 -0.1875 C 0.664062 -0.195312 0.648438 -0.210938 0.640625 -0.234375 C 0.628906 -0.253906 0.617188 -0.285156 0.609375 -0.328125 L 0.53125 -1.40625 C 0.519531 -1.425781 0.53125 -1.4375 0.5625 -1.4375 C 0.59375 -1.445312 0.609375 -1.441406 0.609375 -1.421875 C 0.710938 -1.046875 0.875 -0.722656 1.09375 -0.453125 C 1.320312 -0.179688 1.613281 -0.046875 1.96875 -0.046875 C 2.226562 -0.046875 2.441406 -0.113281 2.609375 -0.25 C 2.773438 -0.382812 2.859375 -0.601562 2.859375 -0.90625 C 2.859375 -1.132812 2.804688 -1.332031 2.703125 -1.5 C 2.597656 -1.664062 2.472656 -1.804688 2.328125 -1.921875 C 2.179688 -2.035156 1.984375 -2.164062 1.734375 -2.3125 C 1.484375 -2.46875 1.289062 -2.597656 1.15625 -2.703125 C 1.019531 -2.816406 0.898438 -2.953125 0.796875 -3.109375 C 0.703125 -3.273438 0.65625 -3.46875 0.65625 -3.6875 C 0.65625 -3.945312 0.722656 -4.164062 0.859375 -4.34375 C 0.992188 -4.53125 1.175781 -4.664062 1.40625 -4.75 C 1.632812 -4.84375 1.875 -4.890625 2.125 -4.890625 C 2.4375 -4.890625 2.738281 -4.832031 3.03125 -4.71875 C 3.113281 -4.675781 3.15625 -4.628906 3.15625 -4.578125 L 3.203125 -3.65625 C 3.203125 -3.632812 3.1875 -3.617188 3.15625 -3.609375 C 3.125 -3.609375 3.109375 -3.617188 3.109375 -3.640625 C 3.054688 -3.910156 2.9375 -4.164062 2.75 -4.40625 C 2.570312 -4.644531 2.316406 -4.765625 1.984375 -4.765625 C 1.710938 -4.765625 1.503906 -4.6875 1.359375 -4.53125 C 1.222656 -4.375 1.15625 -4.171875 1.15625 -3.921875 Z M 1.15625 -3.921875 "/></g></g></g><g fill="#272727" fill-opacity="1"><g transform="translate(114.495326, 91.687134)"><g><path d="M 5.390625 -0.09375 C 5.410156 -0.09375 5.421875 -0.078125 5.421875 -0.046875 C 5.421875 -0.015625 5.410156 0 5.390625 0 C 5.296875 0 5.144531 -0.00390625 4.9375 -0.015625 C 4.738281 -0.0234375 4.585938 -0.03125 4.484375 -0.03125 C 4.367188 -0.03125 4.222656 -0.0234375 4.046875 -0.015625 C 3.890625 -0.00390625 3.765625 0 3.671875 0 C 3.648438 0 3.640625 -0.015625 3.640625 -0.046875 C 3.640625 -0.078125 3.648438 -0.09375 3.671875 -0.09375 C 3.847656 -0.09375 3.976562 -0.109375 4.0625 -0.140625 C 4.144531 -0.171875 4.1875 -0.234375 4.1875 -0.328125 C 4.1875 -0.398438 4.148438 -0.515625 4.078125 -0.671875 L 3.40625 -2.046875 L 1.578125 -2.046875 L 1.125 -1 C 1.050781 -0.84375 1.015625 -0.703125 1.015625 -0.578125 C 1.015625 -0.253906 1.265625 -0.09375 1.765625 -0.09375 C 1.796875 -0.09375 1.8125 -0.078125 1.8125 -0.046875 C 1.8125 -0.015625 1.796875 0 1.765625 0 C 1.671875 0 1.539062 -0.00390625 1.375 -0.015625 C 1.175781 -0.0234375 1.003906 -0.03125 0.859375 -0.03125 C 0.734375 -0.03125 0.578125 -0.0234375 0.390625 -0.015625 C 0.234375 -0.00390625 0.101562 0 0 0 C -0.0195312 0 -0.03125 -0.015625 -0.03125 -0.046875 C -0.03125 -0.078125 -0.0195312 -0.09375 0 -0.09375 C 0.144531 -0.09375 0.265625 -0.117188 0.359375 -0.171875 C 0.460938 -0.222656 0.5625 -0.316406 0.65625 -0.453125 C 0.75 -0.597656 0.851562 -0.800781 0.96875 -1.0625 L 2.578125 -4.859375 C 2.585938 -4.878906 2.609375 -4.890625 2.640625 -4.890625 C 2.671875 -4.890625 2.691406 -4.878906 2.703125 -4.859375 L 4.53125 -1.046875 C 4.707031 -0.671875 4.851562 -0.414062 4.96875 -0.28125 C 5.09375 -0.15625 5.234375 -0.09375 5.390625 -0.09375 Z M 1.640625 -2.21875 L 3.34375 -2.21875 L 2.4375 -4.078125 Z M 1.640625 -2.21875 "/></g></g></g><g fill="#272727" fill-opacity="1"><g transform="translate(120.355895, 91.687134)"><g><path d="M 5.140625 -4.8125 C 5.148438 -4.8125 5.15625 -4.796875 5.15625 -4.765625 C 5.15625 -4.734375 5.148438 -4.71875 5.140625 -4.71875 C 4.773438 -4.71875 4.503906 -4.492188 4.328125 -4.046875 L 2.734375 0 C 2.722656 0.0078125 2.691406 0.015625 2.640625 0.015625 C 2.597656 0.015625 2.570312 0.0078125 2.5625 0 L 0.640625 -4.171875 C 0.546875 -4.359375 0.453125 -4.492188 0.359375 -4.578125 C 0.265625 -4.671875 0.144531 -4.71875 0 -4.71875 C -0.0078125 -4.71875 -0.015625 -4.734375 -0.015625 -4.765625 C -0.015625 -4.796875 -0.0078125 -4.8125 0 -4.8125 L 0.265625 -4.796875 C 0.410156 -4.785156 0.53125 -4.78125 0.625 -4.78125 C 0.863281 -4.78125 1.109375 -4.785156 1.359375 -4.796875 C 1.441406 -4.804688 1.550781 -4.8125 1.6875 -4.8125 C 1.695312 -4.8125 1.703125 -4.796875 1.703125 -4.765625 C 1.703125 -4.734375 1.695312 -4.71875 1.6875 -4.71875 C 1.363281 -4.71875 1.203125 -4.617188 1.203125 -4.421875 C 1.203125 -4.359375 1.226562 -4.273438 1.28125 -4.171875 L 2.84375 -0.765625 L 4.15625 -4.09375 C 4.195312 -4.207031 4.21875 -4.296875 4.21875 -4.359375 C 4.21875 -4.484375 4.164062 -4.570312 4.0625 -4.625 C 3.96875 -4.6875 3.820312 -4.71875 3.625 -4.71875 C 3.601562 -4.71875 3.59375 -4.734375 3.59375 -4.765625 C 3.59375 -4.796875 3.601562 -4.8125 3.625 -4.8125 L 3.953125 -4.796875 C 4.140625 -4.785156 4.304688 -4.78125 4.453125 -4.78125 C 4.554688 -4.78125 4.675781 -4.785156 4.8125 -4.796875 Z M 5.140625 -4.8125 "/></g></g></g><g fill="#272727" fill-opacity="1"><g transform="translate(125.916514, 91.687134)"><g><path d="M 3.6875 -1.15625 C 3.6875 -1.164062 3.703125 -1.171875 3.734375 -1.171875 C 3.765625 -1.171875 3.78125 -1.160156 3.78125 -1.140625 C 3.726562 -0.804688 3.703125 -0.460938 3.703125 -0.109375 C 3.703125 -0.0664062 3.691406 -0.0351562 3.671875 -0.015625 C 3.660156 -0.00390625 3.628906 0 3.578125 0 L 0.328125 0 C 0.316406 0 0.3125 -0.015625 0.3125 -0.046875 C 0.3125 -0.078125 0.316406 -0.09375 0.328125 -0.09375 C 0.515625 -0.09375 0.648438 -0.101562 0.734375 -0.125 C 0.828125 -0.15625 0.890625 -0.207031 0.921875 -0.28125 C 0.953125 -0.351562 0.96875 -0.46875 0.96875 -0.625 L 0.96875 -4.1875 C 0.96875 -4.332031 0.953125 -4.441406 0.921875 -4.515625 C 0.890625 -4.585938 0.828125 -4.640625 0.734375 -4.671875 C 0.648438 -4.703125 0.515625 -4.71875 0.328125 -4.71875 C 0.316406 -4.71875 0.3125 -4.734375 0.3125 -4.765625 C 0.3125 -4.796875 0.316406 -4.8125 0.328125 -4.8125 L 3.453125 -4.8125 C 3.492188 -4.8125 3.515625 -4.785156 3.515625 -4.734375 L 3.53125 -3.78125 C 3.53125 -3.757812 3.515625 -3.75 3.484375 -3.75 C 3.460938 -3.75 3.453125 -3.757812 3.453125 -3.78125 C 3.421875 -4.050781 3.320312 -4.257812 3.15625 -4.40625 C 3 -4.5625 2.796875 -4.640625 2.546875 -4.640625 L 2.125 -4.640625 C 1.882812 -4.640625 1.722656 -4.601562 1.640625 -4.53125 C 1.566406 -4.46875 1.53125 -4.34375 1.53125 -4.15625 L 1.53125 -2.578125 L 2.40625 -2.578125 C 2.664062 -2.578125 2.851562 -2.617188 2.96875 -2.703125 C 3.082031 -2.796875 3.140625 -2.941406 3.140625 -3.140625 C 3.140625 -3.148438 3.15625 -3.15625 3.1875 -3.15625 C 3.21875 -3.15625 3.234375 -3.148438 3.234375 -3.140625 L 3.234375 -2.5 C 3.234375 -2.351562 3.234375 -2.238281 3.234375 -2.15625 L 3.25 -1.78125 C 3.25 -1.769531 3.234375 -1.765625 3.203125 -1.765625 C 3.171875 -1.765625 3.15625 -1.769531 3.15625 -1.78125 C 3.15625 -2 3.09375 -2.15625 2.96875 -2.25 C 2.851562 -2.351562 2.664062 -2.40625 2.40625 -2.40625 L 1.53125 -2.40625 L 1.53125 -0.65625 C 1.53125 -0.519531 1.546875 -0.414062 1.578125 -0.34375 C 1.609375 -0.28125 1.660156 -0.234375 1.734375 -0.203125 C 1.816406 -0.179688 1.9375 -0.171875 2.09375 -0.171875 L 2.640625 -0.171875 C 2.910156 -0.171875 3.132812 -0.253906 3.3125 -0.421875 C 3.488281 -0.597656 3.613281 -0.84375 3.6875 -1.15625 Z M 3.6875 -1.15625 "/></g></g></g><g fill="#272727" fill-opacity="1"><g transform="translate(130.521145, 91.687134)"><g/></g></g><g fill="#272727" fill-opacity="1"><g transform="translate(132.766921, 91.687134)"><g/></g></g><g fill="#272727" fill-opacity="1"><g transform="translate(135.012698, 91.687134)"><g/></g></g><g fill="#272727" fill-opacity="1"><g transform="translate(137.258474, 91.687134)"><g/></g></g><g fill="#272727" fill-opacity="1"><g transform="translate(139.513989, 91.687134)"><g><path d="M 1.484375 -4.65625 C 1.171875 -4.65625 0.925781 -4.566406 0.75 -4.390625 C 0.582031 -4.222656 0.460938 -3.945312 0.390625 -3.5625 C 0.378906 -3.539062 0.359375 -3.53125 0.328125 -3.53125 C 0.304688 -3.539062 0.296875 -3.550781 0.296875 -3.5625 C 0.316406 -3.707031 0.335938 -3.9375 0.359375 -4.25 C 0.390625 -4.570312 0.40625 -4.8125 0.40625 -4.96875 C 0.40625 -5 0.414062 -5.015625 0.4375 -5.015625 C 0.46875 -5.015625 0.484375 -5 0.484375 -4.96875 C 0.484375 -4.863281 0.625 -4.8125 0.90625 -4.8125 C 1.34375 -4.789062 1.859375 -4.78125 2.453125 -4.78125 C 2.753906 -4.78125 3.070312 -4.785156 3.40625 -4.796875 L 3.9375 -4.8125 C 4.125 -4.8125 4.257812 -4.820312 4.34375 -4.84375 C 4.4375 -4.863281 4.492188 -4.914062 4.515625 -5 C 4.523438 -5.019531 4.539062 -5.03125 4.5625 -5.03125 C 4.59375 -5.03125 4.609375 -5.019531 4.609375 -5 C 4.585938 -4.851562 4.566406 -4.625 4.546875 -4.3125 C 4.535156 -4 4.53125 -3.75 4.53125 -3.5625 C 4.53125 -3.550781 4.515625 -3.546875 4.484375 -3.546875 C 4.460938 -3.546875 4.445312 -3.550781 4.4375 -3.5625 C 4.414062 -3.957031 4.320312 -4.238281 4.15625 -4.40625 C 4 -4.570312 3.753906 -4.65625 3.421875 -4.65625 C 3.210938 -4.65625 3.0625 -4.644531 2.96875 -4.625 C 2.882812 -4.601562 2.828125 -4.554688 2.796875 -4.484375 C 2.765625 -4.421875 2.75 -4.316406 2.75 -4.171875 L 2.75 -0.625 C 2.75 -0.46875 2.765625 -0.351562 2.796875 -0.28125 C 2.828125 -0.207031 2.890625 -0.15625 2.984375 -0.125 C 3.085938 -0.101562 3.25 -0.09375 3.46875 -0.09375 C 3.476562 -0.09375 3.484375 -0.078125 3.484375 -0.046875 C 3.484375 -0.015625 3.476562 0 3.46875 0 C 3.300781 0 3.164062 0 3.0625 0 L 2.453125 -0.015625 L 1.875 0 C 1.769531 0 1.625 0 1.4375 0 C 1.425781 0 1.421875 -0.015625 1.421875 -0.046875 C 1.421875 -0.078125 1.425781 -0.09375 1.4375 -0.09375 C 1.65625 -0.09375 1.8125 -0.101562 1.90625 -0.125 C 2.007812 -0.15625 2.078125 -0.207031 2.109375 -0.28125 C 2.148438 -0.351562 2.171875 -0.46875 2.171875 -0.625 L 2.171875 -4.1875 C 2.171875 -4.332031 2.15625 -4.4375 2.125 -4.5 C 2.09375 -4.5625 2.03125 -4.601562 1.9375 -4.625 C 1.851562 -4.644531 1.703125 -4.65625 1.484375 -4.65625 Z M 1.484375 -4.65625 "/></g></g></g><g fill="#272727" fill-opacity="1"><g transform="translate(144.851564, 91.687134)"><g><path d="M 5.5625 -0.09375 C 5.582031 -0.09375 5.59375 -0.078125 5.59375 -0.046875 C 5.59375 -0.015625 5.582031 0 5.5625 0 C 5.394531 0 5.269531 0 5.1875 0 L 4.640625 -0.015625 L 4.046875 0 C 3.953125 0 3.832031 0 3.6875 0 C 3.664062 0 3.65625 -0.015625 3.65625 -0.046875 C 3.65625 -0.078125 3.664062 -0.09375 3.6875 -0.09375 C 3.882812 -0.09375 4.023438 -0.101562 4.109375 -0.125 C 4.203125 -0.15625 4.265625 -0.207031 4.296875 -0.28125 C 4.328125 -0.351562 4.34375 -0.46875 4.34375 -0.625 L 4.34375 -2.40625 L 1.484375 -2.40625 L 1.484375 -0.625 C 1.484375 -0.46875 1.5 -0.351562 1.53125 -0.28125 C 1.5625 -0.207031 1.625 -0.15625 1.71875 -0.125 C 1.8125 -0.101562 1.957031 -0.09375 2.15625 -0.09375 C 2.164062 -0.09375 2.171875 -0.078125 2.171875 -0.046875 C 2.171875 -0.015625 2.164062 0 2.15625 0 C 1.988281 0 1.859375 0 1.765625 0 L 1.1875 -0.015625 L 0.65625 0 C 0.5625 0 0.429688 0 0.265625 0 C 0.253906 0 0.25 -0.015625 0.25 -0.046875 C 0.25 -0.078125 0.253906 -0.09375 0.265625 -0.09375 C 0.453125 -0.09375 0.59375 -0.101562 0.6875 -0.125 C 0.78125 -0.15625 0.84375 -0.207031 0.875 -0.28125 C 0.90625 -0.351562 0.921875 -0.46875 0.921875 -0.625 L 0.921875 -4.1875 C 0.921875 -4.332031 0.90625 -4.441406 0.875 -4.515625 C 0.84375 -4.585938 0.78125 -4.640625 0.6875 -4.671875 C 0.59375 -4.703125 0.453125 -4.71875 0.265625 -4.71875 C 0.253906 -4.71875 0.25 -4.734375 0.25 -4.765625 C 0.25 -4.796875 0.253906 -4.8125 0.265625 -4.8125 L 0.65625 -4.796875 C 0.875 -4.785156 1.050781 -4.78125 1.1875 -4.78125 C 1.34375 -4.78125 1.539062 -4.785156 1.78125 -4.796875 L 2.15625 -4.8125 C 2.164062 -4.8125 2.171875 -4.796875 2.171875 -4.765625 C 2.171875 -4.734375 2.164062 -4.71875 2.15625 -4.71875 C 1.957031 -4.71875 1.8125 -4.703125 1.71875 -4.671875 C 1.625 -4.640625 1.5625 -4.582031 1.53125 -4.5 C 1.5 -4.425781 1.484375 -4.316406 1.484375 -4.171875 L 1.484375 -2.578125 L 4.34375 -2.578125 L 4.34375 -4.171875 C 4.34375 -4.316406 4.328125 -4.425781 4.296875 -4.5 C 4.265625 -4.582031 4.203125 -4.640625 4.109375 -4.671875 C 4.015625 -4.703125 3.875 -4.71875 3.6875 -4.71875 C 3.664062 -4.71875 3.65625 -4.734375 3.65625 -4.765625 C 3.65625 -4.796875 3.664062 -4.8125 3.6875 -4.8125 L 4.046875 -4.796875 C 4.265625 -4.785156 4.460938 -4.78125 4.640625 -4.78125 C 4.773438 -4.78125 4.957031 -4.785156 5.1875 -4.796875 L 5.5625 -4.8125 C 5.582031 -4.8125 5.59375 -4.796875 5.59375 -4.765625 C 5.59375 -4.734375 5.582031 -4.71875 5.5625 -4.71875 C 5.375 -4.71875 5.234375 -4.703125 5.140625 -4.671875 C 5.046875 -4.640625 4.984375 -4.585938 4.953125 -4.515625 C 4.921875 -4.441406 4.90625 -4.332031 4.90625 -4.1875 L 4.90625 -0.625 C 4.90625 -0.46875 4.921875 -0.351562 4.953125 -0.28125 C 4.984375 -0.207031 5.046875 -0.15625 5.140625 -0.125 C 5.234375 -0.101562 5.375 -0.09375 5.5625 -0.09375 Z M 5.5625 -0.09375 "/></g></g></g><g fill="#272727" fill-opacity="1"><g transform="translate(151.142836, 91.687134)"><g><path d="M 3.6875 -1.15625 C 3.6875 -1.164062 3.703125 -1.171875 3.734375 -1.171875 C 3.765625 -1.171875 3.78125 -1.160156 3.78125 -1.140625 C 3.726562 -0.804688 3.703125 -0.460938 3.703125 -0.109375 C 3.703125 -0.0664062 3.691406 -0.0351562 3.671875 -0.015625 C 3.660156 -0.00390625 3.628906 0 3.578125 0 L 0.328125 0 C 0.316406 0 0.3125 -0.015625 0.3125 -0.046875 C 0.3125 -0.078125 0.316406 -0.09375 0.328125 -0.09375 C 0.515625 -0.09375 0.648438 -0.101562 0.734375 -0.125 C 0.828125 -0.15625 0.890625 -0.207031 0.921875 -0.28125 C 0.953125 -0.351562 0.96875 -0.46875 0.96875 -0.625 L 0.96875 -4.1875 C 0.96875 -4.332031 0.953125 -4.441406 0.921875 -4.515625 C 0.890625 -4.585938 0.828125 -4.640625 0.734375 -4.671875 C 0.648438 -4.703125 0.515625 -4.71875 0.328125 -4.71875 C 0.316406 -4.71875 0.3125 -4.734375 0.3125 -4.765625 C 0.3125 -4.796875 0.316406 -4.8125 0.328125 -4.8125 L 3.453125 -4.8125 C 3.492188 -4.8125 3.515625 -4.785156 3.515625 -4.734375 L 3.53125 -3.78125 C 3.53125 -3.757812 3.515625 -3.75 3.484375 -3.75 C 3.460938 -3.75 3.453125 -3.757812 3.453125 -3.78125 C 3.421875 -4.050781 3.320312 -4.257812 3.15625 -4.40625 C 3 -4.5625 2.796875 -4.640625 2.546875 -4.640625 L 2.125 -4.640625 C 1.882812 -4.640625 1.722656 -4.601562 1.640625 -4.53125 C 1.566406 -4.46875 1.53125 -4.34375 1.53125 -4.15625 L 1.53125 -2.578125 L 2.40625 -2.578125 C 2.664062 -2.578125 2.851562 -2.617188 2.96875 -2.703125 C 3.082031 -2.796875 3.140625 -2.941406 3.140625 -3.140625 C 3.140625 -3.148438 3.15625 -3.15625 3.1875 -3.15625 C 3.21875 -3.15625 3.234375 -3.148438 3.234375 -3.140625 L 3.234375 -2.5 C 3.234375 -2.351562 3.234375 -2.238281 3.234375 -2.15625 L 3.25 -1.78125 C 3.25 -1.769531 3.234375 -1.765625 3.203125 -1.765625 C 3.171875 -1.765625 3.15625 -1.769531 3.15625 -1.78125 C 3.15625 -2 3.09375 -2.15625 2.96875 -2.25 C 2.851562 -2.351562 2.664062 -2.40625 2.40625 -2.40625 L 1.53125 -2.40625 L 1.53125 -0.65625 C 1.53125 -0.519531 1.546875 -0.414062 1.578125 -0.34375 C 1.609375 -0.28125 1.660156 -0.234375 1.734375 -0.203125 C 1.816406 -0.179688 1.9375 -0.171875 2.09375 -0.171875 L 2.640625 -0.171875 C 2.910156 -0.171875 3.132812 -0.253906 3.3125 -0.421875 C 3.488281 -0.597656 3.613281 -0.84375 3.6875 -1.15625 Z M 3.6875 -1.15625 "/></g></g></g><g fill="#272727" fill-opacity="1"><g transform="translate(155.747174, 91.687134)"><g/></g></g><g fill="#272727" fill-opacity="1"><g transform="translate(157.992951, 91.687134)"><g/></g></g><g fill="#272727" fill-opacity="1"><g transform="translate(160.238728, 91.687134)"><g/></g></g><g fill="#272727" fill-opacity="1"><g transform="translate(162.484504, 91.687134)"><g/></g></g><g fill="#272727" fill-opacity="1"><g transform="translate(164.740019, 91.687134)"><g><path d="M 2.359375 0.03125 C 2.203125 0.03125 2.023438 0.0195312 1.828125 0 C 1.753906 0 1.660156 0 1.546875 0 C 1.441406 -0.0078125 1.320312 -0.015625 1.1875 -0.015625 L 0.65625 0 C 0.550781 0 0.421875 0 0.265625 0 C 0.253906 0 0.25 -0.015625 0.25 -0.046875 C 0.25 -0.078125 0.253906 -0.09375 0.265625 -0.09375 C 0.453125 -0.09375 0.585938 -0.101562 0.671875 -0.125 C 0.765625 -0.15625 0.828125 -0.207031 0.859375 -0.28125 C 0.890625 -0.351562 0.90625 -0.46875 0.90625 -0.625 L 0.90625 -4.1875 C 0.90625 -4.332031 0.890625 -4.441406 0.859375 -4.515625 C 0.828125 -4.585938 0.765625 -4.640625 0.671875 -4.671875 C 0.585938 -4.703125 0.453125 -4.71875 0.265625 -4.71875 C 0.253906 -4.71875 0.25 -4.734375 0.25 -4.765625 C 0.25 -4.796875 0.253906 -4.8125 0.265625 -4.8125 L 0.65625 -4.796875 C 0.875 -4.785156 1.050781 -4.78125 1.1875 -4.78125 C 1.375 -4.78125 1.566406 -4.789062 1.765625 -4.8125 C 2.003906 -4.8125 2.164062 -4.8125 2.25 -4.8125 C 2.78125 -4.8125 3.25 -4.707031 3.65625 -4.5 C 4.070312 -4.300781 4.390625 -4.023438 4.609375 -3.671875 C 4.835938 -3.316406 4.953125 -2.921875 4.953125 -2.484375 C 4.953125 -1.984375 4.835938 -1.539062 4.609375 -1.15625 C 4.378906 -0.78125 4.0625 -0.488281 3.65625 -0.28125 C 3.257812 -0.0703125 2.828125 0.03125 2.359375 0.03125 Z M 2.28125 -0.09375 C 2.675781 -0.09375 3.023438 -0.175781 3.328125 -0.34375 C 3.640625 -0.519531 3.878906 -0.773438 4.046875 -1.109375 C 4.222656 -1.441406 4.3125 -1.84375 4.3125 -2.3125 C 4.3125 -2.757812 4.226562 -3.160156 4.0625 -3.515625 C 3.894531 -3.878906 3.660156 -4.164062 3.359375 -4.375 C 3.054688 -4.59375 2.710938 -4.703125 2.328125 -4.703125 C 2.097656 -4.703125 1.925781 -4.6875 1.8125 -4.65625 C 1.695312 -4.632812 1.609375 -4.582031 1.546875 -4.5 C 1.492188 -4.425781 1.46875 -4.316406 1.46875 -4.171875 L 1.46875 -0.703125 C 1.46875 -0.484375 1.519531 -0.328125 1.625 -0.234375 C 1.738281 -0.140625 1.957031 -0.09375 2.28125 -0.09375 Z M 2.28125 -0.09375 "/></g></g></g><g fill="#272727" fill-opacity="1"><g transform="translate(170.52368, 91.687134)"><g><path d="M 5.390625 -0.09375 C 5.410156 -0.09375 5.421875 -0.078125 5.421875 -0.046875 C 5.421875 -0.015625 5.410156 0 5.390625 0 C 5.296875 0 5.144531 -0.00390625 4.9375 -0.015625 C 4.738281 -0.0234375 4.585938 -0.03125 4.484375 -0.03125 C 4.367188 -0.03125 4.222656 -0.0234375 4.046875 -0.015625 C 3.890625 -0.00390625 3.765625 0 3.671875 0 C 3.648438 0 3.640625 -0.015625 3.640625 -0.046875 C 3.640625 -0.078125 3.648438 -0.09375 3.671875 -0.09375 C 3.847656 -0.09375 3.976562 -0.109375 4.0625 -0.140625 C 4.144531 -0.171875 4.1875 -0.234375 4.1875 -0.328125 C 4.1875 -0.398438 4.148438 -0.515625 4.078125 -0.671875 L 3.40625 -2.046875 L 1.578125 -2.046875 L 1.125 -1 C 1.050781 -0.84375 1.015625 -0.703125 1.015625 -0.578125 C 1.015625 -0.253906 1.265625 -0.09375 1.765625 -0.09375 C 1.796875 -0.09375 1.8125 -0.078125 1.8125 -0.046875 C 1.8125 -0.015625 1.796875 0 1.765625 0 C 1.671875 0 1.539062 -0.00390625 1.375 -0.015625 C 1.175781 -0.0234375 1.003906 -0.03125 0.859375 -0.03125 C 0.734375 -0.03125 0.578125 -0.0234375 0.390625 -0.015625 C 0.234375 -0.00390625 0.101562 0 0 0 C -0.0195312 0 -0.03125 -0.015625 -0.03125 -0.046875 C -0.03125 -0.078125 -0.0195312 -0.09375 0 -0.09375 C 0.144531 -0.09375 0.265625 -0.117188 0.359375 -0.171875 C 0.460938 -0.222656 0.5625 -0.316406 0.65625 -0.453125 C 0.75 -0.597656 0.851562 -0.800781 0.96875 -1.0625 L 2.578125 -4.859375 C 2.585938 -4.878906 2.609375 -4.890625 2.640625 -4.890625 C 2.671875 -4.890625 2.691406 -4.878906 2.703125 -4.859375 L 4.53125 -1.046875 C 4.707031 -0.671875 4.851562 -0.414062 4.96875 -0.28125 C 5.09375 -0.15625 5.234375 -0.09375 5.390625 -0.09375 Z M 1.640625 -2.21875 L 3.34375 -2.21875 L 2.4375 -4.078125 Z M 1.640625 -2.21875 "/></g></g></g><g fill="#272727" fill-opacity="1"><g transform="translate(176.384249, 91.687134)"><g><path d="M 1.484375 -4.65625 C 1.171875 -4.65625 0.925781 -4.566406 0.75 -4.390625 C 0.582031 -4.222656 0.460938 -3.945312 0.390625 -3.5625 C 0.378906 -3.539062 0.359375 -3.53125 0.328125 -3.53125 C 0.304688 -3.539062 0.296875 -3.550781 0.296875 -3.5625 C 0.316406 -3.707031 0.335938 -3.9375 0.359375 -4.25 C 0.390625 -4.570312 0.40625 -4.8125 0.40625 -4.96875 C 0.40625 -5 0.414062 -5.015625 0.4375 -5.015625 C 0.46875 -5.015625 0.484375 -5 0.484375 -4.96875 C 0.484375 -4.863281 0.625 -4.8125 0.90625 -4.8125 C 1.34375 -4.789062 1.859375 -4.78125 2.453125 -4.78125 C 2.753906 -4.78125 3.070312 -4.785156 3.40625 -4.796875 L 3.9375 -4.8125 C 4.125 -4.8125 4.257812 -4.820312 4.34375 -4.84375 C 4.4375 -4.863281 4.492188 -4.914062 4.515625 -5 C 4.523438 -5.019531 4.539062 -5.03125 4.5625 -5.03125 C 4.59375 -5.03125 4.609375 -5.019531 4.609375 -5 C 4.585938 -4.851562 4.566406 -4.625 4.546875 -4.3125 C 4.535156 -4 4.53125 -3.75 4.53125 -3.5625 C 4.53125 -3.550781 4.515625 -3.546875 4.484375 -3.546875 C 4.460938 -3.546875 4.445312 -3.550781 4.4375 -3.5625 C 4.414062 -3.957031 4.320312 -4.238281 4.15625 -4.40625 C 4 -4.570312 3.753906 -4.65625 3.421875 -4.65625 C 3.210938 -4.65625 3.0625 -4.644531 2.96875 -4.625 C 2.882812 -4.601562 2.828125 -4.554688 2.796875 -4.484375 C 2.765625 -4.421875 2.75 -4.316406 2.75 -4.171875 L 2.75 -0.625 C 2.75 -0.46875 2.765625 -0.351562 2.796875 -0.28125 C 2.828125 -0.207031 2.890625 -0.15625 2.984375 -0.125 C 3.085938 -0.101562 3.25 -0.09375 3.46875 -0.09375 C 3.476562 -0.09375 3.484375 -0.078125 3.484375 -0.046875 C 3.484375 -0.015625 3.476562 0 3.46875 0 C 3.300781 0 3.164062 0 3.0625 0 L 2.453125 -0.015625 L 1.875 0 C 1.769531 0 1.625 0 1.4375 0 C 1.425781 0 1.421875 -0.015625 1.421875 -0.046875 C 1.421875 -0.078125 1.425781 -0.09375 1.4375 -0.09375 C 1.65625 -0.09375 1.8125 -0.101562 1.90625 -0.125 C 2.007812 -0.15625 2.078125 -0.207031 2.109375 -0.28125 C 2.148438 -0.351562 2.171875 -0.46875 2.171875 -0.625 L 2.171875 -4.1875 C 2.171875 -4.332031 2.15625 -4.4375 2.125 -4.5 C 2.09375 -4.5625 2.03125 -4.601562 1.9375 -4.625 C 1.851562 -4.644531 1.703125 -4.65625 1.484375 -4.65625 Z M 1.484375 -4.65625 "/></g></g></g><g fill="#272727" fill-opacity="1"><g transform="translate(181.721825, 91.687134)"><g><path d="M 3.6875 -1.15625 C 3.6875 -1.164062 3.703125 -1.171875 3.734375 -1.171875 C 3.765625 -1.171875 3.78125 -1.160156 3.78125 -1.140625 C 3.726562 -0.804688 3.703125 -0.460938 3.703125 -0.109375 C 3.703125 -0.0664062 3.691406 -0.0351562 3.671875 -0.015625 C 3.660156 -0.00390625 3.628906 0 3.578125 0 L 0.328125 0 C 0.316406 0 0.3125 -0.015625 0.3125 -0.046875 C 0.3125 -0.078125 0.316406 -0.09375 0.328125 -0.09375 C 0.515625 -0.09375 0.648438 -0.101562 0.734375 -0.125 C 0.828125 -0.15625 0.890625 -0.207031 0.921875 -0.28125 C 0.953125 -0.351562 0.96875 -0.46875 0.96875 -0.625 L 0.96875 -4.1875 C 0.96875 -4.332031 0.953125 -4.441406 0.921875 -4.515625 C 0.890625 -4.585938 0.828125 -4.640625 0.734375 -4.671875 C 0.648438 -4.703125 0.515625 -4.71875 0.328125 -4.71875 C 0.316406 -4.71875 0.3125 -4.734375 0.3125 -4.765625 C 0.3125 -4.796875 0.316406 -4.8125 0.328125 -4.8125 L 3.453125 -4.8125 C 3.492188 -4.8125 3.515625 -4.785156 3.515625 -4.734375 L 3.53125 -3.78125 C 3.53125 -3.757812 3.515625 -3.75 3.484375 -3.75 C 3.460938 -3.75 3.453125 -3.757812 3.453125 -3.78125 C 3.421875 -4.050781 3.320312 -4.257812 3.15625 -4.40625 C 3 -4.5625 2.796875 -4.640625 2.546875 -4.640625 L 2.125 -4.640625 C 1.882812 -4.640625 1.722656 -4.601562 1.640625 -4.53125 C 1.566406 -4.46875 1.53125 -4.34375 1.53125 -4.15625 L 1.53125 -2.578125 L 2.40625 -2.578125 C 2.664062 -2.578125 2.851562 -2.617188 2.96875 -2.703125 C 3.082031 -2.796875 3.140625 -2.941406 3.140625 -3.140625 C 3.140625 -3.148438 3.15625 -3.15625 3.1875 -3.15625 C 3.21875 -3.15625 3.234375 -3.148438 3.234375 -3.140625 L 3.234375 -2.5 C 3.234375 -2.351562 3.234375 -2.238281 3.234375 -2.15625 L 3.25 -1.78125 C 3.25 -1.769531 3.234375 -1.765625 3.203125 -1.765625 C 3.171875 -1.765625 3.15625 -1.769531 3.15625 -1.78125 C 3.15625 -2 3.09375 -2.15625 2.96875 -2.25 C 2.851562 -2.351562 2.664062 -2.40625 2.40625 -2.40625 L 1.53125 -2.40625 L 1.53125 -0.65625 C 1.53125 -0.519531 1.546875 -0.414062 1.578125 -0.34375 C 1.609375 -0.28125 1.660156 -0.234375 1.734375 -0.203125 C 1.816406 -0.179688 1.9375 -0.171875 2.09375 -0.171875 L 2.640625 -0.171875 C 2.910156 -0.171875 3.132812 -0.253906 3.3125 -0.421875 C 3.488281 -0.597656 3.613281 -0.84375 3.6875 -1.15625 Z M 3.6875 -1.15625 "/></g></g></g></svg>